<svg viewBox="0 0 43 69" fill="none" xmlns="http://www.w3.org/2000/svg">
<path d="M9.86457 48.0479C8.60267 48.0479 7.53707 47.1503 7.32475 45.9097L0.141928 3.85657C0.0257526 3.17843 0.181987 2.50028 0.582591 1.9418C0.983194 1.38333 1.57609 1.01234 2.25311 0.896657C3.65522 0.661299 4.98923 1.60273 5.22959 2.99892L12.4124 45.0521C12.5286 45.7302 12.3724 46.4084 11.9717 46.9668C11.5711 47.5253 10.9783 47.8963 10.3012 48.012C10.161 48.0359 10.0128 48.0479 9.86457 48.0479Z" fill="#272528"/>
<path d="M9.86457 48.0479C8.60267 48.0479 7.53707 47.1503 7.32475 45.9097L0.141928 3.85657C0.0257526 3.17843 0.181987 2.50028 0.582591 1.9418C0.983194 1.38333 1.57609 1.01234 2.25311 0.896657C3.65522 0.661299 4.98923 1.60273 5.22959 2.99892L12.4124 45.0521C12.5286 45.7302 12.3724 46.4084 11.9717 46.9668C11.5711 47.5253 10.9783 47.8963 10.3012 48.012C10.161 48.0359 10.0128 48.0479 9.86457 48.0479Z" fill="#272528"/>
<path d="M21.9024 28.6528C17.7963 28.6528 13.9785 29.8775 10.7857 31.9797L11.655 37.0698C14.3991 34.6884 17.9845 33.2403 21.9024 33.2403C30.5194 33.2403 37.53 40.2212 37.53 48.8018C37.53 57.3824 30.5194 64.3633 21.9024 64.3633C13.2855 64.3633 6.27491 57.3824 6.27491 48.8018C6.27491 47.6569 6.4031 46.544 6.63946 45.4709L5.25337 37.369C2.99397 40.6202 1.66797 44.5614 1.66797 48.8058C1.66797 59.9155 10.7456 68.9548 21.9024 68.9548C33.0593 68.9548 42.1369 59.9155 42.1369 48.8058C42.1369 37.6961 33.0633 28.6528 21.9024 28.6528Z" fill="#272528"/>
<path d="M20.7972 60.5618C22.3194 60.5618 23.5533 59.333 23.5533 57.8173C23.5533 56.3015 22.3194 55.0728 20.7972 55.0728C19.275 55.0728 18.041 56.3015 18.041 57.8173C18.041 59.333 19.275 60.5618 20.7972 60.5618Z" fill="#272528"/>
<path d="M29.4065 57.3665C30.9287 57.3665 32.1627 56.1377 32.1627 54.6219C32.1627 53.1062 30.9287 51.8774 29.4065 51.8774C27.8844 51.8774 26.6504 53.1062 26.6504 54.6219C26.6504 56.1377 27.8844 57.3665 29.4065 57.3665Z" fill="#272528"/>
<path d="M22.6399 51.4825C24.1621 51.4825 25.3961 50.2538 25.3961 48.738C25.3961 47.2223 24.1621 45.9935 22.6399 45.9935C21.1178 45.9935 19.8838 47.2223 19.8838 48.738C19.8838 50.2538 21.1178 51.4825 22.6399 51.4825Z" fill="#272528"/>
<path d="M14.0833 54.2869C15.6055 54.2869 16.8395 53.0581 16.8395 51.5424C16.8395 50.0266 15.6055 48.7979 14.0833 48.7979C12.5611 48.7979 11.3271 50.0266 11.3271 51.5424C11.3271 53.0581 12.5611 54.2869 14.0833 54.2869Z" fill="#272528"/>
<path d="M31.1692 48.6702C32.6914 48.6702 33.9254 47.4414 33.9254 45.9257C33.9254 44.4099 32.6914 43.1812 31.1692 43.1812C29.6471 43.1812 28.4131 44.4099 28.4131 45.9257C28.4131 47.4414 29.6471 48.6702 31.1692 48.6702Z" fill="#272528"/>
<path d="M24.4788 42.4033C26.001 42.4033 27.235 41.1746 27.235 39.6588C27.235 38.1431 26.001 36.9143 24.4788 36.9143C22.9566 36.9143 21.7227 38.1431 21.7227 39.6588C21.7227 41.1746 22.9566 42.4033 24.4788 42.4033Z" fill="#272528"/>
<path d="M15.8421 45.5946C17.3643 45.5946 18.5982 44.3658 18.5982 42.8501C18.5982 41.3343 17.3643 40.1056 15.8421 40.1056C14.3199 40.1056 13.0859 41.3343 13.0859 42.8501C13.0859 44.3658 14.3199 45.5946 15.8421 45.5946Z" fill="#272528"/>
</svg>
