<svg width="63" height="16" viewBox="0 0 63 16" fill="none" xmlns="http://www.w3.org/2000/svg">
<g clip-path="url(#clip0_406_3716)">
<path fill-rule="evenodd" clip-rule="evenodd" d="M39.9697 15.6873H37.334C36.8389 15.6873 36.4376 15.2849 36.4376 14.7891V7.80869L31.8111 10.7159C31.423 10.9599 30.9294 10.9599 30.5413 10.7159L25.9147 7.80839V14.7891C25.9147 15.2849 25.5132 15.6873 25.0184 15.6873H22.3827C21.8873 15.6873 21.4863 15.2849 21.4863 14.7891V1.33507C21.4863 0.371693 22.5638 -0.197413 23.3568 0.347144L30.6697 5.36731C30.9748 5.57717 31.3776 5.57717 31.6829 5.36731L38.9953 0.347144C39.7886 -0.197712 40.8661 0.371393 40.8661 1.33477V14.7891C40.8661 15.2849 40.4648 15.6873 39.9697 15.6873Z" fill="white"/>
<path fill-rule="evenodd" clip-rule="evenodd" d="M17.5172 15.5673L1.18946 15.567C0.532581 15.567 0 15.0331 0 14.3745V0.894417C0 0.400401 0.399361 0 0.892096 0H3.51515C4.00759 0 4.40725 0.400401 4.40725 0.894417V11.1483L14.2994 11.1486V0.894417C14.2994 0.400401 14.6985 0 15.1915 0H17.8146C18.307 0 18.7066 0.400401 18.7066 0.894417V14.3748C18.7066 15.0334 18.1741 15.5673 17.5172 15.5673Z" fill="white"/>
<path fill-rule="evenodd" clip-rule="evenodd" d="M44.7998 0L61.1275 0.000298139C61.7844 0.000298139 62.317 0.534265 62.317 1.19285V14.6729C62.317 15.1669 61.9173 15.5673 61.4249 15.5673H58.8019C58.3091 15.5673 57.9098 15.1669 57.9098 14.6729V5.0153C57.9098 4.68615 57.6433 4.41902 57.315 4.41902L48.6123 4.41872C48.284 4.41872 48.0176 4.68555 48.0176 5.015V14.6729C48.0176 15.1669 47.6182 15.5673 47.1255 15.5673H44.5024C44.0097 15.5673 43.6104 15.1669 43.6104 14.6729V1.19256C43.6104 0.533967 44.1429 0 44.7998 0Z" fill="white"/>
<path fill-rule="evenodd" clip-rule="evenodd" d="M50.7588 8.19314V10.8469C50.7588 11.3377 51.1585 11.7354 51.6516 11.7354H54.2745C54.7677 11.7354 55.1674 11.3377 55.1674 10.8469V8.19314C55.1674 7.70242 54.7677 7.30469 54.2745 7.30469H51.6516C51.1585 7.30469 50.7588 7.70242 50.7588 8.19314Z" fill="white"/>
</g>
<defs>
<clipPath id="clip0_406_3716">
<rect width="62.3158" height="16" fill="white"/>
</clipPath>
</defs>
</svg>
