<svg width="281" height="280" viewBox="0 0 281 280" fill="none" xmlns="http://www.w3.org/2000/svg">
<rect x="0.5" y="0.5" width="279.007" height="279" fill="white"/>
<path fill-rule="evenodd" clip-rule="evenodd" d="M162.593 90.7089L168.291 96.3068L149.25 115.014C148.246 112.446 146.166 110.402 143.552 109.416L162.593 90.7089ZM136.456 109.416L117.414 90.7089L111.716 96.3068L130.758 115.014C131.761 112.446 133.842 110.402 136.456 109.416ZM130.758 121.986L111.716 140.693L117.414 146.291L136.456 127.584C133.842 126.598 131.761 124.554 130.758 121.986ZM143.552 127.584L162.593 146.291L168.291 140.693L149.25 121.986C148.246 124.554 146.166 126.598 143.552 127.584Z" fill="#FF4A4A"/>
<rect x="225" y="20" width="32" height="32" rx="8" fill="#FF4A4A"/>
<path d="M236.757 31.7574H245.243M245.243 31.7574V40.2426M245.243 31.7574L236.757 40.2426" stroke="white" stroke-width="1.5"/>
<path d="M94.7612 186.291L98.7612 175.666H100.628L104.519 186.291H102.824L101.722 183.205H97.5581L96.4097 186.291H94.7612ZM98.0425 181.799H101.222L99.6519 177.408L98.0425 181.799ZM110.881 186.486C110.178 186.486 109.527 186.354 108.928 186.088C108.329 185.822 107.816 185.453 107.389 184.979C106.967 184.505 106.634 183.924 106.389 183.236C106.149 182.549 106.029 181.796 106.029 180.979C106.029 179.328 106.485 177.999 107.397 176.994C108.313 175.984 109.501 175.479 110.959 175.479C112.199 175.479 113.227 175.807 114.045 176.463C114.868 177.114 115.391 178.101 115.615 179.424H113.904C113.738 178.544 113.402 177.914 112.897 177.533C112.391 177.153 111.74 176.963 110.943 176.963C109.959 176.963 109.167 177.317 108.568 178.026C107.975 178.734 107.678 179.697 107.678 180.916V181.041C107.678 182.265 107.972 183.231 108.561 183.94C109.149 184.643 109.933 184.994 110.912 184.994C112.641 184.994 113.649 184.13 113.936 182.401H115.631C115.433 183.765 114.912 184.789 114.068 185.471C113.225 186.148 112.162 186.486 110.881 186.486ZM118.282 186.291V175.666H122.118C123.482 175.666 124.501 175.921 125.172 176.432C125.844 176.937 126.18 177.648 126.18 178.565C126.18 179.33 125.956 179.979 125.508 180.51C125.066 181.036 124.428 181.369 123.594 181.51C124.433 181.749 125.066 182.218 125.493 182.916C125.925 183.614 126.219 184.606 126.376 185.893L126.422 186.291H124.727L124.712 185.955C124.633 185.356 124.519 184.838 124.368 184.401C124.222 183.958 124.016 183.567 123.751 183.229C123.49 182.885 123.154 182.627 122.743 182.455C122.331 182.283 121.847 182.197 121.29 182.197H119.86V186.291H118.282ZM119.86 180.869H121.876C122.35 180.869 122.766 180.807 123.126 180.682C123.49 180.557 123.771 180.39 123.969 180.182C124.172 179.973 124.324 179.747 124.422 179.502C124.521 179.252 124.571 178.992 124.571 178.721C124.571 178.143 124.373 177.716 123.977 177.44C123.581 177.164 122.951 177.026 122.087 177.026H119.86V180.869ZM133.55 186.486C132.019 186.486 130.782 185.979 129.839 184.963C128.896 183.947 128.425 182.619 128.425 180.979C128.425 179.333 128.902 178.005 129.855 176.994C130.808 175.984 132.066 175.479 133.628 175.479C135.159 175.479 136.394 175.986 137.331 177.002C138.274 178.012 138.745 179.338 138.745 180.979C138.745 182.624 138.269 183.955 137.316 184.971C136.368 185.981 135.112 186.486 133.55 186.486ZM133.566 185.041C134.649 185.041 135.506 184.684 136.136 183.971C136.766 183.257 137.081 182.27 137.081 181.01V180.932C137.081 179.692 136.769 178.713 136.144 177.994C135.524 177.276 134.68 176.916 133.612 176.916C132.529 176.916 131.67 177.273 131.034 177.986C130.404 178.7 130.089 179.682 130.089 180.932V181.01C130.089 182.255 130.399 183.239 131.019 183.963C131.644 184.682 132.493 185.041 133.566 185.041ZM145.474 186.471C142.86 186.471 141.339 185.281 140.912 182.901H142.638C142.795 183.677 143.089 184.231 143.521 184.565C143.959 184.893 144.592 185.057 145.42 185.057C146.138 185.057 146.696 184.901 147.092 184.588C147.493 184.27 147.693 183.83 147.693 183.268C147.693 183.065 147.641 182.882 147.537 182.721C147.438 182.559 147.313 182.427 147.162 182.322C147.016 182.218 146.808 182.122 146.537 182.033C146.266 181.94 146.016 181.867 145.787 181.815C145.563 181.762 145.266 181.703 144.896 181.635C144.615 181.578 144.362 181.523 144.138 181.471C143.914 181.414 143.672 181.341 143.412 181.252C143.151 181.158 142.922 181.062 142.724 180.963C142.532 180.859 142.339 180.731 142.146 180.58C141.954 180.429 141.795 180.265 141.67 180.088C141.55 179.906 141.451 179.695 141.373 179.455C141.3 179.21 141.263 178.945 141.263 178.658C141.263 177.736 141.612 176.976 142.31 176.377C143.008 175.778 143.901 175.479 144.99 175.479C146.204 175.479 147.177 175.778 147.912 176.377C148.646 176.971 149.092 177.854 149.248 179.026H147.537C147.427 178.27 147.159 177.726 146.732 177.393C146.31 177.054 145.724 176.885 144.974 176.885C144.323 176.885 143.805 177.039 143.42 177.346C143.039 177.653 142.849 178.065 142.849 178.58C142.849 178.757 142.881 178.919 142.943 179.065C143.011 179.205 143.11 179.328 143.24 179.432C143.375 179.531 143.521 179.619 143.677 179.697C143.839 179.776 144.032 179.846 144.256 179.908C144.48 179.966 144.693 180.018 144.896 180.065C145.105 180.106 145.347 180.153 145.623 180.205C145.68 180.216 145.724 180.223 145.756 180.229C146.162 180.307 146.511 180.387 146.802 180.471C147.094 180.549 147.407 180.666 147.74 180.822C148.079 180.973 148.352 181.148 148.56 181.346C148.769 181.544 148.943 181.802 149.084 182.119C149.224 182.432 149.295 182.789 149.295 183.19C149.295 184.174 148.954 184.968 148.271 185.572C147.589 186.171 146.657 186.471 145.474 186.471ZM156.086 186.471C153.472 186.471 151.951 185.281 151.524 182.901H153.25C153.407 183.677 153.701 184.231 154.133 184.565C154.571 184.893 155.203 185.057 156.032 185.057C156.75 185.057 157.308 184.901 157.703 184.588C158.104 184.27 158.305 183.83 158.305 183.268C158.305 183.065 158.253 182.882 158.149 182.721C158.05 182.559 157.925 182.427 157.774 182.322C157.628 182.218 157.42 182.122 157.149 182.033C156.878 181.94 156.628 181.867 156.399 181.815C156.175 181.762 155.878 181.703 155.508 181.635C155.227 181.578 154.974 181.523 154.75 181.471C154.526 181.414 154.284 181.341 154.024 181.252C153.763 181.158 153.534 181.062 153.336 180.963C153.144 180.859 152.951 180.731 152.758 180.58C152.565 180.429 152.407 180.265 152.282 180.088C152.162 179.906 152.063 179.695 151.985 179.455C151.912 179.21 151.875 178.945 151.875 178.658C151.875 177.736 152.224 176.976 152.922 176.377C153.62 175.778 154.513 175.479 155.602 175.479C156.815 175.479 157.789 175.778 158.524 176.377C159.258 176.971 159.703 177.854 159.86 179.026H158.149C158.039 178.27 157.771 177.726 157.344 177.393C156.922 177.054 156.336 176.885 155.586 176.885C154.935 176.885 154.417 177.039 154.032 177.346C153.651 177.653 153.461 178.065 153.461 178.58C153.461 178.757 153.492 178.919 153.555 179.065C153.623 179.205 153.722 179.328 153.852 179.432C153.987 179.531 154.133 179.619 154.289 179.697C154.451 179.776 154.644 179.846 154.867 179.908C155.091 179.966 155.305 180.018 155.508 180.065C155.716 180.106 155.959 180.153 156.235 180.205C156.292 180.216 156.336 180.223 156.367 180.229C156.774 180.307 157.123 180.387 157.414 180.471C157.706 180.549 158.019 180.666 158.352 180.822C158.69 180.973 158.964 181.148 159.172 181.346C159.381 181.544 159.555 181.802 159.696 182.119C159.836 182.432 159.907 182.789 159.907 183.19C159.907 184.174 159.565 184.968 158.883 185.572C158.201 186.171 157.269 186.471 156.086 186.471ZM162.456 186.291V184.291H164.393V186.291H162.456ZM167.919 186.291V177.088H164.544V175.666H172.912V177.088H169.521V186.291H167.919ZM179.5 186.486C177.969 186.486 176.732 185.979 175.789 184.963C174.846 183.947 174.375 182.619 174.375 180.979C174.375 179.333 174.852 178.005 175.805 176.994C176.758 175.984 178.016 175.479 179.578 175.479C181.109 175.479 182.344 175.986 183.281 177.002C184.224 178.012 184.695 179.338 184.695 180.979C184.695 182.624 184.219 183.955 183.266 184.971C182.318 185.981 181.062 186.486 179.5 186.486ZM179.516 185.041C180.599 185.041 181.456 184.684 182.086 183.971C182.716 183.257 183.031 182.27 183.031 181.01V180.932C183.031 179.692 182.719 178.713 182.094 177.994C181.474 177.276 180.63 176.916 179.562 176.916C178.479 176.916 177.62 177.273 176.984 177.986C176.354 178.7 176.039 179.682 176.039 180.932V181.01C176.039 182.255 176.349 183.239 176.969 183.963C177.594 184.682 178.443 185.041 179.516 185.041Z" fill="#FF4A4A"/>
<rect x="0.5" y="0.5" width="279.007" height="279" stroke="#FF4A4A"/>
</svg>
