<svg width="62" height="82" viewBox="0 0 62 82" fill="none" xmlns="http://www.w3.org/2000/svg">
<path d="M22.6922 51.1842C21.707 51.1842 20.8751 50.4835 20.7093 49.5149L15.1015 16.6828C15.0108 16.1533 15.1328 15.6239 15.4455 15.1879C15.7583 14.7519 16.2212 14.4622 16.7498 14.3719C17.8444 14.1882 18.8859 14.9232 19.0736 16.0132L24.6814 48.8453C24.7721 49.3748 24.6501 49.9042 24.3374 50.3402C24.0246 50.7763 23.5617 51.0659 23.0332 51.1562C22.9237 51.1749 22.808 51.1842 22.6922 51.1842Z" fill="#272528"/>
<path d="M22.6922 51.1803C21.707 51.1803 20.8751 50.4796 20.7093 49.511L15.1015 16.6789C15.0108 16.1494 15.1328 15.62 15.4455 15.184C15.7583 14.748 16.2212 14.4583 16.7498 14.368C17.8444 14.1842 18.8859 14.9192 19.0736 16.0093L24.6814 48.8414C24.7721 49.3709 24.6501 49.9003 24.3374 50.3363C24.0246 50.7723 23.5617 51.062 23.0332 51.1523C22.9237 51.171 22.808 51.1803 22.6922 51.1803Z" fill="#272528"/>
<path d="M32.0896 36.0371C28.8838 36.0371 25.9032 36.9932 23.4105 38.6345L24.0892 42.6085C26.2316 40.7492 29.0308 39.6187 32.0896 39.6187C38.8172 39.6187 44.2905 45.0689 44.2905 51.768C44.2905 58.4671 38.8172 63.9173 32.0896 63.9173C25.3621 63.9173 19.8888 58.4671 19.8888 51.768C19.8888 50.8742 19.9888 50.0052 20.1734 49.1675L19.0912 42.8421C17.3272 45.3803 16.292 48.4574 16.292 51.7711C16.292 60.4447 23.3792 67.502 32.0896 67.502C40.8001 67.502 47.8873 60.4447 47.8873 51.7711C47.8873 43.0975 40.8032 36.0371 32.0896 36.0371Z" fill="#272528"/>
<path d="M31.228 60.9475C32.4164 60.9475 33.3798 59.9882 33.3798 58.8048C33.3798 57.6214 32.4164 56.6621 31.228 56.6621C30.0396 56.6621 29.0762 57.6214 29.0762 58.8048C29.0762 59.9882 30.0396 60.9475 31.228 60.9475Z" fill="#272528"/>
<path d="M37.9487 58.4554C39.1371 58.4554 40.1005 57.496 40.1005 56.3126C40.1005 55.1292 39.1371 54.1699 37.9487 54.1699C36.7603 54.1699 35.7969 55.1292 35.7969 56.3126C35.7969 57.496 36.7603 58.4554 37.9487 58.4554Z" fill="#272528"/>
<path d="M32.6655 53.8577C33.8539 53.8577 34.8173 52.8984 34.8173 51.715C34.8173 50.5316 33.8539 49.5723 32.6655 49.5723C31.4771 49.5723 30.5137 50.5316 30.5137 51.715C30.5137 52.8984 31.4771 53.8577 32.6655 53.8577Z" fill="#272528"/>
<path d="M25.9858 56.0491C27.1742 56.0491 28.1376 55.0898 28.1376 53.9064C28.1376 52.723 27.1742 51.7637 25.9858 51.7637C24.7974 51.7637 23.834 52.723 23.834 53.9064C23.834 55.0898 24.7974 56.0491 25.9858 56.0491Z" fill="#272528"/>
<path d="M39.3256 51.6624C40.514 51.6624 41.4774 50.7031 41.4774 49.5197C41.4774 48.3363 40.514 47.377 39.3256 47.377C38.1372 47.377 37.1738 48.3363 37.1738 49.5197C37.1738 50.7031 38.1372 51.6624 39.3256 51.6624Z" fill="#272528"/>
<path d="M34.103 46.7698C35.2914 46.7698 36.2548 45.8105 36.2548 44.6271C36.2548 43.4437 35.2914 42.4844 34.103 42.4844C32.9146 42.4844 31.9512 43.4437 31.9512 44.6271C31.9512 45.8105 32.9146 46.7698 34.103 46.7698Z" fill="#272528"/>
<path d="M27.3598 49.262C28.5482 49.262 29.5116 48.3027 29.5116 47.1193C29.5116 45.9359 28.5482 44.9766 27.3598 44.9766C26.1714 44.9766 25.208 45.9359 25.208 47.1193C25.208 48.3027 26.1714 49.262 27.3598 49.262Z" fill="#272528"/>
</svg>
