<svg width="50" height="56" viewBox="0 0 50 56" fill="none" xmlns="http://www.w3.org/2000/svg">
<path d="M24.8711 0L19.6859 2.954L5.55627 11.046L0.371094 14V42L5.55627 44.954L19.8149 53.046L25.0007 56L30.1858 53.046L44.1859 44.954L49.3711 42V14L44.1859 11.046L30.0563 2.954L24.8711 0ZM10.7414 36.092V19.908L24.8711 11.816L39.0007 19.908V36.092L24.8711 44.184L10.7414 36.092Z" fill="#1F1F1F"/>
<path d="M24.8711 0L19.6859 2.954L5.55627 11.046L0.371094 14V42L5.55627 44.954L19.8149 53.046L25.0007 56L30.1858 53.046L44.1859 44.954L49.3711 42V14L44.1859 11.046L30.0563 2.954L24.8711 0ZM10.7414 36.092V19.908L24.8711 11.816L39.0007 19.908V36.092L24.8711 44.184L10.7414 36.092Z" fill="url(#paint0_linear_1016_100)"/>
<defs>
<linearGradient id="paint0_linear_1016_100" x1="1.07844" y1="3.62963" x2="54.8981" y2="18.7962" gradientUnits="userSpaceOnUse">
<stop stop-color="white"/>
<stop offset="1" stop-color="#B7B7B7"/>
</linearGradient>
</defs>
</svg>
