<svg width="56" height="57" viewBox="0 0 56 57" fill="none" xmlns="http://www.w3.org/2000/svg">
<rect x="4" y="4.65405" width="48" height="48" rx="24" fill="#FFEBEB"/>
<path d="M27 19.6541H23.8C22.1198 19.6541 21.2798 19.6541 20.638 19.981C20.0735 20.2687 19.6146 20.7276 19.327 21.2921C19 21.9338 19 22.7739 19 24.4541V32.8541C19 34.5342 19 35.3743 19.327 36.016C19.6146 36.5805 20.0735 37.0395 20.638 37.3271C21.2798 37.6541 22.1198 37.6541 23.8 37.6541H32.2C33.8802 37.6541 34.7202 37.6541 35.362 37.3271C35.9265 37.0395 36.3854 36.5805 36.673 36.016C37 35.3743 37 34.5342 37 32.8541V29.6541M28 24.6541H32V28.6541M31.5 20.1541V18.6541M35.4393 21.2147L36.5 20.1541M36.5103 25.1541H38.0103M19 30.0012C19.6519 30.1018 20.3199 30.1541 21 30.1541C25.3864 30.1541 29.2653 27.9816 31.6197 24.6541" stroke="#FF4A4A" stroke-width="2" stroke-linecap="round" stroke-linejoin="round"/>
<rect x="4" y="4.65405" width="48" height="48" rx="24" stroke="#FFF5F5" stroke-width="8"/>
</svg>
