<svg width="56" height="57" viewBox="0 0 56 57" fill="none" xmlns="http://www.w3.org/2000/svg">
<rect x="4" y="4.65405" width="48" height="48" rx="24" fill="#FFEBEB"/>
<path d="M22.0944 27.8828C22.0322 27.4823 22 27.0719 22 26.6541C22 22.2358 25.6052 18.6541 30.0526 18.6541C34.4999 18.6541 38.1052 22.2358 38.1052 26.6541C38.1052 27.6521 37.9213 28.6075 37.5852 29.4886C37.5154 29.6715 37.4804 29.763 37.4646 29.8345C37.4489 29.9052 37.4428 29.955 37.4411 30.0275C37.4394 30.1007 37.4493 30.1812 37.4692 30.3424L37.8717 33.6126C37.9153 33.9666 37.9371 34.1436 37.8782 34.2723C37.8266 34.385 37.735 34.4746 37.6211 34.5236C37.4911 34.5795 37.3146 34.5536 36.9617 34.5019L33.7765 34.035C33.6101 34.0106 33.527 33.9984 33.4512 33.9988C33.3763 33.9992 33.3245 34.0048 33.2511 34.0202C33.177 34.0358 33.0823 34.0712 32.893 34.1422C32.0097 34.473 31.0524 34.6541 30.0526 34.6541C29.6344 34.6541 29.2237 34.6224 28.8227 34.5613M23.6316 38.6541C26.5965 38.6541 29 36.1916 29 33.1541C29 30.1165 26.5965 27.6541 23.6316 27.6541C20.6667 27.6541 18.2632 30.1165 18.2632 33.1541C18.2632 33.7646 18.3603 34.352 18.5395 34.9008C18.6153 35.1328 18.6532 35.2488 18.6657 35.328C18.6786 35.4107 18.6809 35.4572 18.6761 35.5408C18.6714 35.6208 18.6514 35.7114 18.6113 35.8924L18 38.6541L20.9948 38.2451C21.1583 38.2227 21.24 38.2116 21.3114 38.212C21.3865 38.2126 21.4264 38.2166 21.5001 38.2313C21.5701 38.2453 21.6742 38.282 21.8823 38.3555C22.4306 38.549 23.0191 38.6541 23.6316 38.6541Z" stroke="#FF4A4A" stroke-width="2" stroke-linecap="round" stroke-linejoin="round"/>
<rect x="4" y="4.65405" width="48" height="48" rx="24" stroke="#FFF5F5" stroke-width="8"/>
</svg>
