<svg viewBox="0 0 63 55" fill="none" xmlns="http://www.w3.org/2000/svg">
<path d="M1.7923 29.2309C1.24552 29.2309 0.624191 29.3055 0.164405 29.38L0.0898438 29.3055C0.0898438 21.8619 4.89897 13.4987 10.7022 9.62161C10.1554 9.07484 9.45955 8.61505 8.92521 8.30438V8.22982C13.8089 3.81836 24.2721 1.64369 31.3181 2.79937C33.8034 1.5567 36.8231 0.860809 39.7682 0.935369L39.8428 1.00993C39.6067 1.46972 39.2214 2.40172 39.0723 3.25916C42.092 3.1846 49.2995 5.03617 51.6232 6.5895V6.73862C51.0019 7.12385 50.3806 7.59606 49.8462 8.13041C56.3578 11.933 60.3095 16.6551 62.248 23.3158L62.1735 23.3904C61.5522 23.4649 61.0054 23.6265 60.5456 23.7756C60.6947 24.7821 60.8563 26.9568 60.8563 27.9634C60.8563 42.3037 47.5224 54.0842 31.3305 54.0842C15.5859 54.1091 2.57518 43.0245 1.7923 29.2309ZM51.8593 40.5516C51.8593 38.9237 50.4676 37.8426 48.3675 37.8426C47.4355 37.8426 45.9691 37.9917 45.3478 37.9917C42.4027 37.9917 40.0789 35.817 40.0789 33.0335C40.0789 30.2499 42.4027 28.0752 45.3478 28.0752C50.1569 28.0752 54.4938 31.9523 54.9536 36.0531C55.3388 34.7359 55.5749 33.2696 55.5749 31.9399C55.5749 24.1111 51.4617 18.7676 43.0985 16.5184L43.024 16.4439C43.2601 15.8971 43.5708 15.5119 43.956 15.0521L43.869 14.9775C41.9304 14.9029 39.6812 15.2136 38.0533 15.8349L37.9788 15.7604C38.0533 15.0645 38.2894 14.294 38.6747 13.5857L38.6001 13.5112C35.9656 13.8218 33.2566 14.6793 31.3181 15.7604C29.3795 14.6793 26.6705 13.8218 24.036 13.5112L23.9615 13.5857C24.3467 14.2816 24.5828 15.0521 24.6574 15.7604L24.5828 15.8349C22.9549 15.2136 20.7057 14.9029 18.7671 14.9775L18.6926 15.0521C19.0778 15.5119 19.3885 15.9095 19.6246 16.4439L19.55 16.5184C11.4851 18.7676 7.07363 24.1111 7.07363 31.9399C7.07363 33.2571 7.30974 34.7359 7.69497 36.0531C8.15475 31.9399 12.5041 28.0752 17.3008 28.0752C20.2459 28.0752 22.5697 30.2499 22.5697 33.0335C22.5697 35.8295 20.2459 37.9917 17.3008 37.9917C16.6794 37.9917 15.2131 37.8426 14.2811 37.8426C12.1934 37.8426 10.7892 38.9237 10.7892 40.5516C10.7892 46.2803 21.4016 51.7853 31.3305 51.7853C41.2594 51.7853 51.8593 46.2803 51.8593 40.5516ZM19.1524 32.176C19.1524 31.244 18.4565 30.5481 17.5245 30.5481C16.667 30.5481 15.9711 31.244 15.9711 32.176C15.9711 33.0335 16.667 33.7293 17.5245 33.7293C18.4565 33.7293 19.1524 33.0335 19.1524 32.176ZM27.2173 37.9171C27.2173 37.2212 27.764 36.6745 28.5345 36.6745C29.3919 36.6745 30.0008 37.2958 31.3305 37.2958C32.6601 37.2958 33.2691 36.6745 34.1265 36.6745C34.8969 36.6745 35.4437 37.2212 35.4437 37.9171C35.4437 39.1598 33.6667 40.1664 31.3305 40.1664C28.9943 40.1664 27.2173 39.1598 27.2173 37.9171ZM27.9877 31.7162C27.9877 30.2499 29.2304 29.3924 31.3181 29.3924C33.4057 29.3924 34.6484 30.2499 34.6484 31.7162C34.6484 33.108 33.0951 34.3507 31.3181 34.3507C29.5411 34.3507 27.9877 33.1826 27.9877 31.7162ZM46.665 32.176C46.665 31.244 45.9691 30.5481 45.1117 30.5481C44.1797 30.5481 43.4838 31.244 43.4838 32.176C43.4838 33.0335 44.1797 33.7293 45.1117 33.7293C45.9691 33.7293 46.665 33.0335 46.665 32.176Z" fill="#272528"/>
</svg>
