<svg width="50" height="43" viewBox="0 0 50 43" fill="none" xmlns="http://www.w3.org/2000/svg">
<path d="M1.80474 22.7301C1.37786 22.7301 0.892767 22.7884 0.533798 22.8466L0.475586 22.7884C0.475586 16.9769 4.23021 10.4476 8.76098 7.42061C8.33409 6.99373 7.79079 6.63476 7.37361 6.39221V6.334C11.1864 2.88984 19.3554 1.19202 24.8564 2.09429C26.7967 1.1241 29.1543 0.580799 31.4536 0.639011L31.5118 0.697222C31.3275 1.05619 31.0267 1.78383 30.9103 2.45326C33.2679 2.39505 38.895 3.84062 40.7092 5.05336V5.16978C40.2241 5.47054 39.739 5.83921 39.3218 6.25639C44.4056 9.22516 47.4908 12.9119 49.0043 18.1121L48.9461 18.1703C48.461 18.2285 48.0341 18.3546 47.6751 18.471C47.7916 19.2569 47.9177 20.9547 47.9177 21.7406C47.9177 32.9365 37.5076 42.1339 24.8661 42.1339C12.5738 42.1533 2.41596 33.4992 1.80474 22.7301ZM40.8935 31.5685C40.8935 30.2976 39.8069 29.4535 38.1673 29.4535C37.4397 29.4535 36.2949 29.57 35.8098 29.57C33.5104 29.57 31.6962 27.8721 31.6962 25.6989C31.6962 23.5257 33.5104 21.8279 35.8098 21.8279C39.5644 21.8279 42.9503 24.8549 43.3093 28.0565C43.6101 27.0281 43.7944 25.8833 43.7944 24.8452C43.7944 18.733 40.5831 14.5612 34.0537 12.8051L33.9955 12.7469C34.1798 12.3201 34.4224 12.0193 34.7232 11.6603L34.6552 11.6021C33.1417 11.5439 31.3857 11.7864 30.1148 12.2715L30.0566 12.2133C30.1148 11.67 30.2991 11.0685 30.5999 10.5155L30.5417 10.4573C28.4849 10.6998 26.3699 11.3693 24.8564 12.2133C23.3429 11.3693 21.2279 10.6998 19.1711 10.4573L19.1129 10.5155C19.4136 11.0588 19.598 11.6603 19.6562 12.2133L19.598 12.2715C18.327 11.7864 16.571 11.5439 15.0575 11.6021L14.9993 11.6603C15.3 12.0193 15.5426 12.3298 15.7269 12.7469L15.6687 12.8051C9.37219 14.5612 5.92803 18.733 5.92803 24.8452C5.92803 25.8735 6.11237 27.0281 6.41312 28.0565C6.77209 24.8452 10.1677 21.8279 13.9127 21.8279C16.212 21.8279 18.0263 23.5257 18.0263 25.6989C18.0263 27.8818 16.212 29.57 13.9127 29.57C13.4276 29.57 12.2828 29.4535 11.5551 29.4535C9.9252 29.4535 8.82889 30.2976 8.82889 31.5685C8.82889 36.0411 17.1143 40.339 24.8661 40.339C32.6179 40.339 40.8935 36.0411 40.8935 31.5685ZM15.3582 25.0295C15.3582 24.3018 14.8149 23.7585 14.0873 23.7585C13.4179 23.7585 12.8746 24.3018 12.8746 25.0295C12.8746 25.6989 13.4179 26.2422 14.0873 26.2422C14.8149 26.2422 15.3582 25.6989 15.3582 25.0295ZM21.6547 29.5117C21.6547 28.9684 22.0816 28.5416 22.6831 28.5416C23.3526 28.5416 23.828 29.0267 24.8661 29.0267C25.9042 29.0267 26.3796 28.5416 27.049 28.5416C27.6505 28.5416 28.0774 28.9684 28.0774 29.5117C28.0774 30.4819 26.69 31.2678 24.8661 31.2678C23.0421 31.2678 21.6547 30.4819 21.6547 29.5117ZM22.2563 24.6705C22.2563 23.5257 23.2264 22.8563 24.8564 22.8563C26.4863 22.8563 27.4565 23.5257 27.4565 24.6705C27.4565 25.7571 26.2437 26.7273 24.8564 26.7273C23.469 26.7273 22.2563 25.8153 22.2563 24.6705ZM36.8382 25.0295C36.8382 24.3018 36.2949 23.7585 35.6254 23.7585C34.8978 23.7585 34.3545 24.3018 34.3545 25.0295C34.3545 25.6989 34.8978 26.2422 35.6254 26.2422C36.2949 26.2422 36.8382 25.6989 36.8382 25.0295Z" fill="#272528"/>
</svg>
