<svg width="42" height="34" viewBox="0 0 42 34" fill="none" xmlns="http://www.w3.org/2000/svg">
<path d="M30.6555 0H4.23365C2.55035 0 1.18604 1.36432 1.18604 3.04762V18.2857C1.18604 19.969 2.55035 21.3333 4.23365 21.3333H9.75557C10.8069 21.3333 8.15557 13.6 11.7556 13.6C15.7648 12.1474 33.7031 13.432 33.7031 12.8V3.04762C33.7031 1.36432 32.3388 0 30.6555 0ZM4.23365 2.03175H30.6555C31.2163 2.03175 31.6714 2.48686 31.6714 3.04762V5.07936H3.21778V3.04762C3.21778 2.48686 3.67337 2.03175 4.23365 2.03175ZM9.35557 19.3016H4.23365C3.67289 19.3016 3.21778 18.8465 3.21778 18.2857V9.14286H31.6714V12.8C31.6714 12.9426 13.4638 12.5475 11.3556 13.2C8.55557 13.2 9.77332 19.3016 9.35557 19.3016Z" fill="#B0AFB3"/>
<path d="M37.7663 12.2672H11.3445C9.66119 12.2672 8.29688 13.6315 8.29688 15.3148V30.5529C8.29688 32.2362 9.66119 33.6005 11.3445 33.6005H37.7663C39.4496 33.6005 40.814 32.2362 40.814 30.5529V15.3148C40.814 13.6315 39.4496 12.2672 37.7663 12.2672ZM11.3445 14.299H37.7663C38.3271 14.299 38.7822 14.7541 38.7822 15.3148V17.3466H10.3286V15.3148C10.3286 14.7541 10.7842 14.299 11.3445 14.299ZM37.7663 31.5688H11.3445C10.7837 31.5688 10.3286 31.1137 10.3286 30.5529V21.4101H38.7822V30.5529C38.7822 31.1137 38.3266 31.5688 37.7663 31.5688Z" fill="#B0AFB3"/>
</svg>
