<svg viewBox="0 0 46 47" fill="none" xmlns="http://www.w3.org/2000/svg">
<rect x="3" y="3.65405" width="40" height="40" rx="20" fill="#FFEBEB"/>
<path d="M30.0833 19.7188L23 23.654M23 23.654L15.9166 19.7188M23 23.654L23 31.5707M30.5 27.0362V20.2719C30.5 19.9864 30.5 19.8436 30.4579 19.7163C30.4207 19.6036 30.3599 19.5002 30.2795 19.413C30.1886 19.3144 30.0638 19.245 29.8142 19.1064L23.6475 15.6804C23.4112 15.5491 23.293 15.4835 23.1679 15.4578C23.0571 15.435 22.9429 15.435 22.8321 15.4578C22.707 15.4835 22.5888 15.5491 22.3525 15.6804L16.1858 19.1064C15.9362 19.245 15.8114 19.3144 15.7205 19.413C15.6401 19.5002 15.5793 19.6036 15.5421 19.7163C15.5 19.8436 15.5 19.9864 15.5 20.2719V27.0362C15.5 27.3217 15.5 27.4645 15.5421 27.5918C15.5793 27.7045 15.6401 27.8079 15.7205 27.8951C15.8114 27.9937 15.9362 28.063 16.1858 28.2017L22.3525 31.6276C22.5888 31.7589 22.707 31.8246 22.8321 31.8503C22.9429 31.8731 23.0571 31.8731 23.1679 31.8503C23.293 31.8246 23.4112 31.7589 23.6475 31.6276L29.8142 28.2017C30.0638 28.063 30.1886 27.9937 30.2795 27.8951C30.3599 27.8079 30.4207 27.7045 30.4579 27.5918C30.5 27.4645 30.5 27.3217 30.5 27.0362Z" stroke="#EE3535" stroke-width="1.66667" stroke-linecap="round" stroke-linejoin="round"/>
<rect x="3" y="3.65405" width="40" height="40" rx="20" stroke="#FFF5F5" stroke-width="6"/>
</svg>
