<svg width="22" height="24" viewBox="0 0 22 24" fill="none" xmlns="http://www.w3.org/2000/svg">
<path d="M19.223 0C20.6292 0 21.7617 1.137 21.8285 2.4765V24L19.1525 21.7267L17.684 20.391L16.0782 18.9923L16.7465 21.1957H2.71099C1.30849 21.1957 0.172241 20.133 0.172241 18.7192V2.481C0.172241 1.1415 1.30924 0.0045 2.71549 0.0045H19.2155L19.223 0ZM13.1052 5.6835H13.0737L12.8705 5.883C14.945 6.4845 15.9485 7.422 15.9485 7.422C14.6127 6.75375 13.4052 6.41775 12.2022 6.28125C11.3352 6.1485 10.4637 6.219 9.72949 6.28125H9.52624C9.05749 6.28125 8.05774 6.4845 6.71749 7.01925C6.25249 7.2225 5.98324 7.35525 5.98324 7.35525C5.98324 7.35525 6.98299 6.351 9.19399 5.81625L9.05749 5.6835C9.05749 5.6835 7.38574 5.61675 5.58124 6.95325C5.58124 6.95325 3.77674 10.098 3.77674 13.9725C3.77674 13.9725 4.77649 15.711 7.51924 15.777C7.51924 15.777 7.92124 15.246 8.32399 14.7772C6.78499 14.3085 6.18349 13.371 6.18349 13.371C6.18349 13.371 6.31999 13.4377 6.51949 13.5705H6.57799C6.60949 13.5705 6.62524 13.5862 6.64024 13.602V13.6095C6.65599 13.6252 6.67174 13.6365 6.69874 13.6365C7.03099 13.773 7.35874 13.9058 7.62874 14.0385C8.09749 14.238 8.69524 14.4405 9.42949 14.574C10.3595 14.7105 11.4252 14.7735 12.6402 14.574C13.238 14.4375 13.8395 14.3085 14.441 14.0385C14.828 13.839 15.308 13.6402 15.8352 13.3005C15.8352 13.3005 15.2375 14.238 13.6317 14.7067C13.9602 15.1717 14.4245 15.7065 14.4245 15.7065C17.1702 15.6442 18.2367 13.9057 18.2952 13.98C18.2952 10.1093 16.4787 6.96075 16.4787 6.96075C14.846 5.74575 13.3145 5.69925 13.0452 5.69925L13.1 5.67975L13.1052 5.6835ZM13.2732 10.098C13.9767 10.098 14.543 10.6958 14.543 11.43C14.543 12.1725 13.973 12.7695 13.2732 12.7695C12.5697 12.7695 12.0035 12.1718 12.0035 11.4375C12.0035 10.695 12.5735 10.098 13.2732 10.098ZM8.73049 10.098C9.42949 10.098 9.99649 10.6958 9.99649 11.43C9.99649 12.1725 9.42649 12.7695 8.72674 12.7695C8.02324 12.7695 7.45324 12.1718 7.45324 11.4375C7.45324 10.695 8.02324 10.098 8.72674 10.098H8.73049Z" fill="#C9C8C9"/>
</svg>
