<svg width="21" height="22" viewBox="0 0 21 22" fill="none" xmlns="http://www.w3.org/2000/svg">
<path d="M10.5891 0.5C4.84219 0.5 0 5.11719 0 10.8172C0 11 0.0046875 21.5 0.0046875 21.5L10.5891 21.4906C16.3406 21.4906 21 16.6953 21 10.9953C21 5.29531 16.3406 0.5 10.5891 0.5ZM10.5 17C9.59062 17 8.72344 16.7984 7.95 16.4328L4.14844 17.375L5.22188 13.8594C4.7625 13.0109 4.5 12.0359 4.5 11C4.5 7.68594 7.18594 5 10.5 5C13.8141 5 16.5 7.68594 16.5 11C16.5 14.3141 13.8141 17 10.5 17Z" fill="#272528"/>
</svg>
