<svg width="157" height="160" viewBox="0 0 157 160" fill="none" xmlns="http://www.w3.org/2000/svg">
<path d="M42.7996 37.2653L52.8875 20.9543C55.6048 16.5608 61.2214 14.9601 65.8466 17.2612L69.8887 19.2721C72.8201 20.7305 76.2796 20.6615 79.1505 19.0875L108.799 2.83209C111.987 1.08438 115.872 1.20428 118.946 3.14525L151.113 23.4569C154.014 25.289 155.774 28.4808 155.774 31.9123V88.2301C155.774 91.8008 153.87 95.1006 150.779 96.8877L46.5359 157.148C43.4781 158.916 39.7146 158.94 36.6349 157.21L6.10378 140.066C2.95143 138.296 1 134.962 1 131.347V70.6711C1 67.2621 2.73659 64.088 5.6074 62.2497L39.6873 40.4267C40.9484 39.6192 42.0119 38.5388 42.7996 37.2653Z" stroke="#272528" stroke-width="1.5"/>
<path d="M7.63257 133.6L48.2356 156.4" stroke="#272528" stroke-width="1.5"/>
<path d="M50.0443 108L91.8534 131.2" stroke="#272528" stroke-width="1.5"/>
<path d="M28.3344 121.2L68.9374 144" stroke="#272528" stroke-width="1.5"/>
<path d="M70.9504 96.0003L112.759 118.4" stroke="#272528" stroke-width="1.5"/>
<path d="M99.0919 79.2007L140.901 102.401" stroke="#272528" stroke-width="1.5"/>
<path d="M14.6704 129.201L55.2734 152.001" stroke="#272528" stroke-width="1.5"/>
<path d="M57.2832 104.001L99.0922 126.401" stroke="#272528" stroke-width="1.5"/>
<path d="M35.3722 116.8L75.9752 139.6" stroke="#272528" stroke-width="1.5"/>
<path d="M78.1859 91.2L119.995 114.4" stroke="#272528" stroke-width="1.5"/>
<path d="M106.328 74.4004L148.137 98.4004" stroke="#272528" stroke-width="1.5"/>
<path d="M113.563 60.8013L155.372 84.8013" stroke="#272528" stroke-width="1.5"/>
<path d="M113.563 51.1992L155.372 75.1992" stroke="#272528" stroke-width="1.5"/>
<path d="M113.563 40.7997L155.372 64.7997" stroke="#272528" stroke-width="1.5"/>
<path d="M113.563 31.1992L155.372 55.1992" stroke="#272528" stroke-width="1.5"/>
<path d="M113.563 21.5988L155.372 45.5988" stroke="#272528" stroke-width="1.5"/>
<path d="M113.563 11.1993L155.372 35.1993" stroke="#272528" stroke-width="1.5"/>
<path d="M21.906 125.199L62.509 147.999" stroke="#272528" stroke-width="1.5"/>
<path d="M64.5188 99.999L106.328 122.399" stroke="#272528" stroke-width="1.5"/>
<path d="M92.6571 83.201L134.466 106.401" stroke="#272528" stroke-width="1.5"/>
<path d="M42.6078 112.799L83.2108 135.599" stroke="#272528" stroke-width="1.5"/>
<path d="M85.4215 87.1997L127.231 110.4" stroke="#272528" stroke-width="1.5"/>
<path d="M112.513 68.7994L155.126 93.5994" stroke="#272528" stroke-width="1.5"/>
<path d="M2.40686 136.4L106.816 74.1812C110.75 71.8365 113.161 67.5941 113.161 63.0138V7.32541e-05" stroke="#272528" stroke-width="1.5"/>
</svg>
