<svg width="32" height="32" viewBox="0 0 32 32" fill="none" xmlns="http://www.w3.org/2000/svg">
<g clip-path="url(#clip0_406_4092)">
<path d="M32.0317 16C32.0317 7.49952 25.3547 0.528023 16.9592 0.0305547C16.7862 0.0115547 16.6127 -0.000976562 16.4367 -0.000976562C16.3847 -0.000976562 16.3327 0.00452344 16.2807 0.00602344C16.1872 0.00452344 16.0942 -0.000976562 15.9997 -0.000976562C7.15974 -0.000976562 -0.0322266 7.17702 -0.0322266 16C-0.0322266 24.823 7.15977 32.001 15.9997 32.001C16.0942 32.001 16.1872 31.9955 16.2812 31.9935C16.3332 31.9955 16.3852 32.001 16.4372 32.001C16.6132 32.001 16.7867 31.9885 16.9597 31.9695C25.3547 31.472 32.0317 24.5015 32.0317 16ZM29.0489 21.151C28.4979 20.991 27.1139 20.6435 24.6719 20.3575C24.8739 18.9765 24.9844 17.517 24.9844 16C24.9844 14.8045 24.9154 13.6456 24.7879 12.531C27.8819 12.1615 29.2374 11.696 29.3284 11.664L28.9559 10.6145C29.6509 12.2735 30.0359 14.0925 30.0359 16C30.0359 17.8185 29.6834 19.555 29.0489 21.151H29.0489ZM8.92134 16.0001C8.92134 14.8811 8.9954 13.7885 9.13087 12.7375C10.7524 12.865 12.6914 12.959 14.9703 12.981V19.9205C12.7518 19.942 10.8558 20.032 9.26134 20.1541C9.04134 18.8355 8.92134 17.4391 8.92134 16.0001ZM16.9669 2.13199C19.4189 2.84249 21.5184 6.24746 22.4589 10.7605C20.9474 10.881 19.1269 10.969 16.9669 10.9895V2.13199ZM14.9704 2.15646V10.9885C12.8339 10.967 11.0054 10.8799 9.46846 10.7625C10.428 6.30596 12.5445 2.92646 14.9704 2.15646ZM14.9704 21.9134L14.9705 29.8429C12.708 29.1249 10.7145 26.1374 9.67796 22.1234C11.1705 22.0139 12.931 21.934 14.9704 21.9134ZM16.9669 29.8679L16.9669 21.9129C19.0279 21.9324 20.7814 22.0154 22.2549 22.1294C21.2359 26.1959 19.2549 29.2049 16.9669 29.8679ZM16.9669 19.9204L16.9669 12.9819C19.2579 12.9604 21.1854 12.8639 22.7854 12.7319C22.9206 13.8161 22.9884 14.9077 22.9884 16.0004C22.9884 17.4419 22.8724 18.8399 22.6594 20.1604C21.0839 20.0329 19.1969 19.9414 16.9669 19.9204ZM28.5875 9.8104C28.2855 9.9044 27.023 10.2629 24.493 10.5614C23.929 7.5629 22.9095 4.9999 21.583 3.1499C24.631 4.4744 27.1185 6.8469 28.5875 9.8104H28.5875ZM11.213 2.83093C9.58146 4.70443 8.24946 7.39846 7.52246 10.5845C5.25746 10.339 3.89993 10.0504 3.35646 9.91943C4.94146 6.64943 7.76396 4.08343 11.213 2.83093ZM2.61349 11.787C2.99849 11.8915 4.45452 12.2539 7.16202 12.5534C7.00221 13.6954 6.92201 14.8472 6.92202 16.0004C6.92202 17.5089 7.05852 18.9604 7.30452 20.3344C4.97952 20.5854 3.54952 20.8859 2.90802 21.0409C2.30052 19.4754 1.96402 17.777 1.96402 15.9999C1.96402 14.5324 2.19252 13.1169 2.61349 11.787ZM3.78402 22.8859C4.51102 22.7314 5.81252 22.4964 7.74002 22.2944C8.49902 25.0979 9.73352 27.4699 11.213 29.1684C8.05302 28.0209 5.42252 25.7699 3.78402 22.8859ZM21.583 28.8494C22.7775 27.1849 23.723 24.9424 24.311 22.3244C26.2925 22.5519 27.5365 22.8179 28.164 22.9764C26.6635 25.5724 24.3561 27.6449 21.583 28.8494Z" fill="#B0AFB3"/>
</g>
<defs>
<clipPath id="clip0_406_4092">
<rect width="32" height="32" fill="white"/>
</clipPath>
</defs>
</svg>
