<svg width="1337" height="440" viewBox="0 0 1337 440" fill="none" xmlns="http://www.w3.org/2000/svg">
<path d="M1072.46 26.5919L1028.89 53.3065L1029.13 92.2756L1029.38 131.326H1022.93C1011.43 131.326 1001.56 135.493 993.072 143.989C986.871 150.198 983.281 156.162 980.181 164.985C976.754 175.115 976.183 181.978 976.183 212.287C976.183 242.024 976.265 242.433 980.426 246.191C988.34 253.462 1008.98 256.321 1017.87 251.338C1024.89 247.335 1024.65 248.478 1025.14 216.29C1025.54 188.023 1025.54 187.697 1027.42 185.899L1029.21 184.102V231.894V279.768L957.337 321.351C917.767 344.226 885.051 363.098 884.643 363.261C884.154 363.425 883.909 362.199 884.154 360.075C884.48 356.726 884.398 356.644 880.727 354.765C878.687 353.703 834.712 328.786 782.905 299.375L688.835 245.864L614.347 290.552L539.858 335.158L539.532 350.272L539.287 365.385L498.086 341.612C475.487 328.459 456.803 317.43 456.722 317.103C456.558 316.695 456.722 314.734 457.13 312.773L457.701 309.179L472.386 300.11C480.463 295.127 486.99 290.715 486.909 290.307C486.827 289.49 471.244 280.748 399.774 241.207C379.622 230.015 362.326 220.457 361.428 219.885C359.96 218.904 357.92 219.966 341.848 229.77C326.509 239.083 323.736 240.554 322.267 239.819C321.37 239.328 298.444 226.094 271.357 210.408C244.189 194.722 220.61 181.161 218.897 180.262C212.288 176.913 214.491 175.851 153.383 211.388C122.543 229.362 96.8433 243.822 96.3537 243.495C95.8642 243.25 95.701 243.332 96.109 243.658C96.4353 244.067 95.8642 245.211 94.8852 246.354C93.2534 248.07 93.0087 249.132 93.0087 254.932C93.0087 260.651 93.335 262.367 95.2931 266.37C100.515 276.909 85.9107 268.004 322.267 404.926L539.287 530.575V546.751V563.008L469.531 603.366C431.185 625.506 364.447 664.066 321.37 688.984L242.883 734.325L222.895 723.296L202.906 712.185L191.973 718.966C186.017 722.642 171.658 731.384 160.073 738.328L139.105 750.991L139.187 772.64L139.268 794.29L76.1203 830.645C30.7581 856.869 11.9932 868.143 9.30087 870.757C7.2612 872.8 4.32409 876.966 2.77394 880.071C0.407933 884.972 0 886.606 0 891.671C0 896.246 0.326346 897.962 1.63173 899.678C2.61077 901.067 24.476 914.22 57.9265 933.745C88.0319 951.31 113.976 966.342 115.69 967.24C117.811 968.384 119.606 968.793 121.646 968.466C123.196 968.221 131.518 963.891 140.166 958.907L155.912 949.839L175.737 961.358C186.67 967.649 195.726 972.796 195.808 972.796C195.971 972.796 201.192 969.855 207.556 966.178L219.06 959.643L219.223 936.359L219.468 913.076L449.787 779.911L680.106 646.747L693.159 654.263L706.132 661.697V670.847V679.997L718.37 687.105L730.689 694.294L738.44 689.719L746.191 685.144L792.45 711.858C817.905 726.564 840.097 739.472 841.729 740.534L844.829 742.413L906.998 706.221L969.248 670.03L969.656 620.604L970.064 571.26L955.868 552.878C948.036 542.748 936.94 528.451 931.148 521.016C922.091 509.334 920.949 507.455 922.173 506.801C922.907 506.393 968.351 480.168 1023.01 448.47C1108.44 399.126 1122.79 391.12 1124.26 391.773C1125.24 392.263 1134.3 397.41 1144.5 403.292L1162.93 413.995L1168.07 410.89C1170.93 409.175 1175.99 406.152 1179.42 404.273L1185.62 400.76L1186.11 386.708C1186.43 379.029 1186.68 368.49 1186.68 363.261V353.785L1190.76 351.579L1194.84 349.373L1195 373.719L1195.24 397.982L1207.48 405.09L1219.64 412.197L1222.98 410.318C1224.78 409.256 1239.46 400.842 1255.62 391.61L1284.99 374.781L1285.4 394.633C1285.72 410.972 1286.05 414.812 1287.19 416.854C1289.07 420.367 1291.76 422.573 1296.74 424.942C1310.28 431.151 1328.64 426.167 1335 414.485C1336.22 412.197 1336.39 408.112 1336.63 375.271C1336.88 340.877 1336.8 338.262 1335.25 332.135C1332.23 320.208 1325.78 309.914 1316.56 302.561L1311.42 298.476L1311.5 204.608C1311.59 152.976 1311.5 110.657 1311.34 110.576C1310.77 110.085 1117 0.204102 1116.59 0.0407104C1116.35 -0.0409546 1096.44 11.9683 1072.46 26.5919ZM1213.44 56.9828C1265.98 86.8019 1308.73 111.474 1308.4 111.801C1307.02 113.108 1220.62 162.616 1219.8 162.616C1218.25 162.616 1032.4 54.2869 1032.72 53.4699C1033.13 52.2445 1115.21 2.40991 1116.59 2.49158C1117.25 2.5733 1160.9 27.0821 1213.44 56.9828ZM1152.25 126.016L1218.41 164.413L1218.5 286.712C1218.5 354.03 1218.33 409.093 1218.09 409.093C1217.84 409.093 1212.87 406.315 1207.07 402.884L1196.47 396.675V335.648L1196.39 274.703L1173.21 261.305C1160.41 253.87 1150.04 247.825 1150.21 247.743C1150.29 247.661 1156.24 244.149 1163.42 240.064C1170.6 235.897 1177.7 231.322 1179.17 229.933C1183.41 225.849 1185.21 219.885 1185.21 209.346C1185.21 201.83 1184.88 199.297 1183.09 193.824C1178.44 179.445 1167.5 165.23 1154.04 156.08C1148.41 152.322 1090.73 119.154 1086 116.948C1080.61 114.579 1075.23 113.762 1071.15 114.905C1067.23 115.967 1039.09 133.205 1034.35 137.453L1030.85 140.558V97.9943V55.5123L1058.5 71.5248C1073.68 80.348 1115.86 104.857 1152.25 126.016ZM1309.55 297.006C1309.3 297.169 1303.02 294.147 1295.43 290.225C1287.44 286.14 1280.17 282.954 1278.22 282.709C1268.02 281.32 1253.33 297.088 1250.23 312.855C1248.19 323.149 1250.23 326.253 1264.43 333.932C1282.21 343.409 1285.4 347.984 1285.4 363.997L1285.31 372.738L1253.82 390.711C1236.53 400.596 1222 408.848 1221.6 408.93C1221.27 409.093 1221.02 354.193 1221.11 286.876L1221.35 164.495L1265.41 139.006L1309.46 113.517L1309.71 205.098C1309.79 255.423 1309.71 296.761 1309.55 297.006ZM1080.94 117.029C1087.14 118.663 1150.29 155.018 1158.53 161.717C1169.79 170.785 1177.7 182.305 1181.7 195.376C1184.07 203.055 1184.15 216.045 1181.78 222.254C1180.88 224.623 1179.17 227.564 1177.87 228.708C1175.83 230.75 1152.25 244.966 1151.76 244.557C1151.68 244.394 1152.41 242.515 1153.39 240.309C1154.86 237.041 1155.18 234.917 1155.18 228.136C1155.1 221.11 1154.78 218.823 1152.49 212.205C1148.33 199.869 1140.82 188.023 1132.34 180.507C1129.65 178.056 1114.8 168.988 1093.1 156.489C1051.65 132.633 1055.57 134.676 1049.45 133.45L1044.47 132.47L1056.14 125.117C1066.99 118.418 1071.72 116.049 1074.9 115.886C1075.64 115.804 1078.33 116.376 1080.94 117.029ZM1028.64 139.087C1028.07 157.632 1028.15 166.129 1028.73 173.236L1029.46 181.243L1026.69 184.102L1023.91 186.961L1023.5 215.473C1023.1 242.596 1023.01 244.067 1021.38 246.273C1018.85 249.786 1014.2 251.665 1007.27 252.073C996.988 252.645 985.158 248.969 980.263 243.658L978.223 241.453L977.978 214.82C977.652 185.572 978.386 176.504 981.486 166.701C985.484 154.12 993.969 143.254 1003.92 137.944C1010.94 134.186 1015.51 133.042 1022.69 133.205L1028.81 133.369L1028.64 139.087ZM1054.42 136.718C1055.97 137.372 1073.03 147.012 1092.28 158.123C1121.33 174.87 1128.1 179.118 1132.34 183.285C1144.9 195.458 1153.23 213.431 1153.23 228.218C1153.23 239.165 1150.29 245.864 1144.25 248.969C1140.42 250.929 1134.38 251.093 1129.48 249.377C1127.53 248.642 1110.15 239.002 1090.81 227.891C1057.2 208.529 1055.49 207.467 1049.2 201.095C1026.77 178.547 1021.95 142.6 1040.39 135.738C1043.9 134.431 1049.94 134.839 1054.42 136.718ZM1041.45 195.049C1043.57 197.99 1046.35 201.258 1047.49 202.32L1049.61 204.281V236.224L1049.53 268.167L1040.96 273.069C1036.23 275.765 1031.99 278.052 1031.58 278.216C1031.17 278.379 1030.85 257.22 1030.85 227.237V175.932L1034.19 182.795C1035.99 186.635 1039.25 192.108 1041.45 195.049ZM266.788 209.755C294.201 225.522 317.78 239.247 319.248 240.145L321.941 241.779L315.985 245.456C312.803 247.416 309.539 248.887 308.805 248.724C308.071 248.56 284.9 235.325 257.324 219.313C229.666 203.382 205.435 189.412 203.314 188.432L199.479 186.553L204.619 183.448C213.267 178.22 210.004 176.831 266.788 209.755ZM204.048 190.719C206.496 191.945 208.209 193.17 207.801 193.497C207.475 193.824 189.607 204.363 168.15 217.025L128.988 239.982L124.664 237.531C122.298 236.142 119.769 235.08 119.116 235.08C118.464 235.08 117.893 234.835 117.893 234.427C117.974 233.937 181.367 196.765 192.463 190.801C197.603 187.942 198.663 187.942 204.048 190.719ZM217.183 198.072C220.936 200.278 223.955 202.157 223.955 202.402C223.955 202.81 147.345 247.907 145.469 248.56C144.898 248.805 141.308 247.171 137.555 244.966L130.702 240.962L141.634 234.59C147.672 230.995 165.376 220.538 181.122 211.225C196.787 201.993 209.841 194.314 210.004 194.314C210.249 194.232 213.43 195.948 217.183 198.072ZM234.806 208.366C237.825 210.163 240.191 211.715 240.109 211.797C239.946 211.879 222.079 222.336 200.377 235.08L160.889 258.282L155.749 255.423C145.632 249.949 145.469 250.848 157.87 243.577C163.907 239.982 181.693 229.525 197.439 220.293C221.344 206.16 226.24 203.546 227.627 204.281C228.524 204.689 231.787 206.568 234.806 208.366ZM1055.89 209.183C1058.1 210.735 1069.03 217.189 1080.21 223.643C1091.47 230.097 1101.09 235.734 1101.66 236.306C1102.48 237.041 1097.5 240.309 1077.76 251.665C1064.05 259.671 1052.47 266.125 1052.06 266.125C1051.57 266.125 1051.24 255.096 1051.24 236.306C1051.24 219.885 1051.41 206.487 1051.65 206.487C1051.9 206.487 1053.77 207.712 1055.89 209.183ZM249.573 216.78C253.082 218.823 255.611 220.783 255.284 221.192C253.571 222.662 177.532 266.942 176.553 266.942C175.982 266.942 172.637 265.226 169.047 263.102C162.684 259.426 162.602 259.344 164.479 258.2C186.181 245.129 241.007 213.186 241.904 213.104C242.557 213.104 245.984 214.738 249.573 216.78ZM373.422 228.626C380.765 232.629 386.965 236.306 387.373 236.633C387.863 237.123 330.181 272.906 327.652 273.723C326.999 273.886 298.199 258.527 298.525 258.119C299.26 257.465 359.062 221.274 359.552 221.274C359.878 221.192 366.161 224.542 373.422 228.626ZM265.401 225.93L272.091 229.852L233.99 252.236C212.941 264.573 195.073 275.03 194.176 275.602C192.789 276.5 191.647 276.173 185.854 272.824C182.101 270.7 179.083 268.821 179.083 268.494C179.083 267.922 256.753 222.172 257.814 222.091C258.303 222.091 261.648 223.806 265.401 225.93ZM280.739 234.835C284.492 237.041 287.593 239.002 287.593 239.247C287.593 239.9 209.759 285.732 208.698 285.732C208.372 285.732 204.945 283.935 201.192 281.729L194.258 277.726L197.439 275.765C208.046 269.474 273.397 231.077 273.641 231.077C273.805 230.995 276.986 232.711 280.739 234.835ZM329.61 357.788C444.973 424.37 539.369 478.861 539.532 478.943C539.614 479.025 539.614 482.619 539.532 486.949L539.287 494.71L323.491 369.715C204.782 301.009 106.634 244.312 105.247 243.74L102.799 242.678L108.918 239.328C113.65 236.633 115.608 235.979 117.485 236.387C118.872 236.633 214.328 291.287 329.61 357.788ZM448.645 270.21L454.192 273.314L448.645 276.582C406.546 301.009 390.065 310.322 389.331 309.996C387.047 309.097 330.426 275.847 330.262 275.275C330.099 274.948 343.153 266.697 359.226 256.893L388.352 239.165L388.597 273.886C388.76 304.032 388.923 308.607 389.984 308.607C391.044 308.607 391.208 304.032 391.208 273.559V238.511L417.152 252.808C431.348 260.651 445.544 268.494 448.645 270.21ZM1111.29 241.698C1114.55 243.495 1117.41 245.211 1117.57 245.537C1117.9 246.028 888.886 378.784 885.377 380.172C884.072 380.663 883.909 380.091 884.154 373.065L884.398 365.467L942.733 331.727C974.796 313.182 1012.24 291.532 1025.95 283.689C1039.66 275.847 1062.75 262.448 1077.35 253.952C1091.95 245.374 1104.19 238.43 1104.6 238.43C1105.01 238.348 1108.03 239.819 1111.29 241.698ZM297.873 244.802L304.807 248.805L265.075 272.089L225.261 295.454L219.713 292.431C209.188 286.712 205.68 289.98 249.818 263.919C271.275 251.256 289.306 240.881 289.877 240.881C290.448 240.799 294.038 242.596 297.873 244.802ZM322.512 371.186L539.614 496.916L539.695 512.602C539.695 521.262 539.532 528.369 539.287 528.369C539.124 528.369 441.71 472.081 322.92 403.292C176.88 318.737 105.736 277.072 103.37 274.785C98.3118 269.964 94.722 262.285 94.3957 255.504C94.0693 250.603 94.2325 249.867 96.3537 247.416C98.3934 244.966 98.9645 244.72 101.983 245.047C104.594 245.374 152.812 272.906 322.512 371.186ZM1127.61 250.848C1131.12 252.727 1147.76 262.367 1164.49 272.17C1194.18 289.653 1194.84 290.062 1194.84 292.594C1194.84 294.882 1194.35 295.454 1189.94 297.823C1185.78 300.192 1184.88 300.355 1183.25 299.538C1180.72 298.15 1110.88 257.302 1108.44 255.749C1106.56 254.524 1106.56 254.524 1112.51 251.011C1115.86 249.05 1119.12 247.416 1119.86 247.416C1120.51 247.335 1124.02 248.887 1127.61 250.848ZM785.352 302.643C838.22 332.707 881.135 357.461 880.89 357.706C880.319 358.278 735.992 442.261 732.403 444.141C730.771 445.039 722.123 440.137 636.783 390.548C585.22 360.565 543.367 335.648 543.693 335.321C544.754 334.259 687.693 248.315 688.509 248.233C688.917 248.152 732.484 272.66 785.352 302.643ZM1171.58 262.367L1194.43 275.765L1194.67 281.565C1194.84 284.751 1194.67 287.366 1194.35 287.366C1194.02 287.366 1180.39 279.523 1164.16 269.964L1134.54 252.645L1138.79 252.236C1141.15 251.991 1144.17 251.174 1145.48 250.439C1146.86 249.704 1148.09 249.132 1148.33 249.05C1148.58 249.05 1159.02 255.014 1171.58 262.367ZM307.173 250.357C307.173 250.766 304.563 252.482 301.462 254.279C298.362 256.076 295.751 257.873 295.751 258.364C295.751 258.772 298.525 260.569 301.952 262.367C305.297 264.082 307.826 265.798 307.418 266.125C306.031 267.432 243.454 303.868 242.067 304.195C241.333 304.359 237.58 302.725 233.827 300.519L226.974 296.516L237.499 290.307C243.291 286.957 261.077 276.418 276.986 267.023C292.896 257.628 306.194 249.867 306.602 249.867C306.929 249.786 307.173 250.031 307.173 250.357ZM1146.7 280.258C1166.2 291.696 1182.19 301.336 1182.11 301.744C1182.11 302.888 1170.11 309.505 1168.65 309.26C1167.1 308.934 1091.22 264.327 1091.22 263.674C1091.22 263.429 1094.24 261.55 1097.91 259.426L1104.6 255.668L1107.95 257.547C1109.74 258.609 1127.2 268.821 1146.7 280.258ZM1128.18 287.938C1149.39 300.355 1166.85 310.567 1166.93 310.731C1167.42 311.058 1154.53 318.41 1153.39 318.41C1152.66 318.41 1077.6 274.948 1075.07 273.069C1074.66 272.742 1087.55 265.39 1088.61 265.39C1089.26 265.308 1107.05 275.438 1128.18 287.938ZM318.024 270.945L325.286 274.948L317.617 279.441C313.456 281.892 298.362 290.715 284.084 299.13L258.058 314.407L252.266 311.139C249.002 309.342 245.739 307.381 245.004 306.809C243.781 305.911 247.534 303.46 276.415 286.385C294.446 275.765 309.621 267.105 310.029 267.023C310.518 267.023 314.108 268.821 318.024 270.945ZM470.591 282.464C481.606 288.591 484.135 290.307 483.237 291.124C482.013 292.268 425.311 327.233 423.516 327.887C421.803 328.541 391.534 311.793 393.003 310.976C393.574 310.649 408.014 302.316 425.066 292.431C442.118 282.546 456.232 274.539 456.477 274.621C456.722 274.785 463.085 278.297 470.591 282.464ZM1112.11 296.761C1133.16 309.097 1150.45 319.554 1150.62 319.881C1150.7 320.208 1147.84 322.25 1144.17 324.374L1137.56 328.295L1099.79 306.156C1079.06 293.983 1061.44 283.608 1060.63 282.954C1059.32 282.055 1059.81 281.565 1065.6 278.134C1069.19 276.092 1072.46 274.376 1072.94 274.294C1073.43 274.294 1091.06 284.425 1112.11 296.761ZM326.591 284.997L326.346 293.33L300.32 308.607L274.294 323.884L267.114 319.799C263.117 317.512 260.098 315.469 260.343 315.224C261.159 314.325 325.53 276.745 326.183 276.745C326.509 276.745 326.673 280.503 326.591 284.997ZM377.583 305.502C383.783 309.097 389.086 312.446 389.25 313.018C389.413 313.508 389.494 328.949 389.413 347.249L389.168 380.499L358.818 363.18L328.386 345.86V311.384V276.827L347.396 287.938C357.757 293.983 371.382 301.908 377.583 305.502ZM1096.12 305.911C1116.51 317.838 1133.73 328.05 1134.22 328.541C1135.03 329.276 1133.73 330.42 1128.59 333.361C1124.92 335.485 1121.41 337.037 1120.84 336.874C1119.86 336.465 1059.32 301.091 1047.73 294.147L1043 291.287L1049.77 287.284C1053.53 285.16 1057.12 283.526 1057.77 283.771C1058.42 284.016 1075.64 293.983 1096.12 305.911ZM1295.43 292.104C1316.48 303.051 1323.66 309.342 1329.78 322.087C1334.84 332.625 1335.16 335.566 1335.16 374.535C1335.16 406.805 1335 409.746 1333.61 412.851C1329.86 421.102 1321.46 425.595 1309.87 425.677C1299.1 425.677 1291.68 422.083 1288.58 415.302C1287.19 412.197 1287.03 409.501 1287.03 383.277C1287.03 350.027 1286.95 349.536 1280.17 342.429C1277.16 339.243 1273.32 336.628 1265.82 332.625C1253.58 326.09 1253.01 325.599 1251.86 321.351C1248.19 307.626 1266.22 282.627 1278.46 284.506C1280.26 284.751 1287.84 288.183 1295.43 292.104ZM1080.78 315.633L1119.78 338.426L1116.68 340.223C1115.04 341.285 1111.86 343.082 1109.58 344.226L1105.5 346.35L1068.38 324.537C1047.98 312.61 1030.36 302.234 1029.3 301.499C1027.42 300.274 1027.5 300.274 1034.19 296.352C1037.94 294.228 1041.21 292.513 1041.45 292.594C1041.7 292.758 1059.4 303.051 1080.78 315.633ZM326.754 303.623C326.754 309.097 326.428 311.956 325.775 312.528C324.388 313.59 292.733 332.217 291.346 332.789C290.122 333.279 276.823 325.763 277.231 324.701C277.394 324.047 325.041 295.699 326.183 295.617C326.509 295.535 326.754 299.13 326.754 303.623ZM1194.67 309.424L1194.43 313.508L1046.92 398.799L899.41 484.09L892.883 480.414C889.375 478.371 886.275 476.492 886.112 476.165C885.949 475.92 955.297 435.562 1040.15 386.463L1194.43 297.251L1194.67 301.336C1194.84 303.542 1194.84 307.218 1194.67 309.424ZM1066.91 325.681C1087.06 337.527 1103.3 347.494 1103.05 347.821C1101.99 349.536 1090.24 355.255 1088.94 354.765C1086.57 353.866 1012.08 309.914 1012.08 309.424C1012.08 309.179 1015.18 307.3 1018.85 305.175C1025.54 301.417 1025.54 301.417 1027.99 302.806C1029.38 303.623 1046.84 313.917 1066.91 325.681ZM454.845 327.56L454.764 344.145L423.026 362.281L391.208 380.418V346.922C391.208 328.541 391.371 313.508 391.616 313.508C391.86 313.508 398.142 316.94 405.648 321.106C413.236 325.354 420.089 329.194 421.068 329.684C422.537 330.501 424.821 329.358 438.609 320.861C447.339 315.469 454.519 311.058 454.682 311.058C454.764 311.058 454.845 318.492 454.845 327.56ZM1049.2 333.687C1070.42 346.187 1087.63 356.644 1087.47 356.889C1087.3 357.216 1084.2 359.095 1080.61 361.137L1074.17 364.814L1035.17 341.939C1013.71 329.358 996.09 318.982 995.927 318.819C995.519 318.492 1008.41 311.139 1009.47 311.139C1010.12 311.058 1027.99 321.27 1049.2 333.687ZM326.754 322.822V331.318L317.617 336.628C312.558 339.57 307.989 342.102 307.5 342.266C306.684 342.511 292.325 334.668 292.733 334.178C293.059 333.851 326.346 314.325 326.591 314.325C326.673 314.325 326.754 318.165 326.754 322.822ZM1194.84 331.645L1194.75 347.412L1057.28 426.821L919.807 506.229L914.341 499.122C911.322 495.201 907.324 490.38 905.366 488.338C903.408 486.377 902.103 484.58 902.511 484.417C902.837 484.335 968.514 446.346 1048.39 400.106C1128.26 353.866 1193.86 316.041 1194.26 316.041C1194.59 315.959 1194.84 323.067 1194.84 331.645ZM498.576 343.818L539.695 367.673V375.271V382.868L527.294 375.679C520.441 371.676 501.757 360.892 485.848 351.661L456.885 334.913L456.64 327.479C456.558 323.394 456.64 320.044 456.885 320.044C457.211 320.044 475.894 330.746 498.576 343.818ZM1033.54 343.001C1054.51 355.255 1071.64 365.549 1071.64 365.794C1071.64 366.039 1068.62 368 1064.95 370.206C1060.05 373.065 1057.85 373.882 1056.95 373.392C1056.3 372.983 1039.25 362.935 1019.02 351.089C998.864 339.324 981.813 329.194 981.242 328.622C980.344 327.805 981.323 326.907 986.545 323.884C990.053 321.76 993.48 320.208 994.214 320.371C994.948 320.534 1012.65 330.665 1033.54 343.001ZM1017.79 352.396C1038.92 364.814 1056.14 375.107 1055.97 375.189C1054.26 376.905 1042.59 382.95 1041.7 382.623C1040.64 382.215 970.227 341.122 965.659 338.262C963.782 337.037 963.864 337.037 970.554 333.116C974.307 330.91 977.815 329.276 978.386 329.439C978.957 329.603 996.662 339.978 1017.79 352.396ZM326.754 340.468C326.754 345.533 326.999 347.167 327.978 347.494C329.936 348.311 329.447 349.128 326.102 350.599L323.001 351.987L316.311 348.148C312.64 346.105 309.621 344.145 309.621 343.818C309.621 343.246 325.122 333.932 326.183 333.932C326.509 333.932 326.754 336.874 326.754 340.468ZM461.943 339.733C464.391 341.122 466.267 342.592 466.104 343.001C465.941 343.409 448.318 354.03 426.861 366.611L387.863 389.486L380.846 385.483L373.83 381.398L376.604 379.764C380.193 377.558 380.601 377.558 385.578 380.499C387.863 381.888 390.065 382.95 390.392 382.787C390.718 382.623 405.73 374.127 423.761 363.752L456.477 345.043V341.122C456.477 338.998 456.722 337.2 456.966 337.2C457.293 337.2 459.496 338.344 461.943 339.733ZM637.436 393.08L729.792 446.836V569.381V691.843L726.365 689.719C724.407 688.575 719.43 685.716 715.351 683.347L707.763 679.098V618.153V557.126L634.744 514.562C594.603 491.116 561.56 471.999 561.316 471.999C561.071 471.999 560.908 489.645 560.908 511.131V550.264L551.77 555.574L542.551 560.966L542.143 530.166C541.898 513.255 541.653 462.849 541.49 418.161L541.327 337.037L543.122 338.181C544.182 338.834 586.607 363.588 637.436 393.08ZM1002.54 361.873C1023.26 374.045 1040.31 384.012 1040.39 384.094C1040.96 384.584 1027.01 391.937 1025.95 391.773C1024.4 391.447 948.444 346.84 948.444 346.187C948.444 345.942 951.544 344.063 955.216 342.02C960.356 339.079 962.232 338.426 963.374 338.998C964.19 339.406 981.813 349.7 1002.54 361.873ZM479.647 350.108C481.361 351.17 482.421 352.314 482.095 352.641C480.953 353.621 404.425 398.472 403.854 398.472C403.038 398.472 390.392 390.875 390.392 390.384C390.392 390.139 408.096 379.519 429.716 366.856L469.041 343.818L472.713 346.023C474.834 347.167 477.853 349.046 479.647 350.108ZM985.647 370.451C1006.86 382.95 1023.91 393.489 1023.59 393.816C1022.36 395.123 1011.92 400.923 1010.86 400.923C1009.47 400.923 932.942 356.072 932.942 355.337C932.942 354.602 944.528 347.984 945.915 347.903C946.567 347.821 964.435 358.033 985.647 370.451ZM344.132 356.889L346.417 358.278L343.643 359.994C342.092 360.892 340.542 361.709 340.298 361.709C339.971 361.709 336.463 359.83 332.465 357.461L325.204 353.213L328.223 351.415L331.241 349.536L336.545 352.477C339.482 354.111 342.908 356.072 344.132 356.889ZM492.293 357.379C495.883 359.503 498.739 361.301 498.657 361.382C497.923 362.118 420.334 407.459 419.844 407.459C418.702 407.459 406.627 400.351 406.627 399.698C406.627 398.963 483.482 353.621 484.787 353.54C485.277 353.54 488.704 355.255 492.293 357.379ZM1184.64 395.695L1184.15 399.78L1173.95 405.662L1163.83 411.462L1164 389.322L1164.24 367.101L1174.44 361.137L1184.64 355.255L1184.88 373.392C1185.04 383.359 1184.88 393.407 1184.64 395.695ZM970.064 379.601C1007.43 401.577 1008.9 402.475 1007.02 403.619C1005.96 404.273 1002.86 406.152 1000.01 407.786L994.867 410.727L956.358 388.179C935.145 375.761 917.523 365.385 917.196 365.059C916.544 364.405 928.455 356.971 930.25 356.889C930.74 356.807 948.689 367.101 970.064 379.601ZM360.613 366.366C362.244 367.346 362.244 367.346 360.613 368.572C357.268 371.186 355.717 370.941 348.783 366.938L342.092 363.016L345.193 361.219L348.293 359.34L353.678 362.363C356.615 363.997 359.715 365.794 360.613 366.366ZM882.359 416.772V474.368L876.566 471.018C872.16 468.486 870.447 467.832 869.386 468.486C868.652 468.894 840.668 485.152 807.136 504.677L746.109 539.97L745.946 574.446C745.864 593.317 745.783 625.342 745.783 645.603C745.701 665.782 745.375 682.775 745.049 683.347C744.722 683.837 742.356 685.471 739.745 686.859C737.216 688.33 734.279 690.127 733.3 690.781L731.424 691.925V569.544V447.082L806.728 403.211C848.092 379.11 882.032 359.34 882.196 359.34C882.277 359.258 882.359 385.156 882.359 416.772ZM507.795 366.284C513.18 369.389 514.322 370.287 513.424 371.104C511.793 372.575 437.875 415.71 436.243 416.2C434.693 416.609 422.129 409.91 422.455 408.848C422.618 408.194 499.636 362.608 500.615 362.526C500.942 362.526 504.123 364.242 507.795 366.284ZM952.605 387.934C973.409 400.106 990.951 410.563 991.522 411.135C992.419 411.952 991.522 412.769 986.3 415.71C982.792 417.671 979.61 419.387 979.284 419.55C978.549 419.877 901.124 374.617 901.124 373.8C901.124 373.31 913.28 365.876 914.259 365.794C914.585 365.794 931.8 375.761 952.605 387.934ZM370.974 372.166C374.482 374.127 377.501 376.006 377.664 376.333C377.909 376.66 376.685 377.722 375.053 378.62L372.035 380.336L365.345 376.496C361.673 374.454 358.573 372.493 358.573 372.166C358.573 371.594 363.631 368.327 364.284 368.49C364.529 368.572 367.547 370.206 370.974 372.166ZM1162.04 400.433L1161.79 411.462L1143.6 400.923C1133.56 395.205 1125.41 390.221 1125.41 389.894C1125.41 389.568 1133.56 384.584 1143.6 378.784L1161.79 368.327L1162.04 378.865C1162.12 384.666 1162.12 394.388 1162.04 400.433ZM523.623 375.434C527.049 377.395 529.905 379.274 529.905 379.519C529.905 379.846 512.282 390.466 490.662 403.211L451.5 426.249L444.973 422.491C441.465 420.449 438.365 418.488 438.201 418.243C437.875 417.671 516.117 371.349 516.851 371.758C517.096 371.839 520.114 373.473 523.623 375.434ZM938.082 398.064L976.999 420.857L973.491 422.981C971.614 424.125 968.433 426.086 966.393 427.229L962.721 429.354L923.968 406.56C902.674 394.061 885.133 383.522 885.051 383.195C884.806 382.542 897.86 374.781 898.758 375.026C899.002 375.107 916.707 385.483 938.082 398.064ZM539.532 388.996L539.287 393.162L504.205 413.831C484.951 425.187 468.715 434.664 468.144 434.909C467.246 435.317 454.029 428.128 454.029 427.148C454.029 426.903 471.652 416.282 493.272 403.619L532.434 380.663L536.105 382.705L539.777 384.747L539.532 388.996ZM922.744 407.867C942.08 419.141 958.561 428.782 959.376 429.272C961.09 430.252 960.519 430.661 950.81 436.216L947.057 438.422L915.564 419.877L883.99 401.413V393.407V385.319L885.867 386.3C886.846 386.872 903.49 396.512 922.744 407.867ZM539.695 403.292V411.38L511.548 427.883C496.046 436.951 483.156 444.222 482.748 444.059C478.668 442.343 469.531 436.543 470.102 436.053C470.755 435.317 538.961 395.205 539.45 395.205C539.614 395.205 539.695 398.799 539.695 403.292ZM915.238 421.674C931.229 431.151 944.365 439.075 944.365 439.402C944.365 439.974 931.719 447.49 930.74 447.49C930.495 447.49 919.807 441.363 907.079 433.928L883.99 420.367V412.197C883.99 405.907 884.235 404.109 885.051 404.354C885.622 404.518 899.247 412.279 915.238 421.674ZM539.124 430.416C538.716 430.824 529.66 436.298 518.972 442.588L499.555 454.026L492.293 449.778C487.643 447 485.358 445.284 486.011 444.876C486.582 444.549 498.82 437.36 513.18 428.945L539.287 413.504L539.532 421.674C539.614 426.167 539.45 430.089 539.124 430.416ZM907.324 436.053C918.991 442.915 928.537 448.552 928.7 448.715C929.026 449.042 915.891 456.477 914.993 456.477C914.096 456.477 887.091 440.873 885.051 439.157C884.317 438.585 883.99 435.726 883.99 430.579C883.99 424.288 884.235 422.899 885.133 423.226C885.785 423.471 895.739 429.272 907.324 436.053ZM539.695 441.118V449.532L528.518 456.068C522.317 459.663 516.851 462.685 516.361 462.849C515.301 463.094 502.165 455.823 502.165 454.924C502.165 454.434 537.982 432.948 539.124 432.866C539.45 432.785 539.695 436.543 539.695 441.118ZM901.287 450.921C907.487 454.516 912.546 457.702 912.546 458.029C912.464 458.682 900.308 465.463 899.002 465.463C898.431 465.463 894.841 463.584 891.007 461.297L883.99 457.048V448.961V440.791L887.009 442.588C888.722 443.569 895.086 447.327 901.287 450.921ZM539.695 460.071V468.568L536.024 470.692L532.434 472.816L525.01 468.649L517.585 464.401L528.436 458.029C534.392 454.516 539.369 451.575 539.532 451.575C539.614 451.575 539.695 455.415 539.695 460.071ZM891.007 463.176C894.352 465.136 897.044 466.852 897.044 467.097C897.044 467.424 887.009 473.224 884.643 474.286C884.235 474.45 883.99 471.264 883.99 467.179C883.99 463.094 884.235 459.744 884.562 459.744C884.806 459.744 887.743 461.297 891.007 463.176ZM887.254 479.106C900.063 486.459 902.347 488.011 901.287 488.828C894.841 493.158 781.028 558.678 780.212 558.433C778.662 558.106 749.373 541.114 749.373 540.624C749.373 539.97 869.631 470.447 870.855 470.447C871.426 470.365 878.851 474.286 887.254 479.106ZM572.575 480.414C575.593 482.129 578.041 483.763 578.041 483.845C578.041 484.008 575.185 485.805 571.596 487.848C563.11 492.913 562.539 492.586 562.539 483.518C562.539 479.597 562.784 476.084 563.029 475.839C563.6 475.267 564.824 475.839 572.575 480.414ZM587.505 488.91C591.258 491.116 594.358 492.995 594.358 493.24C594.358 493.893 582.528 500.592 581.386 500.592C579.428 500.592 567.353 492.995 568.087 492.259C569.148 491.197 579.101 485.234 579.999 485.152C580.325 485.07 583.752 486.786 587.505 488.91ZM936.614 530.82C953.421 552.633 967.127 570.769 966.964 571.096C966.638 572.24 846.134 642.008 845.237 641.6C844.339 641.273 782.742 561.946 782.578 560.802C782.497 560.476 809.747 544.3 843.197 524.774C888.967 498.142 904.224 489.563 904.958 490.299C905.529 490.789 919.725 509.007 936.614 530.82ZM591.747 509.089C602.598 515.379 611.491 520.69 611.491 520.935C611.41 521.588 599.498 528.369 598.356 528.369C597.866 528.369 589.626 523.876 579.999 518.32L562.621 508.354L562.539 500.347V492.341L567.271 495.037C569.882 496.508 580.896 502.88 591.747 509.089ZM604.067 498.713C607.657 500.838 610.431 502.798 610.186 503.125C609.941 503.615 600.396 509.334 598.274 510.233C597.54 510.559 583.752 502.88 583.752 502.226C583.752 501.573 595.419 494.955 596.561 494.874C597.051 494.874 600.477 496.589 604.067 498.713ZM620.058 508.027L627.156 512.193L620.874 515.788C617.366 517.749 614.184 519.383 613.776 519.383C612.878 519.383 603.904 514.481 601.375 512.602C599.906 511.54 600.232 511.213 606.27 507.7C609.778 505.576 612.797 503.86 612.878 503.86C612.878 503.86 616.142 505.739 620.058 508.027ZM583.181 522.242C590.197 526.245 595.99 529.758 595.99 530.003C595.908 530.248 589.871 533.843 582.447 538.091L568.985 545.77L565.966 544.055L562.947 542.339L562.703 526.327L562.539 510.314L566.456 512.602C568.577 513.827 576.164 518.157 583.181 522.242ZM635.641 517.095C638.986 518.974 641.678 520.69 641.678 520.935C641.678 521.262 614.918 536.866 582.283 555.656C549.649 574.527 495.965 605.572 463.004 624.607C430.043 643.724 395.858 663.413 387.128 668.478C378.398 673.543 346.253 692.088 315.74 709.734C285.227 727.381 259.69 742.004 258.956 742.168C257.324 742.658 244.923 735.795 245.739 734.978C246.147 734.57 312.64 696.009 393.655 649.198C552.341 557.535 567.761 548.63 603.741 527.634C616.794 520.036 627.89 513.827 628.543 513.746C629.114 513.664 632.378 515.216 635.641 517.095ZM677.413 541.44L706.132 558.106V565.377V572.567L704.337 571.586C702.297 570.524 644.371 536.62 636.538 531.882L631.725 529.023L637.762 525.51C643.636 522.16 643.8 522.16 646.247 523.386C647.634 524.121 661.667 532.209 677.413 541.44ZM670.642 553.858C696.423 569.054 705.805 574.936 705.969 576.161C706.132 577.387 704.908 578.53 700.747 580.818C697.81 582.534 694.954 583.922 694.465 583.922C693.404 583.922 616.387 538.745 616.387 538.173C616.387 537.928 619.487 536.049 623.158 534.006L629.848 530.166L632.704 531.719C634.254 532.536 651.387 542.503 670.642 553.858ZM653.672 562.436C674.884 574.936 692.262 585.311 692.262 585.556C692.262 585.801 689.08 587.762 685.246 589.886L678.311 593.808L639.802 571.178C618.589 558.76 600.967 548.385 600.64 548.058C599.906 547.404 611.981 539.888 613.857 539.888C614.51 539.807 632.459 550.019 653.672 562.436ZM767.159 553.45L779.641 560.721L811.868 602.304L844.013 643.969V691.516C844.013 717.741 843.768 739.145 843.524 739.145C843.279 739.145 821.577 726.727 795.387 711.613L747.741 684.082V613.088V542.176L751.249 544.218C753.126 545.362 760.305 549.528 767.159 553.45ZM636.049 570.933C656.853 583.187 674.395 593.563 674.966 594.134C675.863 594.951 674.884 595.85 669.499 598.954C665.91 600.997 662.728 602.713 662.401 602.713C661.422 602.713 584.568 557.453 584.568 556.799C584.568 556.309 596.724 548.875 597.703 548.793C598.03 548.793 615.244 558.76 636.049 570.933ZM621.037 580.736C642.494 593.317 660.117 603.775 660.28 603.938C660.443 604.02 657.506 605.899 653.835 608.023C648.45 611.127 646.737 611.781 645.268 611.209C642.739 610.229 568.332 566.439 568.332 565.949C568.25 565.622 580.733 558.188 581.875 557.861C581.957 557.78 599.58 568.073 621.037 580.736ZM606.025 590.376C626.993 602.713 644.126 613.088 644.126 613.333C644.126 613.66 642.902 614.477 641.515 615.212C640.047 615.947 637.028 617.663 634.744 618.97L630.664 621.421L591.911 598.628C570.616 586.128 553.075 575.589 552.994 575.181C552.667 574.201 564.334 567.665 566.211 567.828C567.19 567.91 585.057 578.122 606.025 590.376ZM968.025 621.012V668.723L907.895 703.689C874.853 722.969 847.277 738.818 846.705 738.982C845.808 739.227 845.645 730.567 845.808 691.761L846.053 644.214L906.835 608.758C940.285 589.314 967.698 573.384 967.861 573.302C967.943 573.302 968.025 594.788 968.025 621.012ZM587.994 598.301C608.309 610.229 625.851 620.522 626.911 621.258C628.788 622.483 628.706 622.483 621.771 626.486L614.673 630.571L575.512 607.533C554.054 594.87 536.595 584.331 536.84 584.086C537.737 583.105 549.159 576.733 550.057 576.651C550.546 576.57 567.598 586.373 587.994 598.301ZM705.969 595.768C705.805 595.932 575.022 671.582 415.276 763.899C197.195 889.874 123.848 932.601 120.993 935.379C118.953 937.421 116.016 941.424 114.548 944.284C112.182 948.94 111.855 950.248 111.774 956.211V962.91L106.47 959.969C103.533 958.335 100.188 956.375 98.9645 955.476C93.0903 951.391 96.9248 936.686 106.226 927.781C107.939 926.147 134.699 910.216 165.621 892.325C218.326 861.934 269.399 832.36 277.802 827.54C279.842 826.315 376.93 770.189 493.599 702.627L705.724 579.919L705.969 587.762C706.05 592.092 706.05 595.687 705.969 595.768ZM573.88 608.431C594.929 620.767 612.226 631.143 612.307 631.47C612.307 632.205 599.335 639.639 598.438 639.312C595.99 638.495 521.012 594.053 521.175 593.563C521.42 592.582 533.495 585.638 534.555 585.801C535.045 585.883 552.749 596.095 573.88 608.431ZM557.073 617.091C578.286 629.509 595.908 639.966 596.235 640.293C596.887 640.865 584.649 648.462 583.018 648.462C581.794 648.462 505.429 603.448 505.429 602.713C505.429 602.141 517.259 594.706 518.319 594.543C518.483 594.543 535.942 604.673 557.073 617.091ZM705.969 614.313L705.724 629.999L414.949 798.048C254.958 890.528 123.114 966.423 121.972 966.668C118.79 967.404 115.69 965.851 114.14 962.91C111.039 956.783 115.037 943.794 122.217 936.849C124.583 934.562 216.286 881.051 415.276 766.105C574.614 674.033 705.153 598.628 705.561 598.628C705.887 598.628 706.05 605.654 705.969 614.313ZM545.651 628.937L581.304 649.933L574.614 653.854C570.861 655.978 567.516 657.694 567.027 657.694C565.884 657.612 489.601 612.679 489.356 611.862C489.275 611.536 492.212 609.575 495.883 607.533L502.573 603.693L506.245 605.899C508.284 607.042 525.989 617.418 545.651 628.937ZM526.56 636.208C547.691 648.544 564.905 658.838 564.987 659.083C564.987 659.328 561.887 661.207 558.134 663.413L551.28 667.252L512.201 644.296C490.743 631.715 473.121 621.258 472.957 621.094C472.386 620.604 485.522 613.496 486.827 613.578C487.643 613.66 505.51 623.872 526.56 636.208ZM510.487 645.276L549.567 668.314L542.632 672.318C538.798 674.523 535.371 676.239 535.045 675.994C530.721 673.706 459.006 631.633 458.272 630.898C457.374 630.081 458.435 629.182 463.575 626.159C467.083 624.117 470.265 622.483 470.673 622.401C471.081 622.32 488.948 632.695 510.487 645.276ZM494.251 654.263C514.974 666.435 532.271 676.647 532.597 676.974C533.168 677.546 522.236 684.572 519.543 685.389C518.238 685.797 440.975 639.966 441.628 639.312C443.505 637.433 454.6 631.47 455.498 631.796C456.151 631.96 473.528 642.09 494.251 654.263ZM706.132 646.011V659.9L701.889 657.449C699.523 656.06 694.139 653.037 690.059 650.668C685.898 648.381 682.553 646.175 682.716 645.766C682.88 645.113 704.418 632.286 705.561 632.205C705.887 632.123 706.132 638.414 706.132 646.011ZM478.179 663.739C499.473 676.239 516.851 686.614 516.851 686.859C516.851 687.513 502.981 695.192 502.247 694.866C500.452 694.212 424.74 649.606 424.658 649.279C424.658 648.544 437.141 641.273 438.446 641.191C439.099 641.11 456.966 651.322 478.179 663.739ZM461.535 673.135C505.918 699.196 502.41 695.846 491.722 701.728L486.256 704.669L447.747 682.121C426.535 669.703 409.075 659.164 408.993 658.674C408.83 658.102 420.334 650.586 422.047 650.178C422.211 650.096 439.996 660.472 461.535 673.135ZM443.505 681.631C463.901 693.559 481.442 703.934 482.503 704.587L484.461 705.895L481.279 707.774C479.566 708.836 476.221 710.715 473.936 711.94L469.775 714.064L430.94 691.271C409.565 678.772 392.023 668.233 392.023 667.988C392.023 667.497 405.159 659.9 405.975 659.9C406.301 659.9 423.19 669.703 443.505 681.631ZM467.491 715.535C467.246 715.862 464.064 717.822 460.475 719.865L453.784 723.623L445.952 719.129C416.255 702.055 376.277 678.118 376.277 677.464C376.359 677.056 379.296 675.014 382.967 672.889L389.657 669.131L428.737 692.006C450.195 704.587 467.654 715.208 467.491 715.535ZM412.665 701.646C433.388 713.819 450.603 724.031 450.929 724.358C451.908 725.257 438.446 732.773 436.814 732.364C434.938 731.874 359.389 687.431 359.389 686.859C359.389 685.961 372.932 678.772 373.911 679.098C374.564 679.343 392.023 689.474 412.665 701.646ZM394.389 709.898C414.378 721.662 431.838 731.874 433.143 732.691L435.428 734.08L432.327 736.04C430.532 737.184 427.269 739.063 425.066 740.37L420.987 742.576L381.58 719.538L342.174 696.5L348.946 692.496C352.699 690.291 356.207 688.493 356.86 688.493C357.512 688.493 374.401 698.134 394.389 709.898ZM379.133 720.028C400.345 732.446 418.05 742.903 418.376 743.23C419.029 743.802 406.22 751.644 404.669 751.644C404.261 751.644 386.965 741.759 366.324 729.587C345.682 717.495 328.141 707.202 327.244 706.712C325.938 705.976 326.754 705.323 332.955 701.728C336.953 699.441 340.298 697.48 340.379 697.48C340.461 697.48 357.92 707.61 379.133 720.028ZM362 729.015C382.315 740.942 399.856 751.236 400.916 751.971C402.793 753.197 402.711 753.278 395.205 757.527L387.699 761.856L381.907 758.425C378.725 756.546 361.184 746.171 342.908 735.469C324.551 724.685 309.621 715.698 309.621 715.453C309.703 714.881 322.838 707.365 324.062 707.365C324.551 707.283 341.603 717.087 362 729.015ZM218.652 722.969C231.38 729.995 233.501 731.384 232.277 732.201C231.543 732.691 217.183 740.942 200.458 750.501L170.108 767.82L156.238 759.814C145.632 753.687 142.695 751.563 143.429 750.827C144.735 749.602 202.172 714.718 202.987 714.636C203.314 714.636 210.412 718.394 218.652 722.969ZM346.824 739.717C368.119 752.216 385.497 762.592 385.497 762.837C385.497 763.082 382.396 764.961 378.643 767.085L371.872 771.006L332.792 748.05C311.253 735.387 293.63 725.012 293.467 724.848C293.059 724.521 305.868 717.25 307.092 717.169C307.745 717.087 325.612 727.299 346.824 739.717ZM328.875 747.723C348.538 759.242 365.916 769.454 367.384 770.435L370.158 772.068L363.305 775.99C359.634 778.196 356.289 779.993 356.044 779.993C355.391 779.993 279.271 735.224 278.373 734.325C277.557 733.508 290.04 726.074 291.754 726.4C292.406 726.564 309.132 736.122 328.875 747.723ZM251.205 740.942C259.608 745.599 266.38 749.602 266.38 749.847C266.38 750.746 203.64 786.692 202.498 786.365C201.356 786.12 171.74 769.046 171.984 768.801C172.556 768.229 235.051 732.691 235.54 732.609C235.867 732.609 242.883 736.367 251.205 740.942ZM314.843 758.017C335.484 770.189 352.78 780.401 353.107 780.81C353.759 781.382 344.703 787.264 341.113 788.653C339.808 789.143 262.138 744.128 262.464 743.066C262.954 741.841 274.947 735.142 276.089 735.55C276.66 735.714 294.12 745.844 314.843 758.017ZM304.481 770.353C323.001 781.218 337.932 790.368 337.524 790.695C337.197 791.022 334.097 792.983 330.589 794.943L324.225 798.62L296.894 782.526L269.644 766.513V758.507C269.644 754.177 269.888 750.582 270.215 750.582C270.541 750.582 285.879 759.487 304.481 770.353ZM268.012 786.284L267.93 820.433L236.193 838.569L204.374 856.706V822.557V788.408L235.622 770.353C252.755 760.386 267.033 752.216 267.441 752.216C267.767 752.216 268.012 767.575 268.012 786.284ZM172.392 771.415L201.927 788.571V822.72C201.927 841.51 201.682 856.706 201.356 856.542C200.948 856.297 187.404 848.536 171.169 839.223L141.553 822.312V792.411C141.553 775.908 141.308 760.468 140.982 758.017C140.574 754.422 140.655 753.769 141.716 753.932C142.369 754.095 156.238 761.938 172.392 771.415ZM299.26 785.875C311.661 793.228 321.859 799.355 321.859 799.6C321.859 800.008 320.88 800.58 312.477 805.4L308.316 807.688L289.224 796.496L270.052 785.303L269.807 776.807L269.562 768.392L273.07 770.516C275.028 771.66 286.777 778.604 299.26 785.875ZM287.674 797.639C297.301 803.276 305.379 808.096 305.705 808.423C306.031 808.75 303.176 810.792 299.423 812.916L292.569 816.838L281.147 810.221L269.644 803.521V795.434C269.644 791.022 269.807 787.346 269.97 787.346C270.133 787.346 278.129 792.002 287.674 797.639ZM139.758 803.848L139.513 811.446L134.618 814.387C131.925 816.021 122.38 821.576 113.405 826.723C104.431 831.87 91.0506 839.631 83.6262 843.879C76.2019 848.209 68.8591 852.457 67.3089 853.356C52.8681 861.526 27.9842 876.149 25.8629 877.783C19.336 882.685 14.1961 892.897 14.1961 901.067C14.1961 903.681 13.8697 905.805 13.625 905.805C11.5037 905.641 3.83457 900.004 2.61077 897.635C-0.571106 891.426 3.42664 878.763 10.7694 871.819C13.4618 869.287 34.1032 856.951 76.6914 832.278C110.795 812.59 139.024 796.414 139.35 796.414C139.676 796.332 139.839 799.763 139.758 803.848ZM280.821 812.018C286.287 815.204 290.775 817.9 290.611 817.982C290.53 818.063 287.348 819.942 283.595 822.066L276.742 825.988L273.233 824.027L269.644 822.066V814.142C269.644 809.73 269.888 806.136 270.215 806.136C270.541 806.136 275.273 808.75 280.821 812.018ZM136.086 820.514C137.963 821.74 139.676 822.965 139.921 823.21C140.166 823.537 141.961 824.681 144 825.824C164.968 837.752 208.291 862.914 209.106 863.65C209.841 864.385 208.617 865.447 203.477 868.47C199.887 870.594 196.542 872.31 196.053 872.31C194.91 872.31 117.893 827.132 117.893 826.478C117.893 825.988 131.028 818.39 132.007 818.39C132.333 818.39 134.128 819.37 136.086 820.514ZM274.376 827.05C274.865 827.458 261.893 834.729 260.669 834.729C260.016 834.648 258.058 833.831 256.345 832.769L253.245 830.808L260.343 826.723L267.522 822.638L270.786 824.681C272.662 825.824 274.294 826.887 274.376 827.05ZM154.851 850.66C176.145 863.16 193.523 873.698 193.36 874.025C192.789 874.924 179.817 882.195 179.164 881.95C178.838 881.786 161.052 871.411 139.676 858.83L100.841 836.036L107.939 831.788C111.855 829.419 115.282 827.622 115.527 827.703C115.771 827.703 133.476 838.079 154.851 850.66ZM255.284 833.994C256.916 834.974 258.221 835.955 258.221 836.282C258.221 836.608 255.203 838.569 251.531 840.693L244.841 844.451L241.904 842.736C240.354 841.755 238.722 840.693 238.314 840.366C237.662 839.794 249.655 832.36 251.45 832.278C251.939 832.278 253.734 833.014 255.284 833.994ZM138.452 860.055C159.257 872.31 176.553 882.522 176.88 882.93C177.532 883.502 163.907 891.671 162.847 891.345C161.46 890.936 85.6659 846.085 85.5027 845.595C85.1764 844.615 98.5566 837.099 99.6988 837.507C100.188 837.752 117.648 847.882 138.452 860.055ZM239.457 843.062C241.251 844.124 242.72 845.186 242.72 845.432C242.72 845.677 239.538 847.637 235.704 849.843L228.687 853.765L225.097 851.804C223.139 850.742 221.508 849.68 221.508 849.435C221.508 848.863 234.643 841.265 235.622 841.265C235.948 841.265 237.743 842.082 239.457 843.062ZM122.706 869.859C143.837 882.195 161.052 892.488 161.133 892.734C161.133 893.06 152.485 898.125 147.998 900.331C147.019 900.903 136.739 895.184 107.368 878.028L68.1248 854.908L74.8149 850.987C78.5679 848.781 82.2393 847.065 82.9735 847.229C83.7894 847.311 101.657 857.523 122.706 869.859ZM222.813 852.376C224.771 853.519 226.403 854.663 226.403 854.827C226.403 854.99 223.221 856.951 219.386 859.238L212.37 863.405L208.372 861.035L204.374 858.748L211.554 854.581C215.47 852.294 218.734 850.333 218.897 850.333C219.06 850.252 220.773 851.232 222.813 852.376ZM105.084 878.6C126.214 891.018 143.919 901.393 144.245 901.72C144.898 902.292 132.17 910.135 130.539 910.135C129.886 910.135 53.684 865.856 51.9706 864.548C51.7259 864.385 65.6772 856.052 66.3299 855.97C66.4115 855.97 83.871 866.101 105.084 878.6ZM87.7871 887.505C108.184 899.433 125.725 909.808 126.786 910.462C128.744 911.687 128.662 911.769 121.89 915.69C118.137 917.896 114.466 919.53 113.732 919.366C112.671 919.121 59.7214 888.404 40.1406 876.639L35.4086 873.78L42.1803 869.777C45.9332 867.653 49.3599 865.856 49.8494 865.856C50.3389 865.774 67.3905 875.577 87.7871 887.505ZM75.386 899.269C110.631 920.02 112.182 921 110.387 922.062C109.326 922.716 106.389 925.412 103.778 928.026C101.167 930.64 98.8829 932.765 98.6382 932.765C98.3118 932.765 80.5259 922.389 59.0687 909.808L19.9071 886.851L22.6811 883.42C24.2312 881.623 27.2499 878.927 29.3712 877.456C33.2873 874.842 33.2873 874.842 35.8981 876.231C37.3666 876.966 55.1525 887.342 75.386 899.269ZM63.3928 914.301L98.0671 934.725L96.0274 940.362C94.8036 943.957 94.1509 947.388 94.3957 949.594C94.4772 951.473 94.4772 952.944 94.2325 952.78C82.4024 946.163 16.97 907.766 16.4805 907.112C15.4199 905.641 16.3173 895.021 17.7859 891.671L19.1728 888.485L23.9865 891.263C26.5972 892.734 44.3015 903.109 63.3928 914.301ZM217.918 919.775C217.673 922.553 217.428 932.438 217.428 941.751V958.744L209.106 963.482C204.456 966.015 199.887 968.711 198.826 969.364L197.032 970.59L197.195 948.287L197.439 926.066L206.822 920.51C211.962 917.487 216.694 914.955 217.347 914.873C218.244 914.791 218.407 915.772 217.918 919.775ZM195.4 949.104C195.4 960.786 195.237 970.345 194.992 970.345C194.258 970.345 160.073 950.656 158.931 949.594C158.115 948.859 162.031 946.244 175.656 938.32C185.365 932.683 193.85 927.945 194.421 927.945C195.155 927.863 195.4 932.601 195.4 949.104Z" fill="#413D42"/>
<path d="M1268.02 186.39C1251.78 192.354 1239.55 219.64 1248.44 230.179C1251.7 234.1 1260.84 239.166 1264.59 239.166C1274.71 239.166 1287.36 225.522 1290.78 210.899C1293.23 200.442 1291.11 195.05 1282.54 189.739C1275.77 185.491 1272.51 184.756 1268.02 186.39ZM1277.89 188.841L1279.93 189.903L1276.75 190.965C1263.7 195.295 1252.84 212.124 1253.74 226.911C1253.99 231.976 1253.9 232.385 1252.68 231.731C1239.95 224.95 1251.46 194.069 1268.84 188.105C1272.18 186.962 1274.71 187.207 1277.89 188.841ZM1284.17 192.926C1293.39 196.847 1290.78 216.454 1279.28 229.199C1275.28 233.692 1268.51 237.532 1264.84 237.532C1255.13 237.532 1252.19 224.869 1258.64 211.225C1262.96 202.157 1270.47 194.559 1277.08 192.599C1280.26 191.618 1281.07 191.618 1284.17 192.926Z" fill="#413D42"/>
<path d="M1043.49 151.995C1039.09 156.407 1038.03 162.453 1040.23 170.949C1043.09 181.651 1051.16 192.353 1059.57 196.275C1070.34 201.34 1077.6 196.193 1077.52 183.612C1077.35 167.518 1062.75 149.299 1049.94 149.299C1046.76 149.299 1045.78 149.708 1043.49 151.995ZM1058.91 153.874C1062.01 155.835 1062.91 156.979 1063.97 160.328C1065.93 166.292 1068.62 171.276 1072.38 176.096C1075.31 179.772 1075.72 180.834 1075.72 184.429C1075.72 191.945 1072.13 196.683 1066.42 196.683C1057.28 196.683 1045.37 183.612 1041.78 169.642C1039.9 162.453 1040.8 157.142 1044.39 153.548C1047 150.933 1047.49 150.77 1051.16 151.097C1053.61 151.342 1056.55 152.404 1058.91 153.874Z" fill="#413D42"/>
<path d="M1110.8 187.125C1102.72 189.984 1101.34 202.729 1107.7 216.29C1111.37 223.97 1120.35 232.793 1126.22 234.59C1136.01 237.531 1141.8 232.384 1141.8 220.865C1141.8 202.729 1123.45 182.631 1110.8 187.125ZM1118.96 189.004C1123.61 190.311 1127.04 193.497 1128.42 197.827C1130.46 203.954 1132.58 207.957 1136.58 213.186C1139.76 217.271 1140.17 218.251 1140.17 222.009C1140.17 229.443 1136.74 233.446 1130.38 233.446C1118.55 233.446 1103.38 211.879 1105.42 197.99C1106.15 193.089 1108.6 189.576 1111.78 188.595C1114.47 187.86 1115.21 187.86 1118.96 189.004Z" fill="#413D42"/>
<path d="M1171.91 334.178C1163.02 340.141 1160.98 354.356 1168.97 354.356C1177.7 354.356 1185.53 338.099 1179.01 333.524C1176.72 331.808 1175.17 331.972 1171.91 334.178ZM1177.78 334.749C1179.01 335.403 1179.33 336.465 1179.33 339.569C1179.33 348.556 1168.4 357.134 1165.95 350.108C1164.16 344.961 1170.28 335.158 1175.91 334.014C1176.07 333.932 1176.89 334.341 1177.78 334.749Z" fill="#413D42"/>
<path d="M1100.19 376.251C1094.97 378.62 1090.4 385.565 1090.4 391.12C1090.4 400.678 1101.42 399.29 1105.99 389.078C1109.66 381.071 1106.23 373.555 1100.19 376.251ZM1104.6 378.539C1105.33 379.192 1105.91 381.071 1105.91 382.624C1105.91 390.221 1096.85 398.881 1093.02 395.041C1090.08 392.1 1094.4 381.153 1099.54 378.62C1102.89 376.905 1103.05 376.905 1104.6 378.539Z" fill="#413D42"/>
<path d="M1024.56 419.713C1020.56 422.164 1017.55 427.229 1017.14 432.458C1016.73 437.85 1018.2 440.137 1022.2 440.137C1030.03 440.137 1037.62 424.86 1032.23 419.877C1029.87 417.671 1027.91 417.589 1024.56 419.713ZM1031.17 421.021C1035.17 424.942 1028.4 438.504 1022.36 438.504C1019.75 438.504 1018.61 436.951 1018.61 433.275C1018.61 429.272 1021.87 423.471 1025.38 421.266C1028.56 419.387 1029.54 419.305 1031.17 421.021Z" fill="#413D42"/>
</svg>
