<?xml version="1.0" encoding="utf-8"?>
<!-- https://sprite-your-svgs.vercel.app/ -->
<svg xmlns="http://www.w3.org/2000/svg">
  <defs>
    <symbol
      id="arrow"
      viewBox="0 0 24 24"
      fill="none"
      stroke="currentcolor"
      stroke-width="2"
      stroke-linecap="round"
      stroke-linejoin="round"
    >
      <path d="M5 12H19M19 12L12 5M19 12L12 19" />
    </symbol>
    <symbol id="arrow-down" viewBox="0 0 24 24" fill="none" stroke="currentcolor">
      <path d="M12 4V20M12 20L18 14M12 20L6 14" stroke-width="2" stroke-linecap="round" stroke-linejoin="round" />
    </symbol>
    <symbol id="across" viewBox="0 0 57 57" fill="currentcolor" stroke="currentcolor">
      <path
        fill-rule="evenodd"
        clip-rule="evenodd"
        d="M50.3639 0.991211L56.0039 6.53226L37.1558 25.0497C36.1624 22.5077 34.1032 20.4847 31.5158 19.5086L50.3639 0.991211ZM24.492 19.5086L5.64391 0.991211L0.00390625 6.53226L18.852 25.0497C19.8455 22.5077 21.9046 20.4847 24.492 19.5086ZM18.852 31.9503L0.00390625 50.4677L5.64391 56.0088L24.492 37.4914C21.9046 36.5153 19.8455 34.4923 18.852 31.9503ZM31.5158 37.4914L50.3639 56.0088L56.0039 50.4677L37.1558 31.9503C36.1624 34.4923 34.1032 36.5153 31.5158 37.4914Z"
      />
    </symbol>
    <symbol id="cozy" viewBox="0 0 63 55" fill="currentcolor">
      <path
        d="M1.7923 29.2309C1.24552 29.2309 0.624191 29.3055 0.164405 29.38L0.0898438 29.3055C0.0898438 21.8619 4.89897 13.4987 10.7022 9.62161C10.1554 9.07484 9.45955 8.61505 8.92521 8.30438V8.22982C13.8089 3.81836 24.2721 1.64369 31.3181 2.79937C33.8034 1.5567 36.8231 0.860809 39.7682 0.935369L39.8428 1.00993C39.6067 1.46972 39.2214 2.40172 39.0723 3.25916C42.092 3.1846 49.2995 5.03617 51.6232 6.5895V6.73862C51.0019 7.12385 50.3806 7.59606 49.8462 8.13041C56.3578 11.933 60.3095 16.6551 62.248 23.3158L62.1735 23.3904C61.5522 23.4649 61.0054 23.6265 60.5456 23.7756C60.6947 24.7821 60.8563 26.9568 60.8563 27.9634C60.8563 42.3037 47.5224 54.0842 31.3305 54.0842C15.5859 54.1091 2.57518 43.0245 1.7923 29.2309ZM51.8593 40.5516C51.8593 38.9237 50.4676 37.8426 48.3675 37.8426C47.4355 37.8426 45.9691 37.9917 45.3478 37.9917C42.4027 37.9917 40.0789 35.817 40.0789 33.0335C40.0789 30.2499 42.4027 28.0752 45.3478 28.0752C50.1569 28.0752 54.4938 31.9523 54.9536 36.0531C55.3388 34.7359 55.5749 33.2696 55.5749 31.9399C55.5749 24.1111 51.4617 18.7676 43.0985 16.5184L43.024 16.4439C43.2601 15.8971 43.5708 15.5119 43.956 15.0521L43.869 14.9775C41.9304 14.9029 39.6812 15.2136 38.0533 15.8349L37.9788 15.7604C38.0533 15.0645 38.2894 14.294 38.6747 13.5857L38.6001 13.5112C35.9656 13.8218 33.2566 14.6793 31.3181 15.7604C29.3795 14.6793 26.6705 13.8218 24.036 13.5112L23.9615 13.5857C24.3467 14.2816 24.5828 15.0521 24.6574 15.7604L24.5828 15.8349C22.9549 15.2136 20.7057 14.9029 18.7671 14.9775L18.6926 15.0521C19.0778 15.5119 19.3885 15.9095 19.6246 16.4439L19.55 16.5184C11.4851 18.7676 7.07363 24.1111 7.07363 31.9399C7.07363 33.2571 7.30974 34.7359 7.69497 36.0531C8.15475 31.9399 12.5041 28.0752 17.3008 28.0752C20.2459 28.0752 22.5697 30.2499 22.5697 33.0335C22.5697 35.8295 20.2459 37.9917 17.3008 37.9917C16.6794 37.9917 15.2131 37.8426 14.2811 37.8426C12.1934 37.8426 10.7892 38.9237 10.7892 40.5516C10.7892 46.2803 21.4016 51.7853 31.3305 51.7853C41.2594 51.7853 51.8593 46.2803 51.8593 40.5516ZM19.1524 32.176C19.1524 31.244 18.4565 30.5481 17.5245 30.5481C16.667 30.5481 15.9711 31.244 15.9711 32.176C15.9711 33.0335 16.667 33.7293 17.5245 33.7293C18.4565 33.7293 19.1524 33.0335 19.1524 32.176ZM27.2173 37.9171C27.2173 37.2212 27.764 36.6745 28.5345 36.6745C29.3919 36.6745 30.0008 37.2958 31.3305 37.2958C32.6601 37.2958 33.2691 36.6745 34.1265 36.6745C34.8969 36.6745 35.4437 37.2212 35.4437 37.9171C35.4437 39.1598 33.6667 40.1664 31.3305 40.1664C28.9943 40.1664 27.2173 39.1598 27.2173 37.9171ZM27.9877 31.7162C27.9877 30.2499 29.2304 29.3924 31.3181 29.3924C33.4057 29.3924 34.6484 30.2499 34.6484 31.7162C34.6484 33.108 33.0951 34.3507 31.3181 34.3507C29.5411 34.3507 27.9877 33.1826 27.9877 31.7162ZM46.665 32.176C46.665 31.244 45.9691 30.5481 45.1117 30.5481C44.1797 30.5481 43.4838 31.244 43.4838 32.176C43.4838 33.0335 44.1797 33.7293 45.1117 33.7293C45.9691 33.7293 46.665 33.0335 46.665 32.176Z"
      />
    </symbol>
    <symbol id="boba" viewBox="0 0 43 69" fill="currentcolor" stroke="currentcolor">
      <path
        d="M9.86457 48.0479C8.60267 48.0479 7.53707 47.1503 7.32475 45.9097L0.141928 3.85657C0.0257526 3.17843 0.181987 2.50028 0.582591 1.9418C0.983194 1.38333 1.57609 1.01234 2.25311 0.896657C3.65522 0.661299 4.98923 1.60273 5.22959 2.99892L12.4124 45.0521C12.5286 45.7302 12.3724 46.4084 11.9717 46.9668C11.5711 47.5253 10.9783 47.8963 10.3012 48.012C10.161 48.0359 10.0128 48.0479 9.86457 48.0479Z"
      />
      <path
        d="M9.86457 48.0479C8.60267 48.0479 7.53707 47.1503 7.32475 45.9097L0.141928 3.85657C0.0257526 3.17843 0.181987 2.50028 0.582591 1.9418C0.983194 1.38333 1.57609 1.01234 2.25311 0.896657C3.65522 0.661299 4.98923 1.60273 5.22959 2.99892L12.4124 45.0521C12.5286 45.7302 12.3724 46.4084 11.9717 46.9668C11.5711 47.5253 10.9783 47.8963 10.3012 48.012C10.161 48.0359 10.0128 48.0479 9.86457 48.0479Z"
      />
      <path
        d="M21.9024 28.6528C17.7963 28.6528 13.9785 29.8775 10.7857 31.9797L11.655 37.0698C14.3991 34.6884 17.9845 33.2403 21.9024 33.2403C30.5194 33.2403 37.53 40.2212 37.53 48.8018C37.53 57.3824 30.5194 64.3633 21.9024 64.3633C13.2855 64.3633 6.27491 57.3824 6.27491 48.8018C6.27491 47.6569 6.4031 46.544 6.63946 45.4709L5.25337 37.369C2.99397 40.6202 1.66797 44.5614 1.66797 48.8058C1.66797 59.9155 10.7456 68.9548 21.9024 68.9548C33.0593 68.9548 42.1369 59.9155 42.1369 48.8058C42.1369 37.6961 33.0633 28.6528 21.9024 28.6528Z"
      />
      <path
        d="M20.7972 60.5618C22.3194 60.5618 23.5533 59.333 23.5533 57.8173C23.5533 56.3015 22.3194 55.0728 20.7972 55.0728C19.275 55.0728 18.041 56.3015 18.041 57.8173C18.041 59.333 19.275 60.5618 20.7972 60.5618Z"
      />
      <path
        d="M29.4065 57.3665C30.9287 57.3665 32.1627 56.1377 32.1627 54.6219C32.1627 53.1062 30.9287 51.8774 29.4065 51.8774C27.8844 51.8774 26.6504 53.1062 26.6504 54.6219C26.6504 56.1377 27.8844 57.3665 29.4065 57.3665Z"
      />
      <path
        d="M22.6399 51.4825C24.1621 51.4825 25.3961 50.2538 25.3961 48.738C25.3961 47.2223 24.1621 45.9935 22.6399 45.9935C21.1178 45.9935 19.8838 47.2223 19.8838 48.738C19.8838 50.2538 21.1178 51.4825 22.6399 51.4825Z"
      />
      <path
        d="M14.0833 54.2869C15.6055 54.2869 16.8395 53.0581 16.8395 51.5424C16.8395 50.0266 15.6055 48.7979 14.0833 48.7979C12.5611 48.7979 11.3271 50.0266 11.3271 51.5424C11.3271 53.0581 12.5611 54.2869 14.0833 54.2869Z"
      />
      <path
        d="M31.1692 48.6702C32.6914 48.6702 33.9254 47.4414 33.9254 45.9257C33.9254 44.4099 32.6914 43.1812 31.1692 43.1812C29.6471 43.1812 28.4131 44.4099 28.4131 45.9257C28.4131 47.4414 29.6471 48.6702 31.1692 48.6702Z"
      />
      <path
        d="M24.4788 42.4033C26.001 42.4033 27.235 41.1746 27.235 39.6588C27.235 38.1431 26.001 36.9143 24.4788 36.9143C22.9566 36.9143 21.7227 38.1431 21.7227 39.6588C21.7227 41.1746 22.9566 42.4033 24.4788 42.4033Z"
      />
      <path
        d="M15.8421 45.5946C17.3643 45.5946 18.5982 44.3658 18.5982 42.8501C18.5982 41.3343 17.3643 40.1056 15.8421 40.1056C14.3199 40.1056 13.0859 41.3343 13.0859 42.8501C13.0859 44.3658 14.3199 45.5946 15.8421 45.5946Z"
      />
    </symbol>
    <symbol id="arrows" viewBox="0 0 46 47" fill="none">
      <rect x="3" y="3.65405" width="40" height="40" rx="20" fill="#FFEBEB" />
      <path
        d="M16.3333 19.4874H25.4999M25.4999 19.4874L22.1666 22.8207M25.4999 19.4874L22.1666 16.1541M16.3333 27.8207H29.6666M29.6666 27.8207L26.3333 31.1541M29.6666 27.8207L26.3333 24.4874"
        stroke="#EE3535"
        stroke-width="1.66667"
        stroke-linecap="round"
        stroke-linejoin="round"
      />
      <rect x="3" y="3.65405" width="40" height="40" rx="20" stroke="#FFF5F5" stroke-width="6" />
    </symbol>
    <symbol id="chart" viewBox="0 0 56 57" fill="none">
      <rect x="4" y="4.65405" width="48" height="48" rx="24" fill="#FFEBEB" />
      <path
        d="M27 19.6541H23.8C22.1198 19.6541 21.2798 19.6541 20.638 19.981C20.0735 20.2687 19.6146 20.7276 19.327 21.2921C19 21.9338 19 22.7739 19 24.4541V32.8541C19 34.5342 19 35.3743 19.327 36.016C19.6146 36.5805 20.0735 37.0395 20.638 37.3271C21.2798 37.6541 22.1198 37.6541 23.8 37.6541H32.2C33.8802 37.6541 34.7202 37.6541 35.362 37.3271C35.9265 37.0395 36.3854 36.5805 36.673 36.016C37 35.3743 37 34.5342 37 32.8541V29.6541M28 24.6541H32V28.6541M31.5 20.1541V18.6541M35.4393 21.2147L36.5 20.1541M36.5103 25.1541H38.0103M19 30.0012C19.6519 30.1018 20.3199 30.1541 21 30.1541C25.3864 30.1541 29.2653 27.9816 31.6197 24.6541"
        stroke="#FF4A4A"
        stroke-width="2"
        stroke-linecap="round"
        stroke-linejoin="round"
      />
      <rect x="4" y="4.65405" width="48" height="48" rx="24" stroke="#FFF5F5" stroke-width="8" />
    </symbol>
    <symbol id="chat" viewBox="0 0 56 57" fill="none">
      <rect x="4" y="4.65405" width="48" height="48" rx="24" fill="#FFEBEB" />
      <path
        d="M22.0944 27.8828C22.0322 27.4823 22 27.0719 22 26.6541C22 22.2358 25.6052 18.6541 30.0526 18.6541C34.4999 18.6541 38.1052 22.2358 38.1052 26.6541C38.1052 27.6521 37.9213 28.6075 37.5852 29.4886C37.5154 29.6715 37.4804 29.763 37.4646 29.8345C37.4489 29.9052 37.4428 29.955 37.4411 30.0275C37.4394 30.1007 37.4493 30.1812 37.4692 30.3424L37.8717 33.6126C37.9153 33.9666 37.9371 34.1436 37.8782 34.2723C37.8266 34.385 37.735 34.4746 37.6211 34.5236C37.4911 34.5795 37.3146 34.5536 36.9617 34.5019L33.7765 34.035C33.6101 34.0106 33.527 33.9984 33.4512 33.9988C33.3763 33.9992 33.3245 34.0048 33.2511 34.0202C33.177 34.0358 33.0823 34.0712 32.893 34.1422C32.0097 34.473 31.0524 34.6541 30.0526 34.6541C29.6344 34.6541 29.2237 34.6224 28.8227 34.5613M23.6316 38.6541C26.5965 38.6541 29 36.1916 29 33.1541C29 30.1165 26.5965 27.6541 23.6316 27.6541C20.6667 27.6541 18.2632 30.1165 18.2632 33.1541C18.2632 33.7646 18.3603 34.352 18.5395 34.9008C18.6153 35.1328 18.6532 35.2488 18.6657 35.328C18.6786 35.4107 18.6809 35.4572 18.6761 35.5408C18.6714 35.6208 18.6514 35.7114 18.6113 35.8924L18 38.6541L20.9948 38.2451C21.1583 38.2227 21.24 38.2116 21.3114 38.212C21.3865 38.2126 21.4264 38.2166 21.5001 38.2313C21.5701 38.2453 21.6742 38.282 21.8823 38.3555C22.4306 38.549 23.0191 38.6541 23.6316 38.6541Z"
        stroke="#FF4A4A"
        stroke-width="2"
        stroke-linecap="round"
        stroke-linejoin="round"
      />
      <rect x="4" y="4.65405" width="48" height="48" rx="24" stroke="#FFF5F5" stroke-width="8" />
    </symbol>
    <symbol id="cube" viewBox="0 0 46 47" fill="none">
      <rect x="3" y="3.65405" width="40" height="40" rx="20" fill="#FFEBEB" />
      <path
        d="M30.0833 19.7188L23 23.654M23 23.654L15.9166 19.7188M23 23.654L23 31.5707M30.5 27.0362V20.2719C30.5 19.9864 30.5 19.8436 30.4579 19.7163C30.4207 19.6036 30.3599 19.5002 30.2795 19.413C30.1886 19.3144 30.0638 19.245 29.8142 19.1064L23.6475 15.6804C23.4112 15.5491 23.293 15.4835 23.1679 15.4578C23.0571 15.435 22.9429 15.435 22.8321 15.4578C22.707 15.4835 22.5888 15.5491 22.3525 15.6804L16.1858 19.1064C15.9362 19.245 15.8114 19.3144 15.7205 19.413C15.6401 19.5002 15.5793 19.6036 15.5421 19.7163C15.5 19.8436 15.5 19.9864 15.5 20.2719V27.0362C15.5 27.3217 15.5 27.4645 15.5421 27.5918C15.5793 27.7045 15.6401 27.8079 15.7205 27.8951C15.8114 27.9937 15.9362 28.063 16.1858 28.2017L22.3525 31.6276C22.5888 31.7589 22.707 31.8246 22.8321 31.8503C22.9429 31.8731 23.0571 31.8731 23.1679 31.8503C23.293 31.8246 23.4112 31.7589 23.6475 31.6276L29.8142 28.2017C30.0638 28.063 30.1886 27.9937 30.2795 27.8951C30.3599 27.8079 30.4207 27.7045 30.4579 27.5918C30.5 27.4645 30.5 27.3217 30.5 27.0362Z"
        stroke="#EE3535"
        stroke-width="1.66667"
        stroke-linecap="round"
        stroke-linejoin="round"
      />
      <rect x="3" y="3.65405" width="40" height="40" rx="20" stroke="#FFF5F5" stroke-width="6" />
    </symbol>
    <symbol id="flash" viewBox="0 0 46 47" fill="none">
      <rect x="3" y="3.65405" width="40" height="40" rx="20" fill="#FFEBEB" />
      <path
        d="M23.8333 15.3208L16.4112 24.2273C16.1205 24.5762 15.9752 24.7506 15.9729 24.8979C15.971 25.0259 16.0281 25.1477 16.1277 25.2282C16.2423 25.3208 16.4693 25.3208 16.9233 25.3208H23L22.1666 31.9875L29.5888 23.0809C29.8794 22.7321 30.0248 22.5577 30.027 22.4104C30.0289 22.2824 29.9719 22.1605 29.8723 22.0801C29.7577 21.9875 29.5307 21.9875 29.0766 21.9875H23L23.8333 15.3208Z"
        stroke="#EE3535"
        stroke-width="1.66667"
        stroke-linecap="round"
        stroke-linejoin="round"
      />
      <rect x="3" y="3.65405" width="40" height="40" rx="20" stroke="#FFF5F5" stroke-width="6" />
    </symbol>
    <symbol id="clock" viewBox="0 0 16 16" stroke="currentcolor" fill="none">
      <path
        d="M7.99967 14.6668C11.6816 14.6668 14.6663 11.6821 14.6663 8.00016C14.6663 4.31826 11.6816 1.3335 7.99967 1.3335C4.31778 1.3335 1.33301 4.31826 1.33301 8.00016C1.33301 11.6821 4.31778 14.6668 7.99967 14.6668Z"
        stroke-width="1.5"
        stroke-linecap="round"
        stroke-linejoin="round"
      />
      <path d="M8 4V8L10.6667 9.33333" stroke-width="1.5" stroke-linecap="round" stroke-linejoin="round" />
    </symbol>
    <symbol id="discord" viewBox="0 0 24 25" fill="currentcolor">
      <path
        d="M20.2231 0.868164C21.6294 0.868164 22.7619 2.00516 22.8286 3.34466V24.8682L20.1526 22.5949L18.6841 21.2592L17.0784 19.8604L17.7466 22.0639H3.71111C2.30861 22.0639 1.17236 21.0012 1.17236 19.5874V3.34916C1.17236 2.00966 2.30936 0.872664 3.71561 0.872664H20.2156L20.2231 0.868164ZM14.1054 6.55166H14.0739L13.8706 6.75116C15.9451 7.35266 16.9486 8.29016 16.9486 8.29016C15.6129 7.62191 14.4054 7.28591 13.2024 7.14941C12.3354 7.01666 11.4639 7.08716 10.7296 7.14941H10.5264C10.0576 7.14941 9.05786 7.35266 7.71761 7.88741C7.25261 8.09066 6.98336 8.22341 6.98336 8.22341C6.98336 8.22341 7.98311 7.21916 10.1941 6.68441L10.0576 6.55166C10.0576 6.55166 8.38586 6.48491 6.58136 7.82141C6.58136 7.82141 4.77686 10.9662 4.77686 14.8407C4.77686 14.8407 5.77661 16.5792 8.51936 16.6452C8.51936 16.6452 8.92136 16.1142 9.32411 15.6454C7.78511 15.1767 7.18361 14.2392 7.18361 14.2392C7.18361 14.2392 7.32011 14.3059 7.51961 14.4387H7.57811C7.60961 14.4387 7.62536 14.4544 7.64036 14.4702V14.4777C7.65611 14.4934 7.67186 14.5047 7.69886 14.5047C8.03111 14.6412 8.35886 14.7739 8.62886 14.9067C9.09761 15.1062 9.69536 15.3087 10.4296 15.4422C11.3596 15.5787 12.4254 15.6417 13.6404 15.4422C14.2381 15.3057 14.8396 15.1767 15.4411 14.9067C15.8281 14.7072 16.3081 14.5084 16.8354 14.1687C16.8354 14.1687 16.2376 15.1062 14.6319 15.5749C14.9604 16.0399 15.4246 16.5747 15.4246 16.5747C18.1704 16.5124 19.2369 14.7739 19.2954 14.8482C19.2954 10.9774 17.4789 7.82891 17.4789 7.82891C15.8461 6.61391 14.3146 6.56741 14.0454 6.56741L14.1001 6.54791L14.1054 6.55166ZM14.2734 10.9662C14.9769 10.9662 15.5431 11.5639 15.5431 12.2982C15.5431 13.0407 14.9731 13.6377 14.2734 13.6377C13.5699 13.6377 13.0036 13.0399 13.0036 12.3057C13.0036 11.5632 13.5736 10.9662 14.2734 10.9662ZM9.73061 10.9662C10.4296 10.9662 10.9966 11.5639 10.9966 12.2982C10.9966 13.0407 10.4266 13.6377 9.72686 13.6377C9.02336 13.6377 8.45336 13.0399 8.45336 12.3057C8.45336 11.5632 9.02336 10.9662 9.72686 10.9662H9.73061Z"
      />
    </symbol>
    <symbol id="discourse" viewBox="0 0 21 22" fill="currentcolor">
      <path
        d="M10.5891 0.5C4.84219 0.5 0 5.11719 0 10.8172C0 11 0.0046875 21.5 0.0046875 21.5L10.5891 21.4906C16.3406 21.4906 21 16.6953 21 10.9953C21 5.29531 16.3406 0.5 10.5891 0.5ZM10.5 17C9.59062 17 8.72344 16.7984 7.95 16.4328L4.14844 17.375L5.22188 13.8594C4.7625 13.0109 4.5 12.0359 4.5 11C4.5 7.68594 7.18594 5 10.5 5C13.8141 5 16.5 7.68594 16.5 11C16.5 14.3141 13.8141 17 10.5 17Z"
      />
    </symbol>
    <symbol id="github" viewBox="0 0 24 24" fill="currentcolor">
      <path
        fill-rule="evenodd"
        clip-rule="evenodd"
        d="M11.9991 0.295654C5.37336 0.295654 0 5.6683 0 12.2962C0 17.5974 3.4381 22.0955 8.20663 23.6831C8.80702 23.7929 9.02582 23.4223 9.02582 23.104C9.02582 22.8189 9.01538 22.0646 9.00911 21.0634C5.67121 21.7883 4.96695 19.4545 4.96695 19.4545C4.42107 18.0681 3.63429 17.699 3.63429 17.699C2.54473 16.955 3.71677 16.9697 3.71677 16.9697C4.92124 17.0545 5.55479 18.2066 5.55479 18.2066C6.62519 20.0402 8.36375 19.5105 9.04739 19.2033C9.1564 18.4283 9.46656 17.8994 9.80911 17.5996C7.14456 17.2961 4.34295 16.2669 4.34295 11.6686C4.34295 10.358 4.81075 9.28759 5.57837 8.44852C5.45453 8.145 5.0428 6.92503 5.69635 5.27266C5.69635 5.27266 6.70338 4.95002 8.99594 6.50222C9.95289 6.23626 10.9798 6.10366 12.0001 6.0985C13.0197 6.10268 14.0459 6.23632 15.0043 6.50222C17.2954 4.95002 18.3009 5.27266 18.3009 5.27266C18.9558 6.92503 18.544 8.145 18.421 8.44852C19.1901 9.28759 19.6542 10.358 19.6542 11.6686C19.6542 16.2787 16.8482 17.2931 14.1755 17.5899C14.6057 17.9605 14.9895 18.6928 14.9895 19.8126C14.9895 21.4163 14.9749 22.7106 14.9749 23.104C14.9749 23.4252 15.1915 23.7987 15.8 23.6816C20.5649 22.0911 24 17.5966 24 12.2962C24 5.6683 18.6267 0.295654 11.9987 0.295654"
      />
    </symbol>
    <symbol id="globe" viewBox="0 0 32 32" fill="currentcolor">
      <path
        d="M32.0317 16C32.0317 7.49952 25.3547 0.528023 16.9592 0.0305547C16.7862 0.0115547 16.6127 -0.000976562 16.4367 -0.000976562C16.3847 -0.000976562 16.3327 0.00452344 16.2807 0.00602344C16.1872 0.00452344 16.0942 -0.000976562 15.9997 -0.000976562C7.15974 -0.000976562 -0.0322266 7.17702 -0.0322266 16C-0.0322266 24.823 7.15977 32.001 15.9997 32.001C16.0942 32.001 16.1872 31.9955 16.2812 31.9935C16.3332 31.9955 16.3852 32.001 16.4372 32.001C16.6132 32.001 16.7867 31.9885 16.9597 31.9695C25.3547 31.472 32.0317 24.5015 32.0317 16ZM29.0489 21.151C28.4979 20.991 27.1139 20.6435 24.6719 20.3575C24.8739 18.9765 24.9844 17.517 24.9844 16C24.9844 14.8045 24.9154 13.6456 24.7879 12.531C27.8819 12.1615 29.2374 11.696 29.3284 11.664L28.9559 10.6145C29.6509 12.2735 30.0359 14.0925 30.0359 16C30.0359 17.8185 29.6834 19.555 29.0489 21.151H29.0489ZM8.92134 16.0001C8.92134 14.8811 8.9954 13.7885 9.13087 12.7375C10.7524 12.865 12.6914 12.959 14.9703 12.981V19.9205C12.7518 19.942 10.8558 20.032 9.26134 20.1541C9.04134 18.8355 8.92134 17.4391 8.92134 16.0001ZM16.9669 2.13199C19.4189 2.84249 21.5184 6.24746 22.4589 10.7605C20.9474 10.881 19.1269 10.969 16.9669 10.9895V2.13199ZM14.9704 2.15646V10.9885C12.8339 10.967 11.0054 10.8799 9.46846 10.7625C10.428 6.30596 12.5445 2.92646 14.9704 2.15646ZM14.9704 21.9134L14.9705 29.8429C12.708 29.1249 10.7145 26.1374 9.67796 22.1234C11.1705 22.0139 12.931 21.934 14.9704 21.9134ZM16.9669 29.8679L16.9669 21.9129C19.0279 21.9324 20.7814 22.0154 22.2549 22.1294C21.2359 26.1959 19.2549 29.2049 16.9669 29.8679ZM16.9669 19.9204L16.9669 12.9819C19.2579 12.9604 21.1854 12.8639 22.7854 12.7319C22.9206 13.8161 22.9884 14.9077 22.9884 16.0004C22.9884 17.4419 22.8724 18.8399 22.6594 20.1604C21.0839 20.0329 19.1969 19.9414 16.9669 19.9204ZM28.5875 9.8104C28.2855 9.9044 27.023 10.2629 24.493 10.5614C23.929 7.5629 22.9095 4.9999 21.583 3.1499C24.631 4.4744 27.1185 6.8469 28.5875 9.8104H28.5875ZM11.213 2.83093C9.58146 4.70443 8.24946 7.39846 7.52246 10.5845C5.25746 10.339 3.89993 10.0504 3.35646 9.91943C4.94146 6.64943 7.76396 4.08343 11.213 2.83093ZM2.61349 11.787C2.99849 11.8915 4.45452 12.2539 7.16202 12.5534C7.00221 13.6954 6.92201 14.8472 6.92202 16.0004C6.92202 17.5089 7.05852 18.9604 7.30452 20.3344C4.97952 20.5854 3.54952 20.8859 2.90802 21.0409C2.30052 19.4754 1.96402 17.777 1.96402 15.9999C1.96402 14.5324 2.19252 13.1169 2.61349 11.787ZM3.78402 22.8859C4.51102 22.7314 5.81252 22.4964 7.74002 22.2944C8.49902 25.0979 9.73352 27.4699 11.213 29.1684C8.05302 28.0209 5.42252 25.7699 3.78402 22.8859ZM21.583 28.8494C22.7775 27.1849 23.723 24.9424 24.311 22.3244C26.2925 22.5519 27.5365 22.8179 28.164 22.9764C26.6635 25.5724 24.3561 27.6449 21.583 28.8494Z"
      />
    </symbol>
    <symbol id="medium" viewBox="0 0 24 14" fill="currentcolor">
      <path
        d="M13.54 6.99993C13.5453 8.80168 12.8354 10.5319 11.566 11.8106C10.2967 13.0893 8.57177 13.812 6.77003 13.8199C4.96829 13.812 3.24335 13.0893 1.97402 11.8106C0.704678 10.5319 -0.00528713 8.80168 2.96483e-05 6.99993C-0.00528713 5.19818 0.704678 3.46798 1.97402 2.18926C3.24335 0.91055 4.96829 0.187873 6.77003 0.179932C8.57177 0.187873 10.2967 0.91055 11.566 2.18926C12.8354 3.46798 13.5453 5.19818 13.54 6.99993ZM20.96 6.99993C20.96 10.5399 19.45 13.4199 17.58 13.4199C15.71 13.4199 14.19 10.5399 14.19 6.99993C14.19 3.45993 15.71 0.579932 17.58 0.579932C19.45 0.579932 20.96 3.45993 20.96 6.99993M24 6.99993C24 10.1699 23.47 12.7499 22.81 12.7499C22.15 12.7499 21.62 10.1699 21.62 6.99993C21.62 3.82993 22.15 1.24993 22.81 1.24993C23.47 1.24993 24 3.82993 24 6.99993Z"
      />
    </symbol>
    <symbol id="message-heart" viewBox="0 0 56 57" fill="none">
      <rect x="4" y="4.56226" width="48" height="48" rx="24" fill="#FFEBEB" />
      <path
        d="M36.9996 28.0623C36.9996 32.7567 33.194 36.5623 28.4996 36.5623C27.4228 36.5623 26.3928 36.362 25.4448 35.9968C25.2714 35.93 25.1848 35.8966 25.1159 35.8807C25.0481 35.8651 24.999 35.8586 24.9295 35.8559C24.8588 35.8532 24.7813 35.8612 24.6262 35.8773L19.5052 36.4066C19.0169 36.4571 18.7728 36.4823 18.6288 36.3945C18.5034 36.318 18.4179 36.1902 18.3952 36.045C18.3691 35.8784 18.4857 35.6625 18.7191 35.2306L20.3547 32.2031C20.4894 31.9537 20.5568 31.8291 20.5873 31.7092C20.6174 31.5908 20.6247 31.5055 20.6151 31.3837C20.6053 31.2604 20.5512 31.0999 20.443 30.7789C20.1555 29.9258 19.9996 29.0123 19.9996 28.0623C19.9996 23.3678 23.8052 19.5623 28.4996 19.5623C33.194 19.5623 36.9996 23.3678 36.9996 28.0623Z"
        stroke="#EE3535"
        stroke-width="2"
        stroke-linecap="round"
        stroke-linejoin="round"
      />
      <path
        fill-rule="evenodd"
        clip-rule="evenodd"
        d="M28.4965 25.5115C27.5968 24.4727 26.0965 24.1932 24.9692 25.1445C23.842 26.0958 23.6833 27.6862 24.5685 28.8113C25.117 29.5083 26.4935 30.7814 27.4616 31.6492C27.8172 31.968 27.995 32.1274 28.2084 32.1916C28.3914 32.2467 28.6017 32.2467 28.7847 32.1916C28.9981 32.1274 29.1759 31.968 29.5315 31.6492C30.4996 30.7814 31.8761 29.5083 32.4246 28.8113C33.3098 27.6862 33.1705 26.0858 32.0238 25.1445C30.8772 24.2032 29.3963 24.4727 28.4965 25.5115Z"
        stroke="#EE3535"
        stroke-width="2"
        stroke-linecap="round"
        stroke-linejoin="round"
      />
      <rect x="4" y="4.56226" width="48" height="48" rx="24" stroke="#FFF5F5" stroke-width="8" />
    </symbol>
    <symbol id="oo-logo" viewBox="0 0 167 83" fill="currentcolor">
      <path
        fill-rule="evenodd"
        clip-rule="evenodd"
        d="M124.697 5.34931H41.8695C21.8563 5.34931 5.63252 21.5731 5.63252 41.5863C5.63252 61.5994 21.8563 77.8232 41.8694 77.8232H124.697C144.71 77.8232 160.934 61.5994 160.934 41.5863C160.934 21.5731 144.71 5.34931 124.697 5.34931ZM41.8695 0.172607C18.9973 0.172607 0.455811 18.7141 0.455811 41.5863C0.455811 64.4584 18.9973 82.9999 41.8694 82.9999H124.697C147.569 82.9999 166.11 64.4584 166.11 41.5863C166.11 18.7141 147.569 0.172607 124.697 0.172607H41.8695ZM48.7724 64.0178C61.1615 64.0178 71.2048 53.9745 71.2048 41.5854C71.2048 29.1964 61.1615 19.153 48.7724 19.153C36.3833 19.153 26.34 29.1964 26.34 41.5854C26.34 53.9745 36.3833 64.0178 48.7724 64.0178ZM48.7724 69.1945C64.0205 69.1945 76.3815 56.8335 76.3815 41.5854C76.3815 26.3374 64.0205 13.9763 48.7724 13.9763C33.5243 13.9763 21.1633 26.3374 21.1633 41.5854C21.1633 56.8335 33.5243 69.1945 48.7724 69.1945ZM140.229 41.5854C140.229 53.9745 130.185 64.0178 117.796 64.0178C105.407 64.0178 95.364 53.9745 95.364 41.5854C95.364 29.1964 105.407 19.153 117.796 19.153C130.185 19.153 140.229 29.1964 140.229 41.5854ZM145.405 41.5854C145.405 56.8335 133.044 69.1945 117.796 69.1945C102.548 69.1945 90.1873 56.8335 90.1873 41.5854C90.1873 26.3374 102.548 13.9763 117.796 13.9763C133.044 13.9763 145.405 26.3374 145.405 41.5854Z"
      />
    </symbol>
    <symbol id="osnap-logo" viewBox="0 0 69 26" fill="currentcolor">
      <path
        d="M10.3515 19.7444C9.28083 20.8308 7.90922 21.3739 6.23672 21.3739C4.56421 21.3739 3.20433 20.8347 2.15706 19.7561C1.11761 18.6776 0.597881 17.2747 0.597881 15.5475C0.597881 13.8203 1.12933 12.4096 2.19223 11.3155C3.25513 10.2135 4.62283 9.66252 6.29533 9.66252C7.96783 9.66252 9.32772 10.2135 10.375 11.3155C11.4301 12.4096 11.9576 13.8203 11.9576 15.5475C11.9576 17.2513 11.4223 18.6503 10.3515 19.7444ZM6.23672 19.381C7.26054 19.381 8.07334 19.0449 8.67513 18.3728C9.27692 17.6929 9.57781 16.7746 9.57781 15.6179V15.5241C9.57781 14.3361 9.28083 13.3944 8.68685 12.6988C8.1007 12.0032 7.30352 11.6555 6.29533 11.6555C5.28714 11.6555 4.48215 12.0032 3.88036 12.6988C3.27857 13.3944 2.97768 14.3361 2.97768 15.5241V15.6179C2.97768 16.7824 3.26685 17.7007 3.84519 18.3728C4.43135 19.0449 5.22852 19.381 6.23672 19.381ZM19.3437 21.456C15.4203 21.456 13.1382 19.6702 12.4973 16.0985H15.0882C15.3226 17.263 15.7642 18.0954 16.4129 18.5956C17.0694 19.0879 18.0189 19.3341 19.2616 19.3341C20.3401 19.3341 21.1764 19.0997 21.7704 18.6307C22.3721 18.154 22.673 17.4936 22.673 16.6495C22.673 16.3447 22.5949 16.0712 22.4386 15.8289C22.2901 15.5866 22.1025 15.3873 21.8759 15.231C21.657 15.0747 21.3444 14.9301 20.938 14.7973C20.5316 14.6566 20.1565 14.5472 19.8126 14.469C19.4765 14.3909 19.031 14.301 18.4762 14.1994C18.0541 14.1134 17.6751 14.0313 17.339 13.9532C17.0029 13.8672 16.6395 13.7578 16.2488 13.6249C15.858 13.4843 15.5141 13.3397 15.2171 13.1912C14.9279 13.0349 14.6388 12.8434 14.3496 12.6167C14.0604 12.3901 13.8221 12.1439 13.6345 11.8782C13.4547 11.6047 13.3062 11.2881 13.189 10.9286C13.0796 10.5613 13.0249 10.1627 13.0249 9.73285C13.0249 8.34952 13.5485 7.20847 14.5958 6.3097C15.6431 5.41092 16.9834 4.96153 18.6168 4.96153C20.4378 4.96153 21.8993 5.41092 23.0013 6.3097C24.1033 7.20065 24.7715 8.52537 25.0059 10.2838H22.4386C22.2745 9.1506 21.872 8.33389 21.2311 7.8337C20.598 7.3257 19.7188 7.0717 18.5934 7.0717C17.6165 7.0717 16.8388 7.30226 16.2605 7.76337C15.6899 8.22448 15.4047 8.8419 15.4047 9.61562C15.4047 9.88135 15.4516 10.1236 15.5454 10.3425C15.647 10.5535 15.7955 10.7371 15.9908 10.8934C16.194 11.0419 16.4129 11.1748 16.6473 11.292C16.8896 11.4093 17.1788 11.5148 17.5149 11.6086C17.8509 11.6945 18.1713 11.7727 18.4762 11.843C18.7888 11.9055 19.1522 11.9759 19.5664 12.054C19.6524 12.0697 19.7188 12.0814 19.7657 12.0892C20.3753 12.2064 20.8989 12.3276 21.3366 12.4526C21.7743 12.5699 22.2432 12.7457 22.7434 12.9802C23.2514 13.2068 23.6617 13.4686 23.9743 13.7656C24.2869 14.0626 24.5487 14.4495 24.7598 14.9262C24.9708 15.3951 25.0763 15.9305 25.0763 16.5323C25.0763 18.0094 24.5644 19.2013 23.5406 20.1078C22.5167 21.0066 21.1178 21.456 19.3437 21.456ZM26.378 21.1864V9.85009H28.7344V11.9954C29.3596 10.4089 30.5202 9.61562 32.2162 9.61562C33.451 9.61562 34.4162 10.022 35.1118 10.8348C35.8073 11.6398 36.1551 12.7926 36.1551 14.2932V21.1864H33.7753V14.4104C33.7753 12.605 33.0172 11.7023 31.501 11.7023C30.6179 11.7023 29.934 12.054 29.4495 12.7574C28.9727 13.4608 28.7344 14.4612 28.7344 15.7586V21.1864H26.378ZM41.2903 21.4794C40.0868 21.4794 39.1333 21.1825 38.4299 20.5885C37.7265 19.9867 37.3748 19.1934 37.3748 18.2087C37.3748 17.8492 37.4139 17.5248 37.492 17.2357C37.5702 16.9387 37.6718 16.6847 37.7968 16.4737C37.9297 16.2548 38.1055 16.0555 38.3244 15.8758C38.551 15.6882 38.7738 15.5358 38.9926 15.4186C39.2114 15.2935 39.4889 15.1763 39.8249 15.0669C40.161 14.9497 40.4697 14.8559 40.7511 14.7855C41.0324 14.7152 41.3802 14.6331 41.7944 14.5393C41.9976 14.4925 42.2516 14.4377 42.5564 14.3752C42.8691 14.3127 43.1035 14.2658 43.2598 14.2345C43.4239 14.2033 43.6154 14.1603 43.8343 14.1056C44.0531 14.0509 44.2172 14.004 44.3266 13.9649C44.4439 13.9258 44.565 13.875 44.69 13.8125C44.8229 13.75 44.9206 13.6836 44.9831 13.6132C45.0535 13.5429 45.1043 13.4647 45.1355 13.3788V13.2146C45.1355 12.7144 44.9362 12.3159 44.5376 12.0189C44.1391 11.7141 43.5295 11.5617 42.7088 11.5617C41.8804 11.5617 41.2356 11.7414 40.7745 12.1009C40.3212 12.4526 40.0711 12.9528 40.0242 13.6015V13.7422H37.6444C37.6757 12.4839 38.1524 11.4913 39.0747 10.7645C39.9969 10.0298 41.2161 9.66252 42.7323 9.66252C44.225 9.66252 45.37 10.0064 46.1672 10.6942C46.9643 11.3819 47.3629 12.4292 47.3629 13.836V19.4279L47.3864 21.1864H45.1121V19.4865C44.7369 20.143 44.2133 20.6393 43.5412 20.9754C42.8769 21.3114 42.1266 21.4794 41.2903 21.4794ZM41.7241 19.6741C42.6307 19.6741 43.4044 19.424 44.0453 18.9238C44.6861 18.4236 45.0496 17.6577 45.1355 16.6261V15.231C44.9714 15.3404 44.7565 15.4459 44.4908 15.5475C44.2328 15.6491 44.0101 15.7234 43.8225 15.7703C43.635 15.8172 43.338 15.8875 42.9316 15.9813C42.533 16.0751 42.2673 16.1376 42.1344 16.1689C41.7593 16.2626 41.4466 16.3564 41.1965 16.4502C40.9543 16.544 40.7159 16.6651 40.4814 16.8136C40.247 16.9621 40.0711 17.1458 39.9539 17.3646C39.8367 17.5756 39.778 17.8257 39.778 18.1149C39.778 18.5916 39.95 18.9707 40.2939 19.2521C40.6377 19.5334 41.1145 19.6741 41.7241 19.6741ZM49.2391 25.6529V9.85009H51.5486V11.5382C51.955 10.9286 52.4708 10.4558 53.096 10.1197C53.7291 9.78365 54.4364 9.61562 55.2179 9.61562C56.7028 9.61562 57.922 10.1471 58.8755 11.21C59.8368 12.2651 60.3175 13.6796 60.3175 15.4538V15.4772C60.3175 17.2747 59.8368 18.7167 58.8755 19.803C57.9142 20.8816 56.6872 21.4208 55.1945 21.4208C54.4285 21.4208 53.733 21.2567 53.1077 20.9285C52.4903 20.6002 51.9784 20.143 51.572 19.5569V25.6529H49.2391ZM54.62 19.4045C55.597 19.4045 56.3785 19.0645 56.9647 18.3845C57.5508 17.6968 57.8439 16.7511 57.8439 15.5475V15.3717C57.8439 14.1759 57.5547 13.2537 56.9764 12.605C56.398 11.9563 55.6126 11.632 54.62 11.632C53.6431 11.632 52.8655 11.9876 52.2871 12.6988C51.7166 13.41 51.4313 14.3361 51.4313 15.4772V15.6648C51.4313 16.7902 51.7166 17.6968 52.2871 18.3845C52.8576 19.0645 53.6353 19.4045 54.62 19.4045Z"
      />
      <path
        fill-rule="evenodd"
        clip-rule="evenodd"
        d="M61.3366 1.80959C61.6709 1.89916 61.8693 2.24276 61.7797 2.57704L61.4586 3.77544C61.369 4.10972 61.0254 4.3081 60.691 4.21853C60.3567 4.12896 60.1583 3.78536 60.2479 3.45107L60.569 2.25268C60.6586 1.9184 61.0023 1.72002 61.3366 1.80959ZM60.3731 5.40477C60.7075 5.49434 60.9059 5.83794 60.8163 6.17222L60.4951 7.37062C60.4056 7.7049 60.0619 7.90328 59.7276 7.81371C59.3933 7.72414 59.1949 7.38054 59.2844 7.04626L59.6056 5.84786C59.6952 5.51358 60.0388 5.3152 60.3731 5.40477ZM66.0486 4.63046C66.2934 4.87517 66.2934 5.27192 66.0486 5.51664L65.1712 6.39392C64.9265 6.63863 64.5297 6.63863 64.2849 6.39392C64.0402 6.14921 64.0402 5.75245 64.2849 5.50774L65.1623 4.63046C65.4071 4.38575 65.8039 4.38575 66.0486 4.63046ZM63.4164 7.26231C63.6612 7.50702 63.6612 7.90378 63.4164 8.14849L62.5391 9.02578C62.2943 9.27049 61.8975 9.27049 61.6528 9.02577C61.408 8.78106 61.408 8.38431 61.6528 8.1396L62.5302 7.26231C62.7749 7.0176 63.1717 7.0176 63.4164 7.26231ZM68.4085 10.0924C68.7428 10.0028 68.9412 9.65919 68.8516 9.32491C68.7621 8.99063 68.4184 8.79225 68.0841 8.88182L66.8856 9.20293C66.5512 9.2925 66.3528 9.6361 66.4424 9.97038C66.532 10.3047 66.8756 10.503 67.21 10.4135L68.4085 10.0924ZM64.8129 11.0557C65.1472 10.9661 65.3456 10.6225 65.256 10.2882C65.1664 9.95395 64.8228 9.75558 64.4885 9.84515L63.2899 10.1663C62.9556 10.2558 62.7572 10.5994 62.8468 10.9337C62.9364 11.268 63.28 11.4664 63.6143 11.3768L64.8129 11.0557Z"
      />
    </symbol>
    <symbol id="outcome" viewBox="0 0 57 56" fill="currentcolor">
      <path
        fill-rule="evenodd"
        clip-rule="evenodd"
        d="M8.24609 50.2353H28.0107C40.2909 50.2353 50.246 40.2802 50.246 28C50.246 15.7198 40.2909 5.76471 28.0107 5.76471C15.7305 5.76471 5.77541 15.7198 5.77545 28L5.7755 47.7647C5.77551 49.1292 6.88162 50.2353 8.24609 50.2353ZM8.24609 56H28.0107C43.4747 56 56.0107 43.464 56.0107 28C56.0107 12.536 43.4747 0 28.0107 0C12.5467 0 0.0106999 12.5361 0.0107422 28L0.0107962 47.7647C0.0108087 52.313 3.69787 56 8.24609 56Z"
      />
      <path
        fill-rule="evenodd"
        clip-rule="evenodd"
        d="M8.24609 50.2353H21.4225C30.0641 50.2353 37.0695 43.2299 37.0695 34.5882C37.0695 25.9466 30.0641 18.9412 21.4225 18.9412C12.7808 18.9412 5.77542 25.9466 5.77545 34.5882L5.7755 47.7647C5.77551 49.1292 6.88162 50.2353 8.24609 50.2353ZM8.24609 56H21.4225C33.2479 56 42.8342 46.4136 42.8342 34.5882C42.8342 22.7628 33.2479 13.1765 21.4225 13.1765C9.59708 13.1765 0.0107098 22.7629 0.0107422 34.5883L0.0107962 47.7647C0.0108087 52.313 3.69787 56 8.24609 56Z"
      />
      <path
        fill-rule="evenodd"
        clip-rule="evenodd"
        d="M5.94016 50.2353H14.8342C19.8373 50.2353 23.8931 46.1795 23.8931 41.1765C23.8931 36.1734 19.8373 32.1176 14.8343 32.1176C9.8312 32.1176 5.77543 36.1734 5.77545 41.1765L5.77547 50.0706C5.77547 50.104 5.7811 50.1213 5.78605 50.1329C5.79262 50.1485 5.80462 50.168 5.82371 50.1871C5.8428 50.2062 5.8623 50.2182 5.87783 50.2247C5.88952 50.2297 5.90679 50.2353 5.94016 50.2353ZM5.94016 56H14.8342C23.021 56 29.6578 49.3633 29.6578 41.1765C29.6578 32.9897 23.0211 26.3529 14.8343 26.3529C6.64744 26.3529 0.0107198 32.9897 0.0107422 41.1765L0.0107665 50.0706C0.0107755 53.3453 2.66545 56 5.94016 56Z"
      />
      <path
        fill-rule="evenodd"
        clip-rule="evenodd"
        d="M5.77546 50.2353H8.24609C9.61055 50.2353 10.7166 49.1292 10.7166 47.7647C10.7166 46.4002 9.61048 45.2941 8.24602 45.2941C6.88156 45.2941 5.7755 46.4002 5.7755 47.7647L5.77546 50.2353ZM0.0107647 56H8.24609C12.7943 56 16.4813 52.3129 16.4813 47.7647C16.4813 43.2165 12.7942 39.5294 8.24602 39.5294C3.69779 39.5294 0.0107838 43.2165 0.0107962 47.7647L0.0107647 56Z"
      />
    </symbol>
    <symbol id="polymarket" viewBox="0 0 46 57" fill="currentcolor">
      <path
        d="M45.4411 56.1691L0.896484 43.4368V12.9013L45.4411 0.169067V56.1691ZM41.1362 31.7261L8.37531 41.0655L41.1362 50.4049V31.7261ZM5.20137 18.8114V37.5267L37.9623 28.1873L5.20137 18.8114ZM41.1362 5.86027L8.37531 15.2362L41.1362 24.5756V5.86027Z"
      />
    </symbol>
    <symbol id="rated" viewBox="0 0 40 40" fill="currentcolor">
      <path
        d="M39.633 8.99506C39.6155 8.68065 39.6854 8.3313 39.7378 7.99943C39.8251 7.52781 39.9299 7.03873 39.7552 6.67192C39.6504 6.42737 39.3185 6.2003 38.9692 5.97323C38.6199 5.72868 38.2006 5.46668 37.9386 5.0824C37.6941 4.75052 37.5893 4.31384 37.4845 3.91209C37.3797 3.47541 37.2749 3.07366 37.0303 2.82912C36.7858 2.58458 36.384 2.47978 35.9474 2.37497C35.5456 2.27017 35.1089 2.16537 34.7771 1.92082C34.3928 1.64136 34.1308 1.23961 33.8862 0.890263C33.6592 0.540918 33.4321 0.209042 33.1875 0.104237C32.8033 -0.070435 32.3142 0.0343688 31.86 0.121705C31.5281 0.191575 31.1788 0.261444 30.8644 0.226509C30.6024 0.209042 30.3404 0.15664 30.0958 0.121705C29.7989 0.0693033 29.5194 0.0343688 29.2749 0.0343688C29.0478 0.0343688 28.8382 0.0693032 28.6635 0.174107C28.4364 0.313845 28.2792 0.645723 28.1395 0.925199L26.2705 4.71558C27.86 5.27454 29.4495 5.81602 31.074 6.40991C32.0871 6.84659 32.9255 7.65008 33.3622 8.66318C33.7465 9.64135 34.0609 10.5496 34.4277 11.4929L35.1788 13.5889L38.9343 11.7374C39.2487 11.5977 39.5456 11.423 39.7028 11.161C39.9124 10.8291 39.8251 10.3226 39.7378 9.74615C39.6854 9.50161 39.6504 9.2396 39.633 8.99506Z"
      />
      <path
        d="M16.3321 30.7416C16.105 30.0604 15.9129 29.5538 15.6858 29.0648C15.1793 27.9818 14.5155 26.9861 13.7295 26.0779C12.9085 25.1696 11.9304 24.4185 10.8649 23.8944C10.3932 23.6674 9.8343 23.4752 9.15307 23.2831C9.08321 23.2656 9.01334 23.2656 8.926 23.2656C8.76879 23.2656 8.59412 23.3006 8.41945 23.353C8.17491 23.4228 7.68583 23.7023 7.42382 23.877C5.29281 25.2569 3.9653 26.0604 1.76443 27.2482C1.76443 27.2482 1.74696 27.2656 1.72949 27.2656C1.79936 27.2656 1.85176 27.2831 1.92163 27.2831C2.18364 27.318 2.42818 27.3355 2.67273 27.3355C2.88233 27.3355 3.14434 27.2656 3.40635 27.1958C3.73823 27.1084 4.12251 27.0036 4.55919 27.0036C4.8736 27.0036 5.15308 27.056 5.43255 27.1608C5.9915 27.4228 6.28845 27.842 6.53299 28.1565L6.62032 28.2787C6.82993 28.5757 7.057 28.9075 7.28408 29.0473C7.47622 29.1696 7.82556 29.2569 8.19238 29.3442L8.29718 29.3792C8.73386 29.5014 9.25788 29.6412 9.72949 30.0779C10.1836 30.5495 10.3234 31.091 10.4457 31.5276L10.4806 31.6499C10.5679 31.9992 10.6553 32.3486 10.7775 32.5407C10.9347 32.7678 11.2491 32.9949 11.5461 33.2045L11.6684 33.2918C12.0002 33.5189 12.402 33.8158 12.664 34.3573C12.9609 35.1608 12.7863 35.842 12.6465 36.401C12.5767 36.663 12.5068 36.925 12.5068 37.1346C12.5068 37.3792 12.5417 37.6237 12.5592 37.8682C13.8168 35.615 15.1094 33.3442 15.4762 32.7329C15.7208 32.3311 16.1574 31.7023 16.3146 31.318C16.402 31.1434 16.3845 30.9163 16.3321 30.7416Z"
      />
      <path
        d="M11.9477 39.6504C12.4018 39.1613 11.7555 37.7465 11.7555 37.205C11.7555 36.7159 11.8254 36.2792 11.8603 35.8775C11.9127 35.4757 11.9127 35.0915 11.7555 34.812C11.6158 34.5675 11.2839 34.3404 10.9346 34.1133C10.5852 33.8862 10.166 33.6417 9.8516 33.2225C9.51972 32.7683 9.44985 32.2967 9.34505 31.895C9.24025 31.4932 9.11798 31.1439 8.90837 30.9517C8.71623 30.7421 8.34942 30.6199 7.96514 30.5151C7.56339 30.3928 7.10924 30.3229 6.63763 30.0085C6.21841 29.6766 5.97387 29.2749 5.7468 28.9255C5.37999 28.3666 5.29265 28.2443 5.04811 28.1046C4.6813 27.895 4.26208 27.9299 3.98261 27.9998C3.65073 28.0696 3.23151 28.1395 2.74243 28.1395C2.13108 28.1395 0.646364 27.4757 0.209683 27.9124C-0.226998 28.3491 0.401823 29.8164 0.41929 30.3578C0.41929 30.8644 0.366888 31.3185 0.314487 31.6854C0.244618 31.9648 0.209683 32.384 0.41929 32.7509C0.559028 32.9954 0.698766 33.0827 1.24025 33.4495C1.5896 33.6766 2.00881 33.9212 2.32322 34.3404C2.65509 34.7945 2.72496 35.2661 2.82977 35.6679C2.93457 36.0696 3.05684 36.419 3.26645 36.6111C3.45859 36.8207 3.8254 36.943 4.20968 37.0478C4.61143 37.1701 5.06558 37.2399 5.53719 37.5544C5.95641 37.8862 6.20095 38.288 6.42802 38.6373C6.65509 38.9867 6.8647 39.3185 7.12671 39.4583C7.40619 39.6155 7.79047 39.6155 8.19221 39.5631C8.59396 39.5282 9.03064 39.4233 9.51972 39.4583C10.2359 39.4757 11.511 40.122 11.9477 39.6504Z"
      />
      <path
        d="M36.0345 18.6897C36.0171 18.3579 35.7551 17.8513 35.6153 17.3796L33.5717 11.7552C33.2398 10.8294 32.9079 9.85126 32.576 8.9779C32.2267 8.15694 31.5455 7.47572 30.7245 7.1089L25.1524 5.01283L22.3577 3.94733C21.8861 3.79013 21.4145 3.52812 21.0127 3.51065C20.5935 3.47572 20.1568 3.63292 19.8424 3.94733C16.9778 6.72462 14.1132 9.50192 11.3359 12.3491C9.93849 13.7639 8.54111 15.1962 7.17866 16.646L6.63718 17.2224C6.63718 17.2224 8.34897 17.8688 8.94285 18.1133C10.1481 18.5849 11.3359 19.074 12.5236 19.5806C13.7114 20.0871 14.8817 20.6111 16.0695 21.1876C17.2747 21.7814 18.3227 22.7421 18.8468 23.9474C18.1131 23.0216 16.9603 22.4103 15.79 21.9561C14.6022 21.502 13.3446 21.0828 12.1219 20.7159C10.8817 20.3491 9.65901 19.9649 8.4363 19.5631C7.82495 19.371 7.21359 19.1614 6.60224 18.9518C6.20049 18.812 5.88608 18.8819 5.60661 19.1264C5.3446 19.371 5.20486 19.7028 5.27473 20.0522C5.2922 20.0871 5.2922 20.1395 5.30966 20.1919L5.37953 20.419L5.53674 20.8731L5.85115 21.7814C6.04329 22.3579 6.23543 22.9518 6.42757 23.5282C6.79438 23.3186 7.14373 23.1264 7.51054 22.9343C7.75508 22.7945 8.10442 22.6199 8.45377 22.5675C8.80311 22.5151 9.13499 22.4976 9.5018 22.6373C10.0782 22.8819 10.6546 23.1264 11.2136 23.4059C12.3315 23.9649 13.3621 24.681 14.3053 25.5194C15.2485 26.3579 16.052 27.371 16.6459 28.5063C16.9429 29.0653 17.1874 29.6766 17.397 30.2531C17.5367 30.6373 17.5367 31.0391 17.4319 31.4408C17.3795 31.6155 17.2747 31.8426 17.1874 31.9649L16.9603 32.3666C16.6284 32.9081 16.2966 33.4496 15.9647 33.9736C16.7856 34.3055 17.6241 34.6024 18.4625 34.9168C18.9341 35.074 19.3882 35.3186 19.8599 35.3535C20.3489 35.3884 20.838 35.1963 21.1874 34.8469C23.9996 32.0173 26.742 29.1352 29.4843 26.2181C30.8468 24.7683 32.2441 23.336 33.6241 21.9037L35.7201 19.7727C35.9123 19.4583 36.052 19.074 36.0345 18.6897ZM25.4319 27.6504L20.6459 32.8731L22.9516 23.895L25.8162 22.9692L26.2703 18.8993L29.0651 18.2531L31.6503 9.10017L33.7289 18.4627L25.4319 27.6504Z"
      />
    </symbol>
    <symbol id="rocket" viewBox="0 0 46 47" fill="none">
      <rect x="3" y="3.65405" width="40" height="40" rx="20" fill="#FFEBEB" />
      <path
        d="M23.833 22.8206L15.9164 30.7373M24.6817 16.6027C25.6967 17.2762 26.6723 18.0702 27.584 18.9819C28.5035 19.9014 29.3034 20.886 29.9806 21.9104M20.7122 20.2341L18.3164 19.4355C18.0405 19.3436 17.7367 19.4021 17.5146 19.5899L15.1337 21.6046C14.6462 22.017 14.7847 22.802 15.3839 23.0227L17.6399 23.8539M22.7339 28.9477L23.5651 31.2037C23.7858 31.8029 24.5707 31.9414 24.9832 31.4539L26.9978 29.073C27.1857 28.851 27.2442 28.5471 27.1522 28.2712L26.3537 25.8754M29.1235 15.5462L25.0348 16.2277C24.5933 16.3013 24.1883 16.5183 23.8826 16.8452L18.3717 22.7361C16.9432 24.2631 16.9829 26.6477 18.4615 28.1263C19.94 29.6048 22.3247 29.6446 23.8516 28.2161L29.7426 22.7052C30.0695 22.3994 30.2865 21.9945 30.3601 21.553L31.0415 17.4642C31.2295 16.3362 30.2516 15.3582 29.1235 15.5462Z"
        stroke="#EE3535"
        stroke-width="1.66667"
        stroke-linecap="round"
        stroke-linejoin="round"
      />
      <rect x="3" y="3.65405" width="40" height="40" rx="20" stroke="#FFF5F5" stroke-width="6" />
    </symbol>
    <symbol id="scale" viewBox="0 0 32 32" stroke="currentcolor">
      <path
        d="M21.333 21.3334L25.333 10.6667L29.333 21.3334C28.173 22.2 26.773 22.6667 25.333 22.6667C23.893 22.6667 22.493 22.2 21.333 21.3334Z"
        stroke-width="2"
        stroke-linecap="round"
        stroke-linejoin="round"
        fill="none"
      />
      <path
        d="M2.66699 21.3334L6.66699 10.6667L10.667 21.3334C9.50699 22.2 8.10699 22.6667 6.66699 22.6667C5.22699 22.6667 3.82699 22.2 2.66699 21.3334Z"
        stroke-width="2"
        stroke-linecap="round"
        stroke-linejoin="round"
        fill="none"
      />
      <path d="M9.33301 28H22.6663" stroke-width="2" stroke-linecap="round" stroke-linejoin="round" fill="none" />
      <path d="M16 4V28" stroke-width="2" stroke-linecap="round" stroke-linejoin="round" fill="none" />
      <path
        d="M4 9.33335H6.66667C9.33333 9.33335 13.3333 8.00002 16 6.66669C18.6667 8.00002 22.6667 9.33335 25.3333 9.33335H28"
        stroke-width="2"
        stroke-linecap="round"
        stroke-linejoin="round"
        fill="none"
      />
    </symbol>
    <symbol id="settings" viewBox="0 0 46 47" fill="none">
      <rect x="3" y="3.65405" width="40" height="40" rx="20" fill="#FFEBEB" />
      <path
        d="M15.5 20.3208L25.5 20.3208M25.5 20.3208C25.5 21.7015 26.6193 22.8208 28 22.8208C29.3807 22.8208 30.5 21.7015 30.5 20.3208C30.5 18.9401 29.3807 17.8208 28 17.8208C26.6193 17.8208 25.5 18.9401 25.5 20.3208ZM20.5 26.9875L30.5 26.9875M20.5 26.9875C20.5 28.3682 19.3807 29.4875 18 29.4875C16.6193 29.4875 15.5 28.3682 15.5 26.9875C15.5 25.6068 16.6193 24.4875 18 24.4875C19.3807 24.4875 20.5 25.6068 20.5 26.9875Z"
        stroke="#EE3535"
        stroke-width="1.66667"
        stroke-linecap="round"
        stroke-linejoin="round"
      />
      <rect x="3" y="3.65405" width="40" height="40" rx="20" stroke="#FFF5F5" stroke-width="6" />
    </symbol>
    <symbol id="shapeshift" viewBox="0 0 52 57" fill="currentcolor">
      <path
        d="M51.4466 0.246416L33.6952 7.28509H17.1814L0.242188 0.169067L4.07092 23.4122L0.396883 35.9812L10.0267 41.7436C14.5903 44.4508 18.651 47.8928 22.1704 51.8763L25.9217 56.1691L29.8665 51.6442C33.2311 47.7768 37.1759 44.4508 41.5461 41.7823L50.9825 35.9812L47.5792 23.4122L51.4466 0.246416ZM39.7284 39.4619C36.5184 41.4343 33.5405 43.7934 30.8333 46.3845L27.5461 42.8265L39.7284 39.4619ZM24.1427 42.7879L20.9328 46.3459C18.2256 43.7547 15.209 41.4729 11.9991 39.5006L24.1427 42.7879ZM20.9715 38.9204L3.91622 34.2796L6.23666 26.3127L20.9715 38.9204ZM14.5516 9.37349L6.46871 19.9315L3.99357 4.92597L14.5516 9.37349ZM42.2035 24.9591L25.8444 39.2298L9.17589 24.9591H42.2035ZM8.5571 22.0199L17.6068 10.1856H33.3085L43.3637 22.0199H8.5571ZM45.2974 26.1193L47.5019 34.2796L30.64 38.9204L45.2974 26.1193ZM47.6952 4.84863L45.2201 19.7381L36.4024 9.37349L47.6952 4.84863Z"
      />
    </symbol>
    <symbol id="sherlock" viewBox="0 0 57 57" fill="currentcolor">
      <path
        fill-rule="evenodd"
        clip-rule="evenodd"
        d="M0.844727 0.770264H56.8447V56.2439H0.844727V0.770264ZM45.9372 15.187L52.4584 15.0992C53.0432 15.0992 53.5988 15.6256 53.6281 16.1812C53.6281 16.7661 53.1894 17.2925 52.5753 17.2925H50.6745H47.8672C46.2881 17.2925 44.9137 17.9066 43.861 18.8716L43.2469 19.5442L40.2056 22.6146L37.6322 25.305C37.6322 25.3927 37.5738 25.4512 37.4861 25.5389L37.486 25.5389L25.3795 38.1426C25.308 38.2212 25.2278 38.312 25.1406 38.4108C24.8709 38.7163 24.5341 39.0978 24.1806 39.4293C23.508 40.1019 22.8939 40.716 22.5137 41.0084C22.3994 41.0465 22.2975 41.1218 22.1999 41.194C22.1477 41.2326 22.0968 41.2702 22.0458 41.3008C20.8469 42.3535 18.7999 43.0261 16.6067 43.0261C14.4135 43.0261 12.4542 42.3536 11.1675 41.3885C10.7289 41.0669 10.2025 40.6282 9.7346 39.9556C9.50066 39.6632 9.35444 39.4293 9.20823 39.1368C8.97429 38.8152 8.82807 38.3765 8.68186 37.8502C8.66236 37.7722 8.63962 37.7039 8.61796 37.639C8.57463 37.509 8.53564 37.392 8.53564 37.2361C8.53564 37.2027 8.52299 37.1525 8.50729 37.0903C8.48166 36.9886 8.44792 36.8548 8.44792 36.7097V36.5635V36.4173V35.8909V35.7447V34.9844V33.8731L8.36019 24.9541C8.36019 24.2815 8.88656 23.7551 9.55914 23.7551L23.0986 23.6089C23.7712 23.6089 24.2975 24.1353 24.2975 24.8079V30.2763L37.3106 20.3045C37.3106 20.2167 37.3983 20.2167 37.3983 20.2167L42.1649 16.5321C43.0714 15.8011 44.2704 15.2747 45.6448 15.187H45.9372Z"
      />
    </symbol>
    <symbol id="snapshot" viewBox="0 0 40 48" fill="currentcolor">
      <path
        d="M39.917 20.868C39.7223 20.3467 39.2236 20 38.6663 20H22.5663L31.8529 1.944C32.1449 1.376 31.9942 0.681333 31.4916 0.286667C31.2489 0.0946667 30.9569 0 30.6662 0C30.3556 0 30.0449 0.109333 29.7956 0.324L19.9997 8.784L0.462446 25.6573C0.0411151 26.0213 -0.110884 26.6093 0.0837814 27.1307C0.278447 27.652 0.775775 28 1.3331 28H17.433L8.1464 46.056C7.8544 46.624 8.00507 47.3185 8.50773 47.7131C8.7504 47.9051 9.0424 48 9.33307 48C9.64373 48 9.95436 47.8907 10.2037 47.6758L19.9997 39.216L39.5368 22.3427C39.9596 21.9787 40.1101 21.3907 39.917 20.868Z"
      />
    </symbol>
    <symbol id="telescope" viewBox="0 0 32 32" fill="currentcolor">
      <path
        d="M31.9258 11.1719L27.3098 0.532864C27.1148 0.0796582 26.5932 -0.120535 26.14 0.0744414L21.6187 2.03994C21.4027 2.13482 20.8968 2.46673 21.1603 3.20979L21.4133 3.78943L4.90939 12.6789C4.51944 12.8844 4.35079 13.3535 4.49841 13.7644L0.535708 15.4823C-0.149317 15.8406 -0.0175942 16.4414 0.0772856 16.6522L1.56325 20.0721C1.97953 20.794 2.62241 20.5832 2.7331 20.5305L6.70102 18.8126C6.85385 19.113 7.15944 19.3027 7.48614 19.3027C7.58102 19.3027 15.833 16.5362 15.833 16.5362V18.8284H13.4037C12.9137 18.8284 12.5132 19.2236 12.5132 19.719C12.5132 20.209 12.9085 20.6095 13.4037 20.6095H14.1362L9.62558 30.7584C9.42531 31.2063 9.62029 31.7543 10.0788 31.9283C10.4424 32.0705 11.022 31.9915 11.2486 31.4751L15.833 21.1523V28.9194C15.833 29.4095 16.2282 29.81 16.7236 29.81C17.2136 29.81 17.6141 29.4147 17.6141 28.9194V21.1576L22.1985 31.4804C22.4145 31.9125 22.8993 32.1128 23.3683 31.9336C23.8267 31.7649 24.0165 31.2116 23.8215 30.7637L19.3109 20.6148H20.0276C20.5176 20.6148 20.9181 20.2196 20.9181 19.7243C20.9181 19.2342 20.5229 18.8337 20.0276 18.8337H17.5983V15.9355L25.5078 13.2639L25.7607 13.8435C25.9029 14.1755 26.2771 14.4759 26.9305 14.3019L31.4518 12.3364C31.9205 12.152 32.1208 11.6251 31.9258 11.1719ZM2.8385 18.5491L2.06389 16.7628L5.20446 15.398L5.97907 17.1843L2.8385 18.5491ZM7.97089 17.3108L6.47963 13.8698L6.47434 13.8487L22.1193 5.42284L24.812 11.625L7.97089 17.3108ZM27.0516 12.3259L23.1416 3.32041L26.0399 2.06097L29.9498 11.0665L27.0516 12.3259Z"
      />
    </symbol>
    <symbol id="tube" viewBox="0 0 32 32" fill="currentcolor">
      <path
        d="M16 0C7.1635 0 0 7.1635 0 16C0 24.8365 7.1635 32 16 32C24.8365 32 32 24.8365 32 16C32 7.1635 24.8365 0 16 0ZM20 2.593C24.507 3.9365 28.0515 7.493 29.397 12H22.9105C22.2087 10.7948 21.2058 9.79268 20 9.09197V2.593ZM21.9885 16.0065C21.9885 19.317 19.3075 22.0005 16 22.0005C12.6925 22.0005 10.0115 19.317 10.0115 16.0065C10.0115 12.696 12.693 10.012 16 10.012C19.307 10.012 21.9885 12.696 21.9885 16.0065ZM14 2.154C14.6535 2.0605 15.3205 2.0095 16 2.0095C16.679 2.0095 17.3465 2.0605 18 2.154V8.273C17.36 8.1075 16.692 8.0105 16 8.0105C15.308 8.0105 14.6405 8.1075 14 8.273V2.154ZM12 2.593V9.092C10.795 9.7915 9.79003 10.7965 9.08953 12H2.60303C3.94803 7.493 7.49303 3.93653 12 2.593ZM2.00953 16.005C2.00953 15.323 2.0675 14.6559 2.16203 13.9999H8.26803C8.10203 14.6409 8.01053 15.3119 8.01053 16.0054C8.01053 16.6949 8.10153 17.3625 8.26553 18H2.16053C2.06756 17.3475 2.00953 16.683 2.00953 16.005ZM12 29.4164C7.4895 28.0724 3.94353 24.5109 2.60003 19.9999H9.08353C9.78453 21.2079 10.7915 22.217 12 22.9185V29.4165V29.4164ZM18 29.8554C17.3465 29.9489 16.679 29.9999 16 29.9999C15.3205 29.9999 14.6535 29.9484 14 29.8554V23.7374C14.6405 23.9029 15.308 23.9999 16 23.9999C16.692 23.9999 17.36 23.9029 18 23.7374V29.8554ZM20 29.4164V22.9184C21.208 22.2169 22.2156 21.2079 22.9161 19.9999H29.3996C28.056 24.5104 24.5101 28.0724 20.0001 29.4164L20 29.4164ZM23.7345 17.9999C23.8985 17.3624 23.9895 16.6949 23.9895 16.0054C23.9895 15.3119 23.898 14.6409 23.7315 13.9999H29.838C29.932 14.6559 29.9905 15.3229 29.9905 16.0049C29.9905 16.6829 29.933 17.3479 29.8395 17.9999H23.7345Z"
      />
    </symbol>
    <symbol id="twitter" viewBox="0 0 22 22" fill="currentcolor">
      <path
        d="M11 0.5C5.20156 0.5 0.5 5.20156 0.5 11C0.5 16.7984 5.20156 21.5 11 21.5C16.7984 21.5 21.5 16.7984 21.5 11C21.5 5.20156 16.7984 0.5 11 0.5ZM16.0461 8.41484C16.0531 8.525 16.0531 8.63984 16.0531 8.75234C16.0531 12.193 13.4328 16.1562 8.64453 16.1562C7.16797 16.1562 5.79922 15.7273 4.64609 14.9891C4.85703 15.0125 5.05859 15.0219 5.27422 15.0219C6.49297 15.0219 7.61328 14.6094 8.50625 13.9109C7.3625 13.8875 6.40156 13.1375 6.07344 12.1063C6.47422 12.1648 6.83516 12.1648 7.24766 12.0594C6.65873 11.9397 6.12939 11.6199 5.74957 11.1542C5.36974 10.6885 5.16286 10.1056 5.16406 9.50469V9.47187C5.50859 9.66641 5.91406 9.78594 6.33828 9.80234C5.98166 9.56467 5.6892 9.24268 5.48682 8.86491C5.28445 8.48715 5.17841 8.06528 5.17813 7.63672C5.17813 7.15156 5.30469 6.70859 5.53203 6.32422C6.18571 7.12891 7.0014 7.78705 7.92609 8.25586C8.85078 8.72466 9.86377 8.99364 10.8992 9.04531C10.5312 7.27578 11.8531 5.84375 13.4422 5.84375C14.1922 5.84375 14.8672 6.15781 15.343 6.66406C15.9312 6.55391 16.4937 6.33359 16.9953 6.03828C16.8008 6.64062 16.393 7.14922 15.8516 7.47031C16.3766 7.41406 16.8828 7.26875 17.3516 7.06484C16.9977 7.58516 16.5547 8.04688 16.0461 8.41484Z"
      />
    </symbol>
    <symbol id="uma-logo" viewBox="0 0 63 16" fill="currentcolor">
      <path
        fill-rule="evenodd"
        clip-rule="evenodd"
        d="M39.9692 15.6873H37.3335C36.8384 15.6873 36.4372 15.2849 36.4372 14.7891V7.80869L31.8106 10.7159C31.4225 10.9599 30.9289 10.9599 30.5408 10.7159L25.9143 7.80839V14.7891C25.9143 15.2849 25.5127 15.6873 25.0179 15.6873H22.3822C21.8868 15.6873 21.4858 15.2849 21.4858 14.7891V1.33507C21.4858 0.371693 22.5633 -0.197413 23.3563 0.347144L30.6692 5.36731C30.9743 5.57717 31.3771 5.57717 31.6825 5.36731L38.9948 0.347144C39.7881 -0.197712 40.8656 0.371393 40.8656 1.33477V14.7891C40.8656 15.2849 40.4643 15.6873 39.9692 15.6873Z"
      />
      <path
        fill-rule="evenodd"
        clip-rule="evenodd"
        d="M17.5172 15.5673L1.18946 15.567C0.532581 15.567 0 15.0331 0 14.3745V0.894417C0 0.400401 0.399361 0 0.892096 0H3.51515C4.00759 0 4.40725 0.400401 4.40725 0.894417V11.1483L14.2994 11.1486V0.894417C14.2994 0.400401 14.6985 0 15.1915 0H17.8146C18.307 0 18.7066 0.400401 18.7066 0.894417V14.3748C18.7066 15.0334 18.1741 15.5673 17.5172 15.5673Z"
      />
      <path
        fill-rule="evenodd"
        clip-rule="evenodd"
        d="M44.7998 0L61.1275 0.000298139C61.7844 0.000298139 62.317 0.534265 62.317 1.19285V14.6729C62.317 15.1669 61.9173 15.5673 61.4249 15.5673H58.8019C58.3091 15.5673 57.9098 15.1669 57.9098 14.6729V5.0153C57.9098 4.68615 57.6433 4.41902 57.315 4.41902L48.6123 4.41872C48.284 4.41872 48.0176 4.68555 48.0176 5.015V14.6729C48.0176 15.1669 47.6182 15.5673 47.1255 15.5673H44.5024C44.0097 15.5673 43.6104 15.1669 43.6104 14.6729V1.19256C43.6104 0.533967 44.1429 0 44.7998 0Z"
      />
      <path
        fill-rule="evenodd"
        clip-rule="evenodd"
        d="M50.7588 8.19314V10.8469C50.7588 11.3377 51.1585 11.7354 51.6516 11.7354H54.2745C54.7677 11.7354 55.1674 11.3377 55.1674 10.8469V8.19314C55.1674 7.70242 54.7677 7.30469 54.2745 7.30469H51.6516C51.1585 7.30469 50.7588 7.70242 50.7588 8.19314Z"
      />
    </symbol>
    <symbol id="wand" viewBox="0 0 32 32" fill="currentcolor">
      <path
        d="M31.8909 13.418L28.679 8.61554L30.2775 3.02754C30.377 2.67704 30.2795 2.30004 30.0205 2.04304C29.7625 1.78504 29.3875 1.68957 29.035 1.79207L23.4565 3.42107L18.635 0.174038C18.3315 -0.0299929 17.9425 -0.0544929 17.6205 0.113507C17.2964 0.279507 17.0884 0.609476 17.0764 0.972976L16.9034 6.78348L12.3254 10.3645C12.0385 10.589 11.8969 10.9525 11.9544 11.312C12.0119 11.6715 12.2609 11.9709 12.6049 12.0939L16.9004 13.6339C16.8714 13.6569 16.8409 13.6775 16.8139 13.7045L0.227934 30.2905C-0.162566 30.681 -0.162566 31.314 0.227934 31.7045C0.423434 31.9 0.678933 31.9975 0.934933 31.9975C1.19093 31.9975 1.44643 31.9 1.64193 31.7045L18.2279 15.1185C18.2925 15.054 18.3424 14.981 18.3854 14.9055L20.0664 19.5165C20.1279 19.6845 20.2332 19.8329 20.3714 19.9464C20.5096 20.0599 20.6757 20.1344 20.8524 20.162C20.9034 20.17 20.9549 20.1735 21.0059 20.1735C21.1587 20.1734 21.3093 20.1383 21.4464 20.0709C21.5835 20.0036 21.7034 19.9058 21.7969 19.785L25.3524 15.186L31.0994 14.981C31.4639 14.9685 31.7919 14.7585 31.9569 14.433C32.1214 14.1085 32.0959 13.719 31.8909 13.418L31.8909 13.418ZM24.814 13.2045C24.517 13.2145 24.24 13.3571 24.058 13.5921L21.3245 17.1266L19.794 12.9291C19.6925 12.6496 19.4715 12.4311 19.1915 12.3306L14.9855 10.8226L18.505 8.07057C18.7395 7.88707 18.879 7.60957 18.889 7.31257L19.022 2.84557L22.728 5.34157C22.8499 5.42325 22.9881 5.4773 23.133 5.49992C23.278 5.52255 23.4261 5.5132 23.5671 5.47254L27.8561 4.21957L26.6266 8.51557C26.5865 8.65683 26.5779 8.80514 26.6013 8.95009C26.6247 9.09503 26.6796 9.23309 26.7621 9.35457L29.2796 13.0461L24.814 13.2045Z"
      />
    </symbol>
    <symbol id="zap" viewBox="0 0 56 57" fill="none">
      <rect x="4" y="4.65405" width="48" height="48" rx="24" fill="#FFEBEB" />
      <path
        d="M29.0001 18.6541L20.0936 29.3419C19.7448 29.7605 19.5703 29.9698 19.5677 30.1465C19.5654 30.3002 19.6338 30.4464 19.7534 30.5429C19.8909 30.6541 20.1633 30.6541 20.7081 30.6541H28.0001L27.0001 38.6541L35.9067 27.9662C36.2555 27.5476 36.4299 27.3383 36.4325 27.1616C36.4348 27.0079 36.3664 26.8617 36.2468 26.7652C36.1094 26.6541 35.8369 26.6541 35.2921 26.6541H28.0001L29.0001 18.6541Z"
        stroke="#FF4A4A"
        stroke-width="2"
        stroke-linecap="round"
        stroke-linejoin="round"
      />
      <rect x="4" y="4.65405" width="48" height="48" rx="24" stroke="#FFF5F5" stroke-width="8" />
    </symbol>
    <symbol
      id="x"
      viewBox="0 0 24 25"
      fill="none"
      stroke="currentcolor"
      stroke-width="2"
      stroke-linecap="round"
      stroke-linejoin="round"
    >
      <path d="M17 7.5L7 17.5M7 7.5L17 17.5" />
    </symbol>
    <symbol id="info" viewBox="0 0 22 22" fill="none" stroke="currentcolor">
      <path
        d="M11 15V11M11 7H11.01M21 11C21 16.5228 16.5228 21 11 21C5.47715 21 1 16.5228 1 11C1 5.47715 5.47715 1 11 1C16.5228 1 21 5.47715 21 11Z"
        stroke-width="2"
        stroke-linecap="round"
        stroke-linejoin="round"
      />
    </symbol>
    <symbol id="check-circle" viewBox="0 0 24 24" fill="none" stroke="currentcolor">
      <path
        d="M7.5 12L10.5 15L16.5 9M22 12C22 17.5228 17.5228 22 12 22C6.47715 22 2 17.5228 2 12C2 6.47715 6.47715 2 12 2C17.5228 2 22 6.47715 22 12Z"
        stroke-width="2"
        stroke-linecap="round"
        stroke-linejoin="round"
      />
    </symbol>
    <symbol id="check" viewBox="0 0 24 24" fill="none" stroke="currentcolor">
      <path d="M20 6L9 17L4 12" stroke-width="2" stroke-linecap="round" stroke-linejoin="round" />
    </symbol>
    <symbol id="lines" viewBox="0 0 20 21" fill="none" stroke="currentcolor">
      <path d="M14.1667 5.95117H2.5" stroke-width="2" stroke-linecap="round" stroke-linejoin="round" />
      <path d="M17.5 10.9512H2.5" stroke-width="2" stroke-linecap="round" stroke-linejoin="round" />
      <path d="M12.5833 15.8679H2.5" stroke-width="2" stroke-linecap="round" stroke-linejoin="round" />
    </symbol>
    <symbol id="external-link" fill="none" viewBox="0 0 21 21" stroke="currentcolor">
      <path
        stroke-linecap="round"
        stroke-linejoin="round"
        stroke-width="2"
        d="M15.5 10.99v5a1.666 1.666 0 0 1-1.667 1.667H4.667A1.667 1.667 0 0 1 3 15.99V6.824a1.667 1.667 0 0 1 1.667-1.667h5M13 2.657h5v5M8.833 11.824 18 2.657"
      />
    </symbol>
    <symbol id="connext" viewBox="0 0 1200 300">
      <path
        d="M406.9 159.8v-6.9c0-19.9 6.7-32.2 23.1-32.2 13.8 0 20.3 8.6 20.3 22h26.5V138c0-23.1-15.1-41.7-47.5-41.7-35.2 0-50.5 23.7-50.5 56.5v6.9c0 32.6 15.3 56.5 50.5 56.5 32.4 0 47.5-18.1 47.5-39.9v-4.5h-26.5c0 11.2-6 19.9-20.3 19.9-16.5.1-23.1-12.2-23.1-31.9zM544 216.4c35.8 0 51.8-24 51.8-56.5V153c0-32.8-16-56.5-51.8-56.5s-51.8 23.7-51.8 56.5v6.9c0 32.5 16 56.5 51.8 56.5zm0-24.6c-16.4 0-23.7-12.3-23.7-31.9V153c0-19.9 7.3-32.2 23.7-32.2s23.7 12.3 23.7 32.2v6.9c0 19.6-7.3 31.9-23.7 31.9zm170 21.8v-78.3c0-20.7-10.1-38.9-35.2-38.9-18.1 0-30 7.6-37.1 17.9l-2.6-15.1h-24.8l1.9 32.4v82h28.1V134c3.2-5.4 10.6-13.2 23.7-13.2 12.7 0 18.1 8 18.1 19v73.8H714zm121.6 0v-78.3c0-20.7-10.1-38.9-35.2-38.9-18.1 0-30 7.6-37.1 17.9l-2.6-15.1h-24.8l1.9 32.4v82h28.1V134c3.2-5.4 10.6-13.2 23.7-13.2 12.7 0 18.1 8 18.1 19v73.8h27.9zm122.7-46.9v-13.2c0-32.6-16-57.2-51.2-57.2-35.4 0-52.4 24.6-52.4 57.2v5.6c0 32.6 16.6 57.2 53.5 57.2 32.8 0 50.1-18.1 50.1-38.6v-.9h-26.5c0 8.6-8 17.7-23.3 17.7-16 0-24.6-9.1-25.7-27.8h75.5zm-51.8-48.5c15.3 0 22.7 9.7 23.5 27.8h-47.3c1.2-18.1 8.7-27.8 23.8-27.8zm63.9-19 31.1 55.9-31.1 58.5h31.9l21.6-44 21.8 44h31.9l-31.1-58.5 31.1-55.9H1045l-20.9 41.2-21.1-41.2h-32.6zm161.9 0V66.8h-28.1v32.4h-47.5v24.6h47.5v52.4c0 29.6 16.4 40.1 39.9 40.1 10.1 0 16-1.9 17.7-2.8v-23.3c-1.3.6-6.9 1.5-11 1.5-11.7 0-18.6-3.2-18.6-18.6v-49.4h31.7V99.2h-31.6z"
        fill="currentColor"
      />
      <path
        d="m174.9 98.4-27.3-27.3-16.4-16.4.2-.2c-6.5-6.5-15.8-10.1-24.8-1.1-7.9 7.9-5.3 16.6-.6 22.5l-48.7 48.3c-20.1 20.5-12.2 41.4 1.8 55.4L99.4 220c3.6 3.6 17.6 18.3 28.8 6.8 6.5-6.5 5-16.5 1.4-20.5l-46.4-46c-8.3-8.3-4.3-15.8 4-23.7L126.7 97l24.8 24.8c8.6 8.6 19.4 11.9 28.4 2.9s3.6-17.6-5-26.3z"
        fill="#29c1fc"
      />
      <path
        d="m281.4 117.5-40.3-39.9c-3.6-3.6-17.6-18.3-28.8-6.8-6.5 6.5-5 16.5-1.4 20.5l46.4 46c8.3 8.3 4.3 15.8-4 23.7l-39.6 39.6-24.8-24.8c-8.6-8.6-19.4-11.9-28.4-2.9s-3.6 17.6 5 26.3l27.3 27.3 16.4 16.4-.2.2c6.5 6.5 15.8 10.4 24.8 1.4 8-8 5.2-16.8.4-22.7l48.9-48.9c20.6-20.5 12.7-41.4-1.7-55.4z"
        fill="#9c62f9"
      />
    </symbol>

    <symbol id="cow-swap" viewBox="0 0 1428 201" fill="none">
      <path
        fill-rule="evenodd"
        clip-rule="evenodd"
        d="M155.978 15.423c11.827-2.176 56.063-10.316 58.032 3.557 2.02 14.208-16.21 33.801-35.283 42.607-1.006.464-1.898 1.104-2.793 1.744-.742.532-1.486 1.065-2.296 1.499-3.002 1.61-4.792 5.63-4.351 9.255v50.762c-15.04-10.428-37.148-16.918-62.204-16.918-25.057 0-47.164 6.49-62.204 16.918V74.085c.44-3.626-1.35-7.645-4.353-9.255-.808-.434-1.55-.965-2.292-1.496-.896-.642-1.79-1.282-2.796-1.747C16.364 52.781-1.864 33.187.153 18.98c1.971-13.874 46.218-5.732 58.038-3.556.94.173 1.675.308 2.168.392.343.057.662-.231.594-.566-.681-3.357-1.173-12.431 5.35-14.396 4.169-1.257 6.917 1.062 8.548 3.402.73 1.05 2.916 5.588 4.274 8.738.733 1.701 2.439 4.187 4.311 4.143 7.86-2.412 15.754-3.618 23.647-3.618 7.893 0 15.787 1.206 23.645 3.618 1.874.044 3.579-2.442 4.311-4.143 1.358-3.15 3.544-7.688 4.274-8.738 1.632-2.34 4.381-4.66 8.55-3.402 6.521 1.965 6.029 11.04 5.35 14.396-.07.335.25.623.593.566.493-.084 1.229-.22 2.172-.393Zm-58.288 56.2c.218-1.284-1.877-4.543-8.42-8.966a54.486 54.486 0 0 0-15.002-6.973c-1.25-.364-2.55-.6-3.853-.555-2.377.088-4.654.888-6.65 2.304-2.666 1.825-4.512 4.26-5.07 7.411-.57 3.148.321 6.06 2.192 8.675 1.384 2.003 3.247 3.522 5.45 4.405 1.208.486 2.513.7 3.814.78a54.928 54.928 0 0 0 16.515-1.494c7.683-1.952 10.782-4.307 11.025-5.586Zm50.138 6.301c2.203-.883 4.066-2.402 5.45-4.405 1.871-2.615 2.762-5.526 2.191-8.674-.556-3.15-2.403-5.587-5.068-7.412-1.996-1.416-4.274-2.217-6.651-2.304-1.302-.046-2.603.19-3.853.555a54.475 54.475 0 0 0-15.001 6.973c-6.544 4.423-8.638 7.68-8.422 8.966.242 1.279 3.341 3.635 11.025 5.587a54.928 54.928 0 0 0 16.515 1.494c1.301-.08 2.606-.294 3.814-.78Z"
        fill="currentColor"
      />
      <path
        fill-rule="evenodd"
        clip-rule="evenodd"
        d="M32.978 158.437c0-23.231 33.177-42.063 74.105-42.063 40.927 0 74.106 18.832 74.106 42.063S148.01 200.5 107.083 200.5c-40.928 0-74.105-18.832-74.105-42.063Zm25.651-2.618c1.133 6.917 7.037 9.967 13.379 6.917 6.185-2.87 10.262-8.864 10.61-15.593-.028-3.566-1.942-2.197-4.307-.506-3.162 2.261-7.128 5.096-8.461-2.523-2.33-13.317-12.462 4.295-11.22 11.705Zm83.527 6.917c6.34 3.05 12.245 0 13.379-6.917 1.239-7.41-8.891-25.022-11.221-11.705-1.334 7.62-5.301 4.783-8.462 2.523-2.364-1.691-4.278-3.059-4.304.506.344 6.729 4.422 12.723 10.608 15.593Z"
        fill="currentColor"
      />
      <path
        d="M291.783 81.424c4.568-4.027 12.395-6.043 23.483-6.043h96.315c11.103 0 20.103-9.3 20.103-20.774 0-11.473-9-20.774-20.103-20.774h-94.67c-52.634 0-78.951 22.096-78.951 66.288v1.511c0 21.657 6.424 37.992 19.281 49.007 12.852 11.018 32.742 16.525 59.67 16.525h94.67c11.103 0 20.103-9.301 20.103-20.774s-9-20.774-20.103-20.774h-96.315c-10.964 0-18.764-2.013-23.393-6.043-4.632-4.027-6.945-10.07-6.945-18.129v-1.511c0-8.31 2.284-14.477 6.855-18.509ZM609.026 34.398l-22.9 40.985h11.498c11.085 0 18.916 2.017 23.485 6.044 4.568 4.032 6.853 10.198 6.853 18.508v1.511c0 8.059-2.316 14.102-6.945 18.13-4.633 4.03-12.427 6.043-23.393 6.043h-39.565l-23.214 41.548h61.134c26.925 0 46.815-5.507 59.671-16.526 12.852-11.015 19.282-27.35 19.282-49.006v-1.511c0-40.353-22.018-62.221-65.906-65.726ZM568.099 75.381l23.214-41.548h-59.106c-52.634 0-78.951 22.096-78.951 66.288v1.511c0 21.657 6.425 37.992 19.282 49.007 10.323 8.85 25.267 14.081 44.673 15.822l22.821-40.845h-9.469c-10.965 0-18.764-2.013-23.393-6.043-4.632-4.027-6.945-10.07-6.945-18.129v-1.511c0-8.31 2.284-14.477 6.854-18.509 4.569-4.027 12.395-6.043 23.484-6.043M957.29 33.833c-7.674 0-14.846 3.944-19.132 10.522L915.433 79.23c-8.665 13.298-27.308 14.141-37.065 1.677L854.112 49.92c-9.232-11.793-26.634-11.793-35.865 0L793.99 80.907c-9.756 12.464-28.399 11.62-37.064-1.677l-22.725-34.875c-4.287-6.578-11.458-10.522-19.132-10.522-18.551 0-29.511 21.48-19.032 37.298l56.758 85.664c8.743 13.196 27.334 13.925 37.02 1.452l28.376-36.54c9.232-11.89 26.745-11.89 35.977 0l28.376 36.54c9.686 12.473 28.277 11.744 37.02-1.452l56.758-85.664c10.479-15.817-.481-37.298-19.032-37.298ZM1054.8 163.493c21 0 40.66-11.886 40.66-34.319 0-22.768-17.23-28.46-37.64-36.412-15.23-5.86-26.11-9.96-26.02-21.68.08-11.384 10.29-17.661 21.58-17.661 9.2 0 19.91 3.934 29.62 11.886l8.95-11.552c-11.55-9.207-25.02-14.313-38.49-14.23-20.83.084-37.14 13.98-37.14 32.227 0 21.01 18.32 28.795 36.31 35.491 16.23 6.111 27.27 9.794 27.27 23.521 0 11.635-10.04 18.583-24.93 18.583-11.88 0-24.93-5.274-33.8-16.155l-9.45 11.467c12.13 12.975 27.86 18.834 43.08 18.834ZM1213.33 79.034l-21.24 62.361h-.34l-19.24-62.36h-12.05l-18.99 62.276h-.33l-21.25-62.277h-14.14l28.95 83.371h12.8l18.82-60.77h.33l18.74 60.77h13.14l28.94-83.37h-14.14ZM1304.94 79.034V91.34h-.33c-6.95-8.705-17.24-13.31-28.62-13.31-23.59 0-40.82 18.584-40.82 43.193 0 25.614 17.9 42.271 40.91 42.271 12.3 0 22.5-5.357 29.28-14.314h.17v13.226h13.3V78.951l-13.89.083Zm-27.52 71.736c-16.99 0-28.11-12.64-28.11-29.464 0-18.583 12.38-30.637 28.27-30.637 15.98 0 27.86 13.477 27.86 30.637 0 17.661-13.05 29.464-28.02 29.464ZM1387.18 78.03c-11.3 0-21.42 4.604-28.36 13.309h-.34V79.034h-13.89v117.272h13.81V150.1h.33c6.69 8.454 16.57 13.477 28.36 13.477 23.01 0 40.91-16.741 40.91-42.271 0-24.694-17.23-43.276-40.82-43.276Zm-1.43 72.824c-14.72 0-27.77-11.803-27.77-29.465 0-17.159 11.88-30.636 27.61-30.636 15.81 0 28.19 12.054 28.19 30.636 0 16.825-11.13 29.465-28.11 29.465h.08Z"
        fill="currentColor"
      />
    </symbol>

    <symbol id="across-with-text" viewBox="0 0 177 40" fill="none">
      <path
        fill-rule="evenodd"
        clip-rule="evenodd"
        d="m35.933 0 4.019 4.019-13.43 13.43a7.005 7.005 0 0 0-4.02-4.018L35.934 0ZM17.497 13.43 4.067 0 .047 4.019l13.431 13.43a7.005 7.005 0 0 1 4.02-4.018Zm-4.018 9.025L.048 35.885l4.019 4.02 13.43-13.431a7.005 7.005 0 0 1-4.018-4.02Zm9.024 4.019 13.43 13.43 4.019-4.019-13.43-13.43a7.005 7.005 0 0 1-4.02 4.019Z"
        fill="currentColor"
      />
      <path
        d="M69.936 30.13c-.194 0-.321-.097-.38-.291l-.876-2.863c-.039-.078-.087-.116-.146-.116H61.35c-.058 0-.107.038-.146.116l-.847 2.863c-.058.194-.185.292-.38.292h-3.709c-.117 0-.204-.03-.263-.088-.058-.078-.068-.185-.029-.321l6.309-19.744c.058-.195.185-.292.38-.292h4.585c.195 0 .322.097.38.292l6.309 19.744c.02.039.029.087.029.146 0 .175-.107.263-.321.263h-3.71Zm-7.681-6.63c-.02.117.02.176.117.176h5.14c.117 0 .156-.058.117-.175L65 14.826c-.02-.078-.048-.107-.087-.088-.04 0-.069.03-.088.088l-2.57 8.675ZM86.012 30.364c-1.518 0-2.852-.292-4.001-.876-1.149-.603-2.035-1.44-2.658-2.512-.623-1.07-.934-2.307-.934-3.709V16.52c0-1.402.311-2.638.934-3.71.623-1.07 1.51-1.898 2.658-2.482 1.149-.584 2.483-.876 4.001-.876 1.5 0 2.814.282 3.943.847 1.15.545 2.035 1.334 2.658 2.366.643 1.012.964 2.19.964 3.534 0 .175-.117.282-.35.321l-3.418.205h-.058c-.195 0-.292-.108-.292-.322 0-1.032-.321-1.86-.964-2.482-.623-.623-1.45-.935-2.483-.935-1.051 0-1.898.312-2.54.935-.624.623-.935 1.45-.935 2.482v7.04c0 1.012.311 1.83.934 2.453.643.623 1.49.934 2.541.934 1.032 0 1.86-.311 2.483-.934.643-.623.964-1.441.964-2.454 0-.214.117-.321.35-.321l3.418.146c.097 0 .175.03.233.088.078.058.117.126.117.204 0 1.344-.321 2.531-.964 3.563-.623 1.032-1.509 1.83-2.658 2.395-1.129.565-2.443.847-3.943.847ZM110.733 30.13a.414.414 0 0 1-.409-.262l-3.65-8.09c-.039-.078-.098-.117-.176-.117h-2.716c-.097 0-.146.048-.146.146v7.973a.363.363 0 0 1-.117.263.315.315 0 0 1-.234.088h-3.417a.427.427 0 0 1-.263-.088.427.427 0 0 1-.087-.263V10.036c0-.097.029-.175.087-.233a.363.363 0 0 1 .263-.117h8.354c1.246 0 2.336.253 3.271.76a5.21 5.21 0 0 1 2.19 2.16c.526.935.789 2.016.789 3.242 0 1.324-.331 2.464-.993 3.418-.662.934-1.587 1.596-2.775 1.986-.097.039-.126.107-.087.204l3.972 8.266a.445.445 0 0 1 .058.175c0 .156-.107.234-.321.234h-3.593Zm-6.951-16.91c-.097 0-.146.048-.146.146v4.994c0 .098.049.146.146.146h3.826c.818 0 1.48-.243 1.986-.73.526-.487.789-1.12.789-1.898 0-.78-.263-1.412-.789-1.899-.506-.506-1.168-.76-1.986-.76h-3.826ZM127.652 30.452c-1.519 0-2.862-.312-4.031-.935a6.771 6.771 0 0 1-2.687-2.6c-.642-1.128-.964-2.423-.964-3.884v-6.25c0-1.44.322-2.716.964-3.826a6.574 6.574 0 0 1 2.687-2.57c1.169-.623 2.512-.935 4.031-.935 1.538 0 2.882.312 4.03.935a6.53 6.53 0 0 1 2.717 2.57c.642 1.11.964 2.385.964 3.826v6.25c0 1.46-.322 2.756-.964 3.885a6.666 6.666 0 0 1-2.717 2.629c-1.148.603-2.492.905-4.03.905Zm0-3.534c1.071 0 1.937-.34 2.599-1.022.662-.682.993-1.587.993-2.717v-6.425c0-1.13-.331-2.035-.993-2.716-.642-.701-1.509-1.052-2.599-1.052-1.071 0-1.938.35-2.6 1.052-.642.681-.963 1.586-.963 2.716v6.425c0 1.13.321 2.035.963 2.717.662.681 1.529 1.022 2.6 1.022ZM148.45 30.364c-1.558 0-2.921-.243-4.089-.73-1.168-.506-2.074-1.217-2.716-2.132-.623-.934-.935-2.015-.935-3.242v-.643c0-.097.029-.175.088-.233a.363.363 0 0 1 .263-.117h3.329c.098 0 .176.039.234.117a.277.277 0 0 1 .117.233v.439c0 .778.36 1.44 1.08 1.986.721.525 1.695.788 2.921.788 1.032 0 1.801-.214 2.308-.642.506-.448.759-.993.759-1.636 0-.467-.156-.857-.467-1.168-.312-.331-.74-.614-1.285-.847-.526-.253-1.373-.594-2.541-1.022-1.305-.448-2.415-.906-3.33-1.373a6.912 6.912 0 0 1-2.278-1.899c-.604-.817-.906-1.82-.906-3.008 0-1.168.302-2.19.906-3.067.603-.876 1.441-1.548 2.512-2.015 1.07-.467 2.307-.701 3.709-.701 1.48 0 2.794.263 3.943.789 1.168.525 2.074 1.265 2.716 2.22.662.934.993 2.024.993 3.27v.439a.363.363 0 0 1-.117.263.314.314 0 0 1-.233.087h-3.359a.427.427 0 0 1-.263-.087.43.43 0 0 1-.088-.263v-.234c0-.818-.34-1.509-1.022-2.074-.662-.584-1.577-.876-2.745-.876-.916 0-1.636.195-2.162.584-.506.39-.759.925-.759 1.607 0 .486.146.895.438 1.226.312.331.759.633 1.344.906.603.253 1.528.603 2.774 1.051 1.383.506 2.463.954 3.242 1.344.799.39 1.509.973 2.132 1.752.643.76.964 1.753.964 2.98 0 1.83-.672 3.28-2.015 4.351-1.344 1.052-3.164 1.577-5.462 1.577ZM168.741 30.364c-1.558 0-2.921-.243-4.089-.73-1.168-.506-2.074-1.217-2.716-2.132-.623-.934-.935-2.015-.935-3.242v-.643c0-.097.029-.175.088-.233a.363.363 0 0 1 .263-.117h3.329c.098 0 .176.039.234.117a.277.277 0 0 1 .117.233v.439c0 .778.36 1.44 1.081 1.986.72.525 1.694.788 2.92.788 1.032 0 1.801-.214 2.308-.642.506-.448.759-.993.759-1.636 0-.467-.156-.857-.467-1.168-.312-.331-.74-.614-1.285-.847-.526-.253-1.373-.594-2.541-1.022-1.305-.448-2.415-.906-3.33-1.373a6.912 6.912 0 0 1-2.278-1.899c-.604-.817-.906-1.82-.906-3.008 0-1.168.302-2.19.906-3.067.603-.876 1.441-1.548 2.512-2.015 1.071-.467 2.307-.701 3.709-.701 1.48 0 2.794.263 3.943.789 1.168.525 2.074 1.265 2.716 2.22.662.934.993 2.024.993 3.27v.439a.363.363 0 0 1-.117.263.314.314 0 0 1-.233.087h-3.359a.429.429 0 0 1-.263-.087.43.43 0 0 1-.088-.263v-.234c0-.818-.34-1.509-1.022-2.074-.662-.584-1.577-.876-2.745-.876-.916 0-1.636.195-2.162.584-.506.39-.759.925-.759 1.607 0 .486.146.895.438 1.226.312.331.759.633 1.344.906.603.253 1.528.603 2.774 1.051 1.383.506 2.463.954 3.242 1.344.799.39 1.509.973 2.132 1.752.643.76.964 1.753.964 2.98 0 1.83-.672 3.28-2.015 4.351-1.344 1.052-3.164 1.577-5.462 1.577Z"
        fill="currentColor"
      />
    </symbol>

    <symbol id="premia" viewBox="0 0 120 26" fill="none">
      <path
        fill-rule="evenodd"
        clip-rule="evenodd"
        d="M35.39 5.721h2.866v1.774h.136c.3-.355.682-.71 1.119-1.01a5.524 5.524 0 0 1 3.248-1.037c3.685 0 6.55 2.866 6.55 7.233 0 4.367-2.865 7.232-6.55 7.232-1.447 0-2.511-.49-3.248-1.01a5.102 5.102 0 0 1-1.119-1.037h-.136v6.96H35.39V5.721Zm6.823 11.6c2.484 0 4.094-1.61 4.094-4.64 0-3.03-1.61-4.64-4.094-4.64-2.32 0-3.957 1.61-3.957 4.64 0 3.03 1.637 4.64 3.957 4.64ZM51.447 5.723h2.866v2.046h.137c.218-.409.518-.764.873-1.091.628-.546 1.555-1.092 2.947-1.092h1.638v2.73h-1.774c-2.183 0-3.82 1.5-3.82 3.82v7.506h-2.867V5.722ZM67.563 5.45c3.957 0 7.096 3.165 7.096 7.232v.955H63.332c.437 2.32 2.184 3.685 4.23 3.685 1.42 0 2.43-.437 3.058-.956.355-.273.655-.6.9-.955h3.002c-.354.846-.819 1.61-1.446 2.265-1.091 1.092-2.757 2.238-5.513 2.238-3.957 0-7.096-3.166-7.096-7.232 0-4.067 3.139-7.233 7.096-7.233Zm4.094 5.867c-.3-1.637-1.61-3.275-4.094-3.275-1.91 0-3.657 1.2-4.094 3.275h8.188ZM76.733 5.721H79.6v1.91h.137c.245-.409.546-.764.928-1.091.655-.546 1.637-1.092 3.166-1.092 1.774 0 2.893.655 3.575 1.31.41.382.71.819.928 1.283h.137c.245-.464.6-.9 1.064-1.283.737-.655 1.938-1.31 3.712-1.31 3.166 0 5.186 2.02 5.186 5.868v8.324h-2.866v-8.187c0-2.32-1.065-3.412-3.003-3.412-1.883 0-3.547 1.637-3.547 3.958v7.641h-2.867v-8.187c0-2.32-1.064-3.412-3.002-3.412-1.883 0-3.548 1.637-3.548 3.958v7.641h-2.866V5.721ZM102.608.262c.955 0 1.72.764 1.72 1.72 0 .955-.765 1.692-1.72 1.692a1.666 1.666 0 0 1-1.692-1.692c0-.956.737-1.72 1.692-1.72Zm-1.419 19.378h2.866V5.721h-2.866v13.92ZM112.63 5.45c1.419 0 2.511.518 3.248 1.036.437.3.819.655 1.119 1.01h.137V5.722h2.865v13.92h-2.865V17.73h-.137c-.3.41-.682.764-1.119 1.092-.737.546-1.829 1.091-3.248 1.091-3.684 0-6.55-2.865-6.55-7.232s2.866-7.233 6.55-7.233Zm.546 11.872c2.32 0 3.958-1.61 3.958-4.64 0-3.03-1.638-4.64-3.958-4.64-2.484 0-4.094 1.61-4.094 4.64 0 3.03 1.61 4.64 4.094 4.64Z"
        fill="currentColor"
      />
      <path
        fill-rule="evenodd"
        clip-rule="evenodd"
        d="M7.062 5.665h11.844a.824.824 0 0 1 .667 1.309l-5.637 7.75a.824.824 0 0 0 .666 1.31h4.968a.824.824 0 0 0 .666-.34l5.575-7.665c.21-.29.21-.68 0-.97L20.923.34A.824.824 0 0 0 20.257 0H5.711a.823.823 0 0 0-.666.34L.158 7.06c-.21.288-.21.68 0 .969l12.16 16.72a.824.824 0 0 0 1.333 0l2.483-3.415c.21-.29.21-.68 0-.97L6.396 6.974a.824.824 0 0 1 .666-1.309Z"
        fill="#5294FF"
      />
    </symbol>

    <symbol id="shape-shift" viewBox="0 0 786.4 207.6">
      <path
        fill="currentColor"
        d="M636 141.7h8V94h-8v47.7zM636 79.7h8v8h-8zM265.8 79.3c-8.7 0-18 3.4-18 11.8 0 7.4 8.5 9.6 18.6 11.3 13.7 2.2 27.2 4.9 27.2 20.4-.1 15.4-14.8 20.4-27.9 20.4-12.1 0-23.7-4.4-29-15.9l7.1-4.1c4.4 8.1 13.6 12 22 12 8.3 0 19.4-2.6 19.4-12.7.1-8.5-9.5-11-19.8-12.5-13.2-2.1-26.1-5.1-26.1-19-.2-14.3 14.4-19.2 26.2-19.2 10.2 0 19.9 2.1 26 12.4l-6.5 4c-3.6-6.1-11.5-8.8-19.2-8.9zM308.1 73.3v28.1c4.1-6.4 10.6-8.5 16.7-8.6 13.6 0 20.3 9 20.3 22.3v26.6h-7.9v-26.5c0-9.5-4.9-14.9-13.7-14.9s-15.3 7-15.3 15.8v25.7h-8V73.2l7.9.1zM394.7 141.9l-.2-8.8c-3.8 6.7-11.2 9.8-17.8 9.8-13.9 0-24.8-9.6-24.8-25.4 0-15.7 11.1-25.1 24.9-25 7.2 0 14.4 3.3 17.9 9.6l.1-8.8h7.8v48.4h-7.7l-.2.2zm-17.6-41.7c-9.6 0-17.3 6.9-17.3 17.6s7.7 17.7 17.3 17.7c23.3 0 23.3-35.4 0-35.3zM410.1 93.5h7.6l.4 9.3c3.8-6.5 11-10.2 18.6-10.2 13.9.3 24.1 10.1 24.1 25 0 15.3-10.1 25.2-24.6 25.2-6.9 0-14.5-2.9-18.3-9.8v31.5h-7.8v-71zm42.7 24.3c0-10.9-7.2-17.3-17-17.3-10.1 0-16.9 7.4-16.9 17.3s7.2 17.3 16.9 17.4c9.6 0 17-6.5 17-17.4zM512.4 133.9c-4.9 5.8-13.3 8.6-20.9 8.6-15 0-25.5-9.9-25.5-25.3 0-14.6 10.5-25.1 25.1-25.1 14.8 0 26.1 9.1 24.2 28.4h-41.1c.9 8.9 8.2 14.5 17.5 14.5 5.5 0 12.1-2.2 15.4-6.1l5.3 5zm-4.7-19.9c-.4-9.4-6.9-14.5-16.4-14.5-8.4 0-15.8 5.1-17.1 14.4l33.5.1zM548.9 79.3c-8.7 0-18 3.4-18 11.8 0 7.4 8.5 9.6 18.6 11.3 13.7 2.2 27.2 4.9 27.2 20.4-.1 15.4-14.8 20.4-27.9 20.4-12.1 0-23.7-4.4-29-15.9l7.1-4.1c4.4 8.1 13.6 12 22 12 8.3 0 19.4-2.6 19.4-12.7.1-8.5-9.5-11-19.8-12.5-13.2-2.1-26.1-5.1-26.1-19-.2-14.3 14.4-19.2 26.2-19.2 10.2 0 19.9 2.1 26 12.4l-6.5 4c-3.7-6.1-11.6-8.8-19.2-8.9zM591 73.2v28.1c4.1-6.4 10.6-8.5 16.7-8.6 13.6 0 20.3 9 20.3 22.3v26.6h-7.9v-26.5c0-9.5-4.9-14.9-13.7-14.9-8.8 0-15.3 7-15.3 15.8v25.7h-8V73.1l7.9.1zM659.4 141.9v-.1h-.1zM668.9 90.1c0-7.2 3.3-10.5 8.5-10.5h.3l1.8-6.9c-.8-.1-1.5-.2-2.3-.2C667 72.5 661 79 661 90.1v3.8h-9.5v7.1h9.5v40.7h7.9V101h9.6v-7.1h-9.6v-3.8zM709.8 135c-.6.1-1.3.2-1.9.2-5.8 0-7.6-3.6-7.6-9.3V101h10.3v-7h-10.2V79.2l-8 .9v13.8h-9.7v7h9.7v24.9c0 10.7 4.9 16.7 15.3 16.6 1.3 0 2.5-.2 3.7-.4l-1.6-7zM194.6 38.5 153.2 55h-38.7L74.9 38.3l9 54.3-8.6 29.4 22.5 13.5c10.7 6.4 20.2 14.3 28.4 23.7l8.8 10 9.2-10.6c7.9-9.1 17.1-16.8 27.3-23.1l22.1-13.5-8-29.4 9-54.1zm-27.4 91.7c-7.5 4.7-14.5 10.1-20.8 16.2l-7.7-8.4 28.5-7.8zm-36.4 7.8-7.5 8.3c-6.4-6.1-13.4-11.4-20.9-16l28.4 7.7zm-7.4-9.1-39.8-10.8L89 99.5l34.4 29.4zm-15-69.1L89.5 84.5l-5.8-35.1 24.7 10.4zM173 96.3l-38.3 33.4-39-33.4H173zm-78.7-6.9 21.2-27.6h36.7l23.5 27.6H94.3zm85.9 9.6 5.2 19.1-39.5 10.9 34.3-30zm5.7-49.7-5.8 34.8-20.6-24.3 26.4-10.5z"
      />
    </symbol>
  </defs>
</svg>
