<svg width="584" height="632" viewBox="0 0 584 632" fill="none" xmlns="http://www.w3.org/2000/svg">
<path d="M39.998 117.5L40.998 403.5L0.634766 426.386L144.613 512.191V553L216.998 510.5L250.498 530V553L280.998 571L300.998 559L425.498 632L583.498 540.5V414.5L499.498 308.5L474.998 294L475.498 143.5L228.498 3.99976L39.998 117.5Z" fill="#FDFDFD"/>
<mask id="mask0_406_3771" style="mask-type:alpha" maskUnits="userSpaceOnUse" x="-643" y="-306" width="1691" height="1229">
<path d="M713.372 -272.331L658.305 -238.59L658.614 -189.372L658.924 -140.051H650.777C636.237 -140.051 623.759 -134.789 613.034 -124.058C605.197 -116.216 600.659 -108.684 596.741 -97.5399C592.41 -84.7452 591.688 -76.0779 591.688 -37.7973C591.688 -0.238953 591.791 0.276978 597.05 5.02338C607.053 14.2066 633.143 17.8179 644.383 11.5239C653.252 6.4679 652.942 7.91248 653.561 -32.7414C654.077 -68.4424 654.077 -68.8552 656.449 -71.1252L658.717 -73.3952V-13.0336V47.4313L567.866 99.951C517.852 128.842 476.5 152.677 475.984 152.884C475.365 153.09 475.056 151.542 475.365 148.859C475.778 144.629 475.675 144.526 471.034 142.153C468.456 140.811 412.873 109.341 347.39 72.1951L228.49 4.61066L134.339 61.0513L40.1882 117.389L39.7757 136.478L39.4663 155.566L-12.6106 125.54C-41.1755 108.928 -64.7906 94.9984 -64.8937 94.5856C-65.1 94.0697 -64.8937 91.5933 -64.3781 89.1169L-63.6562 84.5769L-45.0942 73.1237C-34.8851 66.8295 -26.6353 61.2577 -26.7384 60.7418C-26.8415 59.71 -46.5379 48.6695 -136.873 -1.27075C-162.345 -15.4067 -184.207 -27.4791 -185.341 -28.2014C-187.197 -29.4395 -189.775 -28.0981 -210.09 -15.7163C-229.477 -3.95349 -232.983 -2.09625 -234.84 -3.02484C-235.974 -3.64398 -264.952 -20.3595 -299.188 -40.1705C-333.528 -59.9815 -363.33 -77.1097 -365.496 -78.2448C-373.849 -82.4752 -371.065 -83.8166 -448.303 -38.9323C-487.284 -16.2322 -519.767 2.03107 -520.386 1.61835C-521.005 1.30878 -521.211 1.41199 -520.695 1.82471C-520.283 2.34064 -521.005 3.78516 -522.242 5.22974C-524.305 7.39655 -524.614 8.73792 -524.614 16.0638C-524.614 23.2866 -524.202 25.4534 -521.727 30.5094C-515.127 43.8199 -533.586 32.5731 -234.84 205.507L39.4663 364.201V384.631V405.164L-48.7035 456.136C-97.1711 484.099 -181.525 532.801 -235.974 564.271L-335.178 621.538L-360.443 607.608L-385.708 593.575L-399.526 602.139C-407.054 606.783 -425.204 617.823 -439.847 626.594L-466.35 642.587L-466.247 669.93L-466.144 697.273L-545.96 743.19C-603.297 776.311 -627.015 790.55 -630.418 793.852C-632.996 796.432 -636.708 801.694 -638.668 805.615C-641.658 811.806 -642.174 813.869 -642.174 820.267C-642.174 826.045 -641.761 828.212 -640.111 830.379C-638.874 832.133 -611.237 848.745 -568.957 873.406C-530.905 895.59 -498.112 914.575 -495.946 915.71C-493.265 917.155 -490.996 917.671 -488.418 917.258C-486.459 916.949 -475.94 911.48 -465.009 905.186L-445.107 893.733L-420.048 908.281C-406.229 916.226 -394.783 922.727 -394.68 922.727C-394.473 922.727 -387.874 919.012 -379.83 914.369L-365.29 906.114L-365.083 876.707L-364.774 847.301L-73.6591 679.113L217.456 510.926L233.955 520.419L250.352 529.809V541.365V552.921L265.82 561.898L281.392 570.978L291.188 565.2L300.985 559.422L359.456 593.163C391.63 611.735 419.679 628.038 421.742 629.38L425.66 631.753L504.24 586.043L582.922 540.333L583.438 477.908L583.953 415.586L566.01 392.37C556.11 379.575 542.086 361.518 534.764 352.129C523.317 337.374 521.874 335 523.421 334.175C524.349 333.659 581.788 300.537 650.88 260.503C758.849 198.181 776.999 188.069 778.855 188.894C780.093 189.513 791.539 196.014 804.429 203.443L827.735 216.96L834.232 213.039C837.841 210.872 844.235 207.054 848.566 204.681L856.403 200.244L857.022 182.497C857.434 172.798 857.744 159.487 857.744 152.884V140.914L862.9 138.129L868.056 135.343L868.262 166.091L868.572 196.736L884.04 205.713L899.405 214.69L903.633 212.317C905.902 210.975 924.464 200.347 944.882 188.688L982.006 167.432L982.522 192.506C982.935 213.142 983.347 217.992 984.791 220.571C987.163 225.008 990.566 227.794 996.856 230.786C1013.97 238.628 1037.18 232.334 1045.22 217.579C1046.77 214.69 1046.97 209.531 1047.28 168.051C1047.59 124.612 1047.49 121.31 1045.53 113.571C1041.71 98.5065 1033.57 85.5056 1021.91 76.2192L1015.42 71.0601L1015.52 -47.4965C1015.62 -112.708 1015.52 -166.156 1015.32 -166.259C1014.59 -166.878 769.677 -305.659 769.161 -305.865C768.852 -305.968 743.69 -290.8 713.372 -272.331ZM891.568 -233.947C957.979 -196.285 1012.02 -165.124 1011.6 -164.712C1009.85 -163.061 900.643 -100.532 899.612 -100.532C897.652 -100.532 662.739 -237.352 663.152 -238.384C663.667 -239.931 767.408 -302.873 769.161 -302.769C769.987 -302.666 825.157 -271.712 891.568 -233.947ZM814.226 -146.758L897.859 -98.2621L897.962 56.2018C897.962 141.224 897.755 210.769 897.446 210.769C897.137 210.769 890.846 207.261 883.525 202.927L870.119 195.085V118.008L870.015 41.034L840.729 24.1121C824.538 14.7225 811.442 7.08698 811.648 6.98383C811.751 6.88062 819.279 2.44379 828.354 -2.71533C837.429 -7.9776 846.4 -13.7558 848.257 -15.5099C853.619 -20.6691 855.888 -28.2014 855.888 -41.5118C855.888 -51.0046 855.475 -54.2033 853.206 -61.1165C847.328 -79.2766 833.51 -97.2303 816.495 -108.787C809.379 -113.533 736.472 -155.425 730.491 -158.211C723.684 -161.203 716.878 -162.235 711.722 -160.791C706.772 -159.449 671.195 -137.678 665.214 -132.312L660.78 -128.391V-182.149V-235.804L695.738 -215.58C714.919 -204.437 768.233 -173.482 814.226 -146.758ZM1013.05 69.2028C1012.74 69.4091 1004.8 65.5914 995.206 60.6386C985.1 55.4795 975.922 51.4554 973.447 51.1459C960.557 49.3917 941.995 69.3059 938.076 89.2201C935.498 102.221 938.076 106.142 956.02 115.841C978.5 127.81 982.522 133.589 982.522 153.812L982.419 164.853L942.614 187.553C920.752 200.038 902.396 210.459 901.88 210.562C901.468 210.769 901.158 141.43 901.262 56.4081L901.571 -98.1589L957.257 -130.352L1012.94 -162.545L1013.25 -46.8773C1013.36 16.683 1013.25 68.8932 1013.05 69.2028ZM724.097 -158.108C731.934 -156.044 811.751 -110.128 822.167 -101.667C836.397 -90.2139 846.4 -75.6652 851.453 -59.1561C854.444 -49.4569 854.547 -33.0509 851.557 -25.209C850.422 -22.2168 848.257 -18.5022 846.607 -17.0577C844.029 -14.4781 814.226 3.47565 813.607 2.95972C813.504 2.75336 814.432 0.380127 815.67 -2.40576C817.526 -6.53308 817.938 -9.21582 817.938 -17.7799C817.835 -26.6536 817.423 -29.5427 814.536 -37.9005C809.276 -53.481 799.789 -68.4424 789.064 -77.9352C785.661 -81.0307 766.893 -92.4839 739.462 -108.271C687.076 -138.4 692.026 -135.82 684.292 -137.368L678.001 -138.606L692.748 -147.893C706.463 -156.354 712.444 -159.346 716.466 -159.552C717.394 -159.656 720.797 -158.933 724.097 -158.108ZM657.995 -130.249C657.274 -106.826 657.377 -96.0953 658.099 -87.1185L659.027 -77.0066L655.521 -73.3952L652.014 -69.7838L651.499 -33.7732C650.983 0.483337 650.88 2.34064 648.818 5.12653C645.621 9.56335 639.743 11.9366 630.977 12.4525C617.984 13.1747 603.031 8.53156 596.844 1.82471L594.266 -0.961243L593.956 -34.5986C593.544 -71.5379 594.472 -82.9911 598.391 -95.373C603.444 -111.263 614.168 -124.986 626.749 -131.693C635.618 -136.44 641.393 -137.884 650.468 -137.678L658.202 -137.471L657.995 -130.249ZM690.582 -133.241C692.542 -132.416 714.094 -120.24 738.431 -106.207C775.143 -85.0548 783.702 -79.6893 789.064 -74.427C804.945 -59.0529 815.464 -36.3527 815.464 -17.6768C815.464 -3.85034 811.751 4.61066 804.12 8.53156C799.273 11.0079 791.642 11.2143 785.455 9.04749C782.98 8.11884 761.015 -4.0567 736.575 -18.0895C694.088 -42.5437 691.923 -43.8851 683.982 -51.9333C655.624 -80.4116 649.539 -125.812 672.845 -134.479C677.279 -136.13 684.91 -135.614 690.582 -133.241ZM674.186 -59.5688C676.867 -55.8542 680.373 -51.7269 681.817 -50.3856L684.498 -47.9092V-7.56488L684.395 32.7794L673.567 38.9703C667.586 42.3754 662.224 45.2645 661.708 45.4708C661.192 45.6772 660.78 18.9529 660.78 -18.9149V-83.7134L665.008 -75.0461C667.276 -70.1965 671.401 -63.2833 674.186 -59.5688ZM-304.963 -40.996C-270.314 -21.0818 -240.511 -3.74713 -238.655 -2.61212L-235.252 -0.548462L-242.78 4.09473C-246.802 6.57111 -250.927 8.42834 -251.855 8.22198C-252.783 8.01562 -282.07 -8.69989 -316.925 -28.9236C-351.884 -49.0442 -382.511 -66.6884 -385.192 -67.9265L-390.039 -70.2997L-383.542 -74.2206C-372.611 -80.8243 -376.736 -82.5784 -304.963 -40.996ZM-384.264 -65.0374C-381.171 -63.4897 -379.005 -61.942 -379.521 -61.5292C-379.933 -61.1165 -402.517 -47.806 -429.638 -31.8127L-479.137 -2.81848L-484.603 -5.91394C-487.593 -7.66809 -490.79 -9.00946 -491.615 -9.00946C-492.44 -9.00946 -493.162 -9.31897 -493.162 -9.8349C-493.059 -10.454 -412.932 -57.4019 -398.908 -64.9343C-392.411 -68.5457 -391.07 -68.5457 -384.264 -65.0374ZM-367.662 -55.751C-362.918 -52.9651 -359.102 -50.5919 -359.102 -50.2823C-359.102 -49.7665 -455.934 7.19019 -458.306 8.01562C-459.028 8.3252 -463.566 6.26154 -468.309 3.47565L-476.971 -1.58032L-463.153 -9.62854C-455.522 -14.1686 -433.144 -27.3759 -413.242 -39.1387C-393.442 -50.7983 -376.943 -60.4974 -376.736 -60.4974C-376.427 -60.6006 -372.405 -58.4338 -367.662 -55.751ZM-345.387 -42.7501C-341.572 -40.48 -338.581 -38.5196 -338.684 -38.4164C-338.89 -38.3132 -361.474 -25.1059 -388.905 -9.00946L-438.816 20.2943L-445.313 16.683C-458.1 9.76971 -458.306 10.9047 -442.632 1.7215C-435.001 -2.81848 -412.52 -16.0258 -392.617 -27.6854C-362.402 -45.5359 -356.215 -48.8378 -354.462 -47.9092C-353.328 -47.3932 -349.203 -45.0201 -345.387 -42.7501ZM692.438 -41.7182C695.223 -39.7578 709.041 -31.6064 723.169 -23.455C737.4 -15.3036 749.568 -8.18396 750.29 -7.46173C751.321 -6.53308 745.031 -2.40576 720.075 11.9366C702.751 22.0485 688.107 30.1998 687.592 30.1998C686.973 30.1998 686.56 16.2702 686.56 -7.46173C686.56 -28.2014 686.767 -45.1232 687.076 -45.1232C687.385 -45.1232 689.757 -43.5755 692.438 -41.7182ZM-326.722 -32.1223C-322.288 -29.5427 -319.091 -27.0663 -319.503 -26.5504C-321.669 -24.6932 -417.779 31.2317 -419.017 31.2317C-419.738 31.2317 -423.966 29.0648 -428.504 26.3821C-436.547 21.7389 -436.651 21.6357 -434.279 20.1912C-406.848 3.68201 -337.55 -36.6623 -336.415 -36.7655C-335.59 -36.7655 -331.259 -34.7018 -326.722 -32.1223ZM-170.182 -17.1608C-160.901 -12.1049 -153.064 -7.46173 -152.548 -7.04895C-151.929 -6.42987 -224.837 38.764 -228.034 39.7958C-228.859 40.0021 -265.261 20.6039 -264.848 20.088C-263.92 19.2625 -188.331 -26.4473 -187.713 -26.4473C-187.3 -26.5504 -179.36 -22.3199 -170.182 -17.1608ZM-306.716 -20.5659L-298.26 -15.6131L-346.418 12.6589C-373.024 28.2394 -395.608 41.4467 -396.742 42.169C-398.495 43.304 -399.939 42.8912 -407.261 38.6608C-412.004 35.978 -415.82 33.6049 -415.82 33.1921C-415.82 32.4698 -317.647 -25.3123 -316.307 -25.4154C-315.688 -25.4154 -311.46 -23.2486 -306.716 -20.5659ZM-287.329 -9.31897C-282.585 -6.53308 -278.667 -4.0567 -278.667 -3.74713C-278.667 -2.92169 -377.046 54.9636 -378.386 54.9636C-378.799 54.9636 -383.13 52.6936 -387.874 49.9077L-396.639 44.8517L-392.617 42.3754C-379.211 34.4303 -296.61 -14.0654 -296.301 -14.0654C-296.095 -14.1686 -292.073 -12.0017 -287.329 -9.31897ZM-225.559 145.97C-79.7433 230.064 39.5695 298.887 39.7757 298.99C39.8788 299.093 39.8788 303.633 39.7757 309.102L39.4663 318.904L-233.293 161.035C-383.336 74.2587 -507.393 2.65015 -509.146 1.92786L-512.239 0.586487L-504.505 -3.64398C-498.524 -7.04895 -496.049 -7.87445 -493.677 -7.35852C-491.924 -7.04895 -371.271 61.98 -225.559 145.97ZM-75.1028 35.3589L-68.0905 39.2799L-75.1028 43.4072C-128.314 74.2587 -149.145 86.0215 -150.073 85.6088C-152.96 84.4738 -224.527 42.4785 -224.734 41.7563C-224.94 41.3435 -208.44 30.9221 -188.125 18.5402L-151.31 -3.85034L-151.001 40.0021C-150.795 78.0764 -150.589 83.8546 -149.248 83.8546C-147.907 83.8546 -147.701 78.0764 -147.701 39.5894V-4.67578L-114.908 13.3811C-96.9648 23.2866 -79.0215 33.1921 -75.1028 35.3589ZM762.459 -0.651672C766.583 1.61835 770.193 3.78516 770.399 4.19788C770.812 4.81702 481.346 172.488 476.912 174.242C475.262 174.861 475.056 174.139 475.365 165.266L475.675 155.67L549.407 113.055C589.935 89.6329 637.268 62.2896 654.592 52.384C671.917 42.4785 701.101 25.5566 719.56 14.8257C738.019 3.99152 753.487 -4.77899 754.003 -4.77899C754.518 -4.88214 758.334 -3.02484 762.459 -0.651672ZM-265.673 3.26929L-256.908 8.3252L-307.129 37.7322L-357.452 67.2423L-364.465 63.4246C-377.768 56.2018 -382.202 60.3291 -326.413 27.4139C-299.291 11.4207 -276.501 -1.68347 -275.779 -1.68347C-275.057 -1.78668 -270.52 0.483337 -265.673 3.26929ZM-234.53 162.892L39.8788 321.69L39.9819 341.501C39.9819 352.438 39.7757 361.415 39.4663 361.415C39.2601 361.415 -83.8683 290.322 -234.015 203.443C-418.604 96.6492 -508.527 44.0262 -511.518 41.1371C-517.911 35.0494 -522.449 25.3503 -522.861 16.7861C-523.274 10.5952 -523.067 9.66656 -520.386 6.57111C-517.808 3.47565 -517.086 3.16608 -513.271 3.5788C-509.971 3.99152 -449.025 38.764 -234.53 162.892ZM783.083 10.9047C787.517 13.278 808.554 25.4534 829.694 37.8353C867.231 59.9163 868.056 60.4323 868.056 63.6309C868.056 66.52 867.437 67.2423 861.869 70.2346C856.609 73.2269 855.475 73.4332 853.413 72.4014C850.216 70.6473 761.943 19.0562 758.849 17.0957C756.478 15.548 756.478 15.548 764.005 11.1111C768.233 8.63477 772.358 6.57111 773.286 6.57111C774.111 6.4679 778.546 8.42834 783.083 10.9047ZM350.484 76.3223C417.307 114.293 471.55 145.558 471.24 145.867C470.519 146.589 288.095 252.661 283.557 255.034C281.495 256.169 270.564 249.978 162.698 187.346C97.5243 149.479 44.6224 118.008 45.0349 117.595C46.3755 116.254 227.046 7.70612 228.077 7.60291C228.593 7.49976 283.661 38.4544 350.484 76.3223ZM838.666 25.4534L867.541 42.3754L867.85 49.7013C868.056 53.7254 867.85 57.0272 867.437 57.0272C867.025 57.0272 849.803 47.1218 829.282 35.0494L791.849 13.1747L797.211 12.6589C800.201 12.3493 804.017 11.3175 805.667 10.3889C807.42 9.46021 808.967 8.73792 809.276 8.63477C809.586 8.63477 822.785 16.1671 838.666 25.4534ZM-253.917 10.2856C-253.917 10.8016 -257.217 12.9684 -261.136 15.2384C-265.055 17.5084 -268.355 19.7784 -268.355 20.3975C-268.355 20.9135 -264.848 23.1835 -260.517 25.4534C-256.289 27.6203 -253.092 29.7871 -253.608 30.1998C-255.361 31.8508 -334.456 77.8701 -336.209 78.2828C-337.137 78.4891 -341.881 76.4255 -346.625 73.6396L-355.287 68.5837L-341.984 60.7418C-334.662 56.5114 -312.182 43.2008 -292.073 31.3348C-271.964 19.4689 -255.155 9.66656 -254.639 9.66656C-254.227 9.56335 -253.917 9.87292 -253.917 10.2856ZM807.214 48.0504C831.86 62.4959 852.072 74.6714 851.969 75.1873C851.969 76.6319 836.81 84.9896 834.954 84.6801C832.994 84.2674 737.09 27.9298 737.09 27.1044C737.09 26.7948 740.906 24.4216 745.547 21.7389L754.003 16.9925L758.231 19.3657C760.499 20.7071 782.568 33.6049 807.214 48.0504ZM783.805 57.7495C810.617 73.4332 832.685 86.331 832.788 86.5374C833.407 86.9501 817.114 96.2365 815.67 96.2365C814.742 96.2365 719.869 41.3435 716.672 38.9703C716.157 38.5576 732.45 29.2712 733.791 29.2712C734.615 29.168 757.096 41.9626 783.805 57.7495ZM-240.202 36.2876L-231.024 41.3435L-240.718 47.0186C-245.977 50.114 -265.055 61.2577 -283.101 71.8855L-315.997 91.1806L-323.319 87.0533C-327.444 84.7833 -331.569 82.3069 -332.497 81.5847C-334.044 80.4496 -329.3 77.3541 -292.795 55.7891C-270.004 42.3754 -250.824 31.438 -250.308 31.3348C-249.689 31.3348 -245.152 33.6049 -240.202 36.2876ZM-47.3629 50.8363C-33.4413 58.575 -30.2446 60.7418 -31.3789 61.7736C-32.9257 63.2182 -104.596 107.38 -106.865 108.206C-109.03 109.031 -147.289 87.8787 -145.432 86.8469C-144.711 86.4342 -126.458 75.9096 -104.905 63.4246C-83.3527 50.9395 -65.5125 40.8276 -65.2031 40.9308C-64.8937 41.1371 -56.8502 45.574 -47.3629 50.8363ZM763.49 68.8932C790.095 84.4738 811.957 97.6811 812.164 98.0938C812.267 98.5065 808.657 101.086 804.017 103.769L795.664 108.722L747.918 80.7592C721.725 65.385 699.451 52.2808 698.419 51.4554C696.77 50.3204 697.388 49.7013 704.71 45.3676C709.247 42.7881 713.372 40.6213 713.991 40.5181C714.61 40.5181 736.884 53.3127 763.49 68.8932ZM-229.374 54.035L-229.684 64.5596L-262.58 83.8546L-295.476 103.15L-304.551 97.9906C-309.604 95.1015 -313.419 92.522 -313.11 92.2124C-312.079 91.0774 -230.715 43.6135 -229.89 43.6135C-229.477 43.6135 -229.271 48.3599 -229.374 54.035ZM-164.923 79.9337C-157.085 84.4738 -150.382 88.7042 -150.176 89.4265C-149.97 90.0456 -149.867 109.547 -149.97 132.66L-150.279 174.655L-188.641 152.78L-227.106 130.906V87.3629V43.7167L-203.078 57.7495C-189.981 65.385 -172.76 75.3937 -164.923 79.9337ZM743.278 80.4496C769.058 95.5142 790.817 108.412 791.436 109.031C792.467 109.96 790.817 111.404 784.321 115.119C779.68 117.802 775.246 119.762 774.524 119.556C773.286 119.04 696.77 74.3619 682.126 65.5914L676.145 61.98L684.704 56.9241C689.448 54.2413 693.985 52.1777 694.81 52.4872C695.635 52.7968 717.394 65.385 743.278 80.4496ZM995.206 63.0118C1021.81 76.8383 1030.89 84.7833 1038.62 100.88C1045.01 114.19 1045.43 117.905 1045.43 167.123C1045.43 207.88 1045.22 211.594 1043.47 215.515C1038.72 225.937 1028.1 231.612 1013.46 231.715C999.847 231.715 990.463 227.175 986.544 218.611C984.791 214.69 984.585 211.285 984.585 178.163C984.585 136.168 984.481 135.549 975.922 126.572C972.107 122.548 967.26 119.246 957.773 114.19C942.304 105.936 941.583 105.317 940.139 99.951C935.498 82.6165 958.288 51.0427 973.757 53.4158C976.025 53.7254 985.616 58.0591 995.206 63.0118ZM723.891 92.7283L773.183 121.516L769.265 123.786C767.202 125.128 763.18 127.398 760.293 128.842L755.137 131.525L708.216 103.975C682.435 88.9106 660.161 75.8064 658.82 74.8778C656.449 73.33 656.552 73.33 665.008 68.3773C669.751 65.6946 673.876 63.5277 674.186 63.6309C674.495 63.8373 696.873 76.8383 723.891 92.7283ZM-229.168 77.5605C-229.168 84.4738 -229.58 88.0851 -230.405 88.8074C-232.159 90.1487 -272.17 113.674 -273.923 114.397C-275.47 115.016 -292.279 105.523 -291.763 104.182C-291.557 103.356 -231.334 67.5518 -229.89 67.4487C-229.477 67.3455 -229.168 71.8855 -229.168 77.5605ZM867.85 84.8865L867.541 90.0456L681.095 197.768L494.649 305.49L486.4 300.847C481.965 298.267 478.047 295.894 477.84 295.482C477.634 295.172 565.288 244.2 672.536 182.187L867.541 69.5123L867.85 74.6714C868.056 77.4573 868.056 82.1005 867.85 84.8865ZM706.36 105.42C731.831 120.381 752.353 132.969 752.043 133.382C750.703 135.549 735.853 142.772 734.203 142.153C731.212 141.018 637.062 85.5056 637.062 84.8865C637.062 84.5769 640.98 82.2037 645.621 79.521C654.077 74.7746 654.077 74.7746 657.17 76.5287C658.924 77.5605 680.992 90.5615 706.36 105.42ZM-67.2656 107.793L-67.3687 128.739L-107.483 151.645L-147.701 174.552V132.247C-147.701 109.031 -147.495 90.0456 -147.186 90.0456C-146.876 90.0456 -138.936 94.3792 -129.448 99.6415C-119.858 105.007 -111.196 109.857 -109.958 110.476C-108.102 111.508 -105.215 110.063 -87.7869 99.332C-76.7528 92.522 -67.678 86.9501 -67.4718 86.9501C-67.3687 86.9501 -67.2656 96.3397 -67.2656 107.793ZM683.982 115.532C710.794 131.318 732.553 144.526 732.347 144.835C732.141 145.248 728.222 147.621 723.684 150.201L715.538 154.844L666.245 125.953C639.124 110.063 616.849 96.9588 616.643 96.7524C616.128 96.3397 632.421 87.0533 633.762 87.0533C634.587 86.9501 657.17 99.8479 683.982 115.532ZM-229.168 101.808V112.539L-240.718 119.246C-247.111 122.961 -252.886 126.159 -253.505 126.366C-254.536 126.675 -272.686 116.77 -272.17 116.151C-271.758 115.738 -229.684 91.0774 -229.374 91.0774C-229.271 91.0774 -229.168 95.9269 -229.168 101.808ZM868.056 112.952L867.953 132.866L694.191 233.159L520.43 333.453L513.521 324.476C509.705 319.523 504.652 313.435 502.177 310.856C499.702 308.379 498.052 306.109 498.568 305.903C498.98 305.8 581.994 257.82 682.951 199.419C783.908 141.018 866.819 93.2442 867.334 93.2442C867.747 93.1411 868.056 102.118 868.056 112.952ZM-11.9918 128.326L39.9819 158.455V168.051V177.647L24.3073 168.567C15.645 163.511 -7.97009 149.891 -28.079 138.232L-64.6875 117.079L-64.9968 107.69C-65.1 102.531 -64.9968 98.3002 -64.6875 98.3002C-64.275 98.3002 -40.6599 111.817 -11.9918 128.326ZM664.183 127.294C690.685 142.772 712.341 155.773 712.341 156.082C712.341 156.392 708.526 158.868 703.885 161.654C697.698 165.266 694.913 166.297 693.779 165.678C692.954 165.162 671.401 152.471 645.827 137.509C620.356 122.651 598.803 109.857 598.081 109.134C596.947 108.102 598.184 106.967 604.784 103.15C609.219 100.467 613.55 98.5065 614.478 98.7129C615.406 98.9193 637.783 111.714 664.183 127.294ZM644.28 139.16C670.989 154.844 692.748 167.845 692.542 167.948C690.376 170.115 675.629 177.751 674.495 177.338C673.154 176.822 584.16 124.921 578.385 121.31C576.013 119.762 576.116 119.762 584.572 114.809C589.316 112.023 593.75 109.96 594.472 110.166C595.194 110.372 617.571 123.477 644.28 139.16ZM-229.168 124.096C-229.168 130.493 -228.859 132.557 -227.621 132.969C-225.146 134.001 -225.765 135.033 -229.993 136.89L-233.912 138.644L-242.368 133.795C-247.008 131.215 -250.824 128.739 -250.824 128.326C-250.824 127.604 -231.23 115.841 -229.89 115.841C-229.477 115.841 -229.168 119.556 -229.168 124.096ZM-58.2939 123.167C-55.2002 124.921 -52.8284 126.779 -53.0346 127.294C-53.2409 127.81 -75.5153 141.224 -102.637 157.114L-151.929 186.005L-160.798 180.949L-169.666 175.79L-166.16 173.726C-161.623 170.94 -161.107 170.94 -154.817 174.655C-151.929 176.409 -149.145 177.751 -148.732 177.544C-148.32 177.338 -129.345 166.607 -106.555 153.503L-65.2031 129.874V124.921C-65.2031 122.238 -64.8937 119.968 -64.5844 119.968C-64.1719 119.968 -61.3876 121.413 -58.2939 123.167ZM163.523 190.545L280.258 258.439V413.213V567.883L275.926 565.2C273.451 563.756 267.161 560.144 262.005 557.152L252.414 551.786V474.812V397.735L160.12 343.977C109.383 314.364 67.6188 290.219 67.3094 290.219C67.0001 290.219 66.7938 312.507 66.7938 339.644V389.068L55.2441 395.775L43.5912 402.585L43.0756 363.685C42.7662 342.326 42.4568 278.663 42.2506 222.222L42.0444 119.762L44.313 121.207C45.6537 122.032 99.2774 153.296 163.523 190.545ZM624.996 151.13C651.189 166.504 672.742 179.092 672.845 179.195C673.567 179.814 655.933 189.101 654.592 188.894C652.633 188.482 556.626 132.144 556.626 131.318C556.626 131.009 560.545 128.636 565.185 126.056C571.682 122.342 574.054 121.516 575.497 122.238C576.529 122.754 598.803 135.755 624.996 151.13ZM-35.9163 136.271C-33.7507 137.613 -32.4101 139.057 -32.8226 139.47C-34.2663 140.708 -130.995 197.355 -131.717 197.355C-132.748 197.355 -148.732 187.759 -148.732 187.14C-148.732 186.831 -126.355 173.417 -99.0273 157.424L-49.3222 128.326L-44.6817 131.112C-42.0005 132.557 -38.185 134.93 -35.9163 136.271ZM603.65 161.964C630.462 177.751 652.014 191.061 651.602 191.474C650.055 193.125 636.855 200.451 635.515 200.451C633.762 200.451 537.033 143.804 537.033 142.875C537.033 141.946 551.676 133.589 553.429 133.485C554.254 133.382 576.838 146.28 603.65 161.964ZM-207.203 144.835L-204.315 146.589L-207.822 148.756C-209.781 149.891 -211.74 150.923 -212.05 150.923C-212.462 150.923 -216.896 148.55 -221.949 145.558L-231.127 140.192L-227.312 137.922L-223.496 135.549L-216.793 139.264C-213.081 141.327 -208.75 143.804 -207.203 144.835ZM-19.9323 145.454C-15.3949 148.137 -11.7856 150.407 -11.8887 150.51C-12.8168 151.439 -110.886 208.705 -111.505 208.705C-112.949 208.705 -128.211 199.728 -128.211 198.903C-128.211 197.974 -31.0695 140.708 -29.4196 140.605C-28.8008 140.605 -24.4697 142.772 -19.9323 145.454ZM855.166 193.847L854.547 199.006L841.657 206.435L828.87 213.761L829.076 185.799L829.385 157.733L842.276 150.201L855.166 142.772L855.475 165.678C855.681 178.266 855.475 190.958 855.166 193.847ZM583.953 173.52C631.184 201.276 633.04 202.411 630.668 203.856C629.327 204.681 625.409 207.054 621.799 209.118L615.303 212.833L566.629 184.354C539.817 168.67 517.542 155.566 517.13 155.154C516.305 154.328 531.361 144.939 533.63 144.835C534.248 144.732 556.935 157.733 583.953 173.52ZM-186.372 156.805C-184.31 158.043 -184.31 158.043 -186.372 159.59C-190.6 162.892 -192.559 162.583 -201.325 157.527L-209.781 152.574L-205.862 150.304L-201.944 147.931L-195.138 151.749C-191.425 153.812 -187.506 156.082 -186.372 156.805ZM473.097 220.468V293.212L465.775 288.981C460.206 285.782 458.041 284.957 456.7 285.782C455.772 286.298 420.401 306.832 378.018 331.492L300.882 376.067L300.676 419.61C300.573 443.445 300.469 483.892 300.469 509.482C300.366 534.968 299.954 556.43 299.541 557.152C299.129 557.771 296.138 559.835 292.838 561.589C289.642 563.446 285.929 565.716 284.692 566.541L282.32 567.986V413.419V258.749L377.502 203.34C429.785 172.901 472.684 147.931 472.89 147.931C472.994 147.828 473.097 180.536 473.097 220.468ZM-0.338989 156.701C6.4671 160.622 7.91083 161.757 6.77643 162.789C4.71399 164.646 -88.715 219.127 -90.7775 219.746C-92.7368 220.262 -108.618 211.801 -108.205 210.459C-107.999 209.634 -10.6512 152.058 -9.41376 151.955C-9.00128 151.955 -4.97949 154.122 -0.338989 156.701ZM561.885 184.045C588.182 199.419 610.353 212.626 611.075 213.348C612.209 214.38 611.075 215.412 604.475 219.127C600.041 221.603 596.019 223.77 595.606 223.976C594.678 224.389 496.815 167.226 496.815 166.194C496.815 165.575 512.18 156.185 513.418 156.082C513.83 156.082 535.589 168.67 561.885 184.045ZM-173.276 164.13C-168.841 166.607 -165.026 168.98 -164.819 169.393C-164.51 169.805 -166.057 171.147 -168.119 172.282L-171.935 174.449L-180.391 169.599C-185.032 167.02 -188.95 164.543 -188.95 164.13C-188.95 163.408 -182.557 159.281 -181.732 159.487C-181.422 159.59 -177.607 161.654 -173.276 164.13ZM826.601 199.832L826.292 213.761L803.295 200.451C790.611 193.228 780.299 186.934 780.299 186.521C780.299 186.108 790.611 179.814 803.295 172.488L826.292 159.281L826.601 172.591C826.704 179.917 826.704 192.196 826.601 199.832ZM19.6667 168.258C23.9979 170.734 27.6072 173.107 27.6072 173.417C27.6072 173.83 5.33276 187.243 -21.9948 203.34L-71.4936 232.437L-79.7433 227.691C-84.1777 225.111 -88.0963 222.635 -88.3026 222.325C-88.715 221.603 10.1795 163.099 11.1076 163.615C11.417 163.718 15.2325 165.781 19.6667 168.258ZM543.529 196.839L592.719 225.627L588.285 228.31C585.913 229.754 581.891 232.231 579.313 233.675L574.672 236.358L525.689 207.57C498.774 191.783 476.603 178.473 476.5 178.06C476.19 177.235 492.69 167.432 493.824 167.742C494.134 167.845 516.511 180.949 543.529 196.839ZM39.7757 185.386L39.4663 190.648L-4.8764 216.753C-29.2133 231.096 -49.7347 243.065 -50.4565 243.375C-51.5909 243.89 -68.2968 234.81 -68.2968 233.572C-68.2968 233.263 -46.0223 219.849 -18.6948 203.856L30.804 174.861L35.4445 177.441L40.085 180.021L39.7757 185.386ZM524.142 209.221C548.582 223.46 569.413 235.636 570.444 236.255C572.61 237.493 571.888 238.009 559.616 245.025L554.873 247.811L515.068 224.389L475.159 201.07V190.958V180.743L477.531 181.981C478.768 182.703 499.805 194.879 524.142 209.221ZM39.9819 203.443V213.658L4.40466 234.501C-15.1887 245.954 -31.482 255.137 -31.9976 254.931C-37.1537 252.764 -48.7035 245.438 -47.9816 244.819C-47.1566 243.89 39.0538 193.228 39.6725 193.228C39.8788 193.228 39.9819 197.768 39.9819 203.443ZM514.655 226.659C534.867 238.628 551.47 248.637 551.47 249.049C551.47 249.772 535.486 259.265 534.248 259.265C533.939 259.265 520.43 251.526 504.343 242.136L475.159 225.008V214.69C475.159 206.745 475.469 204.475 476.5 204.784C477.222 204.991 494.443 214.793 514.655 226.659ZM39.2601 237.699C38.7444 238.215 27.2979 245.129 13.7888 253.074L-10.7544 267.519L-19.9323 262.154C-25.8103 258.645 -28.6977 256.479 -27.8727 255.963C-27.1509 255.55 -11.6825 246.47 6.4671 235.842L39.4663 216.341L39.7757 226.659C39.8788 232.334 39.6725 237.287 39.2601 237.699ZM504.652 244.819C519.399 253.486 531.464 260.606 531.67 260.812C532.083 261.225 515.48 270.615 514.346 270.615C513.211 270.615 479.078 250.907 476.5 248.74C475.572 248.018 475.159 244.406 475.159 237.906C475.159 229.961 475.469 228.207 476.603 228.619C477.428 228.929 490.009 236.255 504.652 244.819ZM39.9819 251.216V261.844L25.8541 270.099C18.0168 274.639 11.1076 278.456 10.4889 278.663C9.14825 278.972 -7.45447 269.789 -7.45447 268.654C-7.45447 268.035 37.8163 240.898 39.2601 240.795C39.6725 240.692 39.9819 245.438 39.9819 251.216ZM497.021 263.598C504.858 268.138 511.252 272.162 511.252 272.575C511.149 273.401 495.784 281.965 494.134 281.965C493.412 281.965 488.874 279.591 484.028 276.702L475.159 271.337V261.122V250.804L478.975 253.074C481.14 254.312 489.184 259.058 497.021 263.598ZM39.9819 275.155V285.886L35.3414 288.568L30.804 291.251L21.4199 285.989L12.0357 280.623L25.751 272.575C33.2789 268.138 39.5695 264.424 39.7757 264.424C39.8788 264.424 39.9819 269.273 39.9819 275.155ZM484.028 279.076C488.256 281.552 491.659 283.719 491.659 284.028C491.659 284.441 478.975 291.767 475.984 293.108C475.469 293.315 475.159 289.291 475.159 284.131C475.159 278.972 475.469 274.742 475.881 274.742C476.19 274.742 479.903 276.702 484.028 279.076ZM479.284 299.196C495.474 308.483 498.362 310.443 497.021 311.475C488.874 316.943 345.018 399.696 343.987 399.386C342.028 398.973 305.007 377.511 305.007 376.892C305.007 376.067 457.01 288.259 458.556 288.259C459.278 288.156 468.662 293.108 479.284 299.196ZM81.5403 300.847C85.3558 303.014 88.4495 305.078 88.4495 305.181C88.4495 305.387 84.8402 307.657 80.3029 310.237C69.5781 316.634 68.8563 316.221 68.8563 304.768C68.8563 299.815 69.1656 295.378 69.475 295.069C70.1968 294.347 71.7437 295.069 81.5403 300.847ZM100.412 311.578C105.155 314.364 109.074 316.737 109.074 317.047C109.074 317.872 94.1213 326.333 92.6776 326.333C90.2026 326.333 74.9405 316.737 75.8686 315.808C77.2092 314.467 89.7901 306.935 90.9244 306.832C91.337 306.728 95.6681 308.895 100.412 311.578ZM541.673 364.51C562.916 392.06 580.241 414.967 580.035 415.379C579.622 416.824 427.31 504.942 426.176 504.426C425.042 504.013 347.184 403.823 346.978 402.378C346.875 401.966 381.318 381.536 423.598 356.875C481.45 323.238 500.734 312.403 501.662 313.332C502.384 313.951 520.327 336.961 541.673 364.51ZM105.774 337.064C119.489 345.009 130.73 351.716 130.73 352.025C130.627 352.851 115.571 361.415 114.127 361.415C113.508 361.415 103.093 355.74 90.9244 348.724L68.9594 336.135L68.8563 326.023V315.912L74.8373 319.317C78.1373 321.174 92.0588 329.222 105.774 337.064ZM121.346 323.96C125.883 326.643 129.389 329.119 129.08 329.532C128.77 330.151 116.705 337.374 114.024 338.509C113.096 338.921 95.6681 329.222 95.6681 328.397C95.6681 327.571 110.415 319.214 111.858 319.11C112.477 319.11 116.808 321.277 121.346 323.96ZM141.558 335.723L150.529 340.985L142.589 345.525C138.155 348.001 134.133 350.065 133.617 350.065C132.483 350.065 121.139 343.874 117.943 341.501C116.086 340.159 116.499 339.747 124.13 335.31C128.564 332.627 132.38 330.46 132.483 330.46C132.483 330.46 136.608 332.834 141.558 335.723ZM94.9462 353.676C103.815 358.732 111.136 363.169 111.136 363.479C111.033 363.788 103.402 368.328 94.0181 373.694L77.0029 383.393L73.1874 381.226L69.3718 379.059L69.0625 358.836L68.8563 338.612L73.8061 341.501C76.4873 343.049 86.0777 348.517 94.9462 353.676ZM161.254 347.176C165.482 349.549 168.885 351.716 168.885 352.025C168.885 352.438 135.061 372.146 93.8119 395.878C52.5629 419.713 -15.2917 458.922 -56.9533 482.964C-98.6148 507.108 -141.823 531.975 -152.857 538.373C-163.891 544.77 -204.522 568.192 -243.09 590.48C-281.657 612.767 -313.935 631.237 -314.863 631.443C-316.925 632.062 -332.6 623.395 -331.569 622.363C-331.053 621.847 -247.008 573.145 -144.607 514.022C55.9659 398.251 75.4561 387.004 120.933 360.486C137.433 350.89 151.457 343.049 152.282 342.945C153.004 342.842 157.129 344.803 161.254 347.176ZM214.053 377.924L250.352 398.973V408.157V417.237L248.083 415.999C245.505 414.657 172.288 371.836 162.388 365.852L156.304 362.24L163.935 357.804C171.36 353.573 171.566 353.573 174.66 355.121C176.413 356.05 194.15 366.265 214.053 377.924ZM205.494 393.608C238.08 412.8 249.939 420.229 250.146 421.777C250.352 423.324 248.805 424.769 243.546 427.658C239.833 429.825 236.224 431.579 235.605 431.579C234.265 431.579 136.917 374.519 136.917 373.797C136.917 373.487 140.836 371.114 145.476 368.535L153.932 363.685L157.542 365.646C159.501 366.677 181.157 379.266 205.494 393.608ZM184.044 404.442C210.856 420.229 232.821 433.333 232.821 433.643C232.821 433.952 228.799 436.429 223.953 439.111L215.187 444.064L166.513 415.483C139.701 399.799 117.427 386.695 117.014 386.282C116.086 385.457 131.349 375.964 133.72 375.964C134.545 375.861 157.232 388.758 184.044 404.442ZM327.488 393.092L343.265 402.275L383.999 454.795L424.629 507.418V567.47C424.629 600.592 424.32 627.625 424.01 627.625C423.701 627.625 396.27 611.942 363.168 592.853L302.944 558.081V468.415V378.853L307.379 381.432C309.751 382.877 318.825 388.139 327.488 393.092ZM161.77 415.173C188.066 430.65 210.237 443.755 210.959 444.477C212.094 445.509 210.856 446.644 204.05 450.565C199.513 453.144 195.491 455.311 195.078 455.311C193.841 455.311 96.6993 398.148 96.6993 397.323C96.6993 396.703 112.065 387.314 113.302 387.211C113.715 387.211 135.473 399.799 161.77 415.173ZM142.795 427.555C169.916 443.445 192.191 456.652 192.397 456.859C192.603 456.962 188.891 459.335 184.25 462.018C177.444 465.939 175.279 466.764 173.423 466.042C170.226 464.804 76.1779 409.498 76.1779 408.879C76.0748 408.466 91.8525 399.077 93.2963 398.664C93.3994 398.561 115.674 411.562 142.795 427.555ZM123.821 439.73C150.323 455.311 171.979 468.415 171.979 468.725C171.979 469.137 170.432 470.169 168.679 471.098C166.823 472.026 163.007 474.193 160.12 475.844L154.964 478.94L105.98 450.152C79.0654 434.365 56.894 421.054 56.7909 420.539C56.3784 419.3 71.1249 411.046 73.4968 411.252C74.7343 411.355 97.3181 424.253 123.821 439.73ZM581.375 478.424V538.682L505.374 582.844C463.609 607.195 428.754 627.213 428.032 627.419C426.898 627.729 426.692 616.791 426.898 567.78L427.207 507.728L504.033 462.946C546.314 438.389 580.963 418.268 581.169 418.165C581.272 418.165 581.375 445.302 581.375 478.424ZM101.03 449.739C126.708 464.804 148.879 477.805 150.22 478.733C152.592 480.281 152.489 480.281 143.723 485.337L134.752 490.496L85.2527 461.399C58.1315 445.405 36.0633 432.095 36.3726 431.785C37.507 430.547 51.9442 422.499 53.0785 422.396C53.6972 422.293 75.2498 434.674 101.03 449.739ZM250.146 446.54C249.939 446.747 84.634 542.294 -117.28 658.89C-392.927 817.997 -485.634 871.961 -489.243 875.469C-491.821 878.049 -495.534 883.105 -497.39 886.716C-500.38 892.598 -500.793 894.248 -500.896 901.781V910.242L-507.599 906.527C-511.311 904.464 -515.539 901.987 -517.086 900.852C-524.511 895.693 -519.664 877.12 -507.908 865.873C-505.743 863.81 -471.918 843.689 -432.835 821.092C-366.218 782.708 -301.663 745.356 -291.042 739.269C-288.463 737.721 -165.748 666.835 -18.2823 581.503L249.836 426.523L250.146 436.429C250.249 441.897 250.249 446.437 250.146 446.54ZM83.1902 462.534C109.796 478.114 131.658 491.218 131.761 491.631C131.761 492.56 115.365 501.949 114.23 501.537C111.136 500.505 16.3669 444.374 16.5731 443.755C16.8824 442.516 32.1446 433.746 33.4852 433.952C34.1039 434.055 56.4815 446.953 83.1902 462.534ZM61.947 473.471C88.7589 489.155 111.033 502.362 111.446 502.775C112.271 503.497 96.8024 513.093 94.74 513.093C93.1932 513.093 -3.32953 456.24 -3.32953 455.311C-3.32953 454.589 11.6232 445.199 12.9638 444.993C13.17 444.993 35.2383 457.787 61.947 473.471ZM250.146 469.963L249.836 489.774L-117.693 702.02C-319.916 818.822 -486.562 914.679 -488.006 914.988C-492.027 915.917 -495.946 913.956 -497.905 910.242C-501.824 902.503 -496.771 886.097 -487.696 877.327C-484.706 874.437 -368.796 806.853 -117.28 661.676C84.1183 545.389 249.115 450.152 249.63 450.152C250.043 450.152 250.249 459.026 250.146 469.963ZM47.5099 488.432L92.5744 514.95L84.1183 519.903C79.3748 522.586 75.1467 524.753 74.528 524.753C73.0843 524.649 -23.3353 467.899 -23.6447 466.867C-23.7478 466.455 -20.0354 463.978 -15.3949 461.399L-6.93884 456.549L-2.29834 459.335C0.279724 460.78 22.6573 473.884 47.5099 488.432ZM23.3792 497.616C50.088 513.196 71.8468 526.197 71.9499 526.507C71.9499 526.816 68.0312 529.189 63.2876 531.975L54.6253 536.825L5.22961 507.831C-21.8916 491.941 -44.1661 478.733 -44.3723 478.527C-45.0942 477.908 -28.4915 468.931 -26.8415 469.034C-25.8103 469.137 -3.22644 482.035 23.3792 497.616ZM3.06403 509.069L52.4598 538.166L43.6943 543.222C38.8476 546.008 34.5164 548.175 34.1039 547.865C28.6384 544.976 -62.0063 491.837 -62.9344 490.909C-64.0687 489.877 -62.7281 488.742 -56.2314 484.924C-51.7972 482.345 -47.7754 480.281 -47.2598 480.178C-46.7441 480.075 -24.1603 493.179 3.06403 509.069ZM-17.4573 520.419C8.73578 535.793 30.5978 548.691 31.0103 549.104C31.7321 549.826 17.9137 558.7 14.5106 559.731C12.8607 560.247 -84.7964 502.362 -83.9714 501.537C-81.5996 499.163 -67.5749 491.631 -66.4406 492.044C-65.6156 492.25 -43.6505 505.045 -17.4573 520.419ZM250.352 509.998V527.539L244.99 524.443C241.999 522.689 235.193 518.871 230.037 515.879C224.778 512.99 220.549 510.204 220.756 509.688C220.962 508.863 248.186 492.663 249.63 492.56C250.043 492.457 250.352 500.402 250.352 509.998ZM-37.7725 532.388C-10.8575 548.175 11.1076 561.279 11.1076 561.589C11.1076 562.414 -6.42322 572.113 -7.35132 571.701C-9.62006 570.875 -105.318 514.538 -105.421 514.125C-105.421 513.196 -89.6431 504.013 -87.9932 503.91C-87.1682 503.807 -64.5844 516.704 -37.7725 532.388ZM-58.8095 544.254C-2.71082 577.169 -7.14508 572.939 -20.6542 580.368L-27.5634 584.082L-76.2372 555.604C-103.049 539.92 -125.117 526.61 -125.22 525.991C-125.427 525.269 -110.886 515.776 -108.721 515.26C-108.515 515.157 -86.0339 528.261 -58.8095 544.254ZM-81.5996 554.985C-55.819 570.05 -33.6476 583.154 -32.307 583.979L-29.832 585.63L-33.8538 588.003C-36.0194 589.345 -40.2474 591.718 -43.1349 593.266L-48.3941 595.948L-97.4805 567.161C-124.499 551.374 -146.67 538.063 -146.67 537.754C-146.67 537.135 -130.067 527.539 -129.036 527.539C-128.623 527.539 -107.277 539.92 -81.5996 554.985ZM-51.2816 597.806C-51.5909 598.218 -55.6127 600.695 -60.1501 603.274L-68.6061 608.021L-78.5059 602.346C-116.043 580.781 -166.573 550.548 -166.573 549.723C-166.469 549.207 -162.757 546.627 -158.117 543.945L-149.66 539.198L-100.265 568.089C-73.1436 583.979 -51.0753 597.393 -51.2816 597.806ZM-120.58 580.265C-94.3868 595.639 -72.6279 608.537 -72.2155 608.949C-70.978 610.084 -87.9932 619.577 -90.0556 619.061C-92.4274 618.442 -187.919 562.311 -187.919 561.589C-187.919 560.454 -170.801 551.374 -169.563 551.786C-168.738 552.096 -146.67 564.891 -120.58 580.265ZM-143.679 590.686C-118.414 605.544 -96.3461 618.442 -94.6962 619.474L-91.8087 621.228L-95.7274 623.704C-97.9961 625.149 -102.121 627.522 -104.905 629.173L-110.061 631.959L-159.87 602.862L-209.678 573.764L-201.119 568.708C-196.375 565.922 -191.941 563.652 -191.116 563.652C-190.291 563.652 -168.944 575.828 -143.679 590.686ZM-162.963 603.481C-136.151 619.164 -113.774 632.372 -113.361 632.785C-112.536 633.507 -128.727 643.412 -130.686 643.412C-131.202 643.412 -153.064 630.927 -179.154 615.553C-205.244 600.282 -227.415 587.281 -228.549 586.662C-230.199 585.733 -229.168 584.908 -221.331 580.368C-216.278 577.479 -212.05 575.002 -211.947 575.002C-211.843 575.002 -189.775 587.797 -162.963 603.481ZM-184.619 614.831C-158.941 629.895 -136.77 642.896 -135.43 643.825C-133.058 645.373 -133.161 645.476 -142.648 650.841L-152.135 656.31L-159.457 651.976C-163.479 649.603 -185.65 636.499 -208.75 622.982C-231.952 609.362 -250.824 598.012 -250.824 597.703C-250.721 596.98 -234.118 587.487 -232.571 587.487C-231.952 587.384 -210.4 599.766 -184.619 614.831ZM-365.805 607.195C-349.718 616.069 -347.037 617.823 -348.584 618.855C-349.512 619.474 -367.662 629.895 -388.802 641.968L-427.163 663.842L-444.694 653.731C-458.1 645.992 -461.812 643.309 -460.884 642.38C-459.234 640.833 -386.636 596.774 -385.605 596.671C-385.192 596.671 -376.221 601.417 -365.805 607.195ZM-203.8 628.348C-176.885 644.135 -154.92 657.239 -154.92 657.548C-154.92 657.858 -158.838 660.231 -163.582 662.914L-172.141 667.867L-221.537 638.872C-248.761 622.879 -271.036 609.775 -271.242 609.569C-271.758 609.156 -255.567 599.973 -254.021 599.869C-253.196 599.766 -230.612 612.664 -203.8 628.348ZM-226.487 638.46C-201.634 653.008 -179.669 665.906 -177.813 667.144L-174.307 669.208L-182.969 674.161C-187.61 676.947 -191.838 679.217 -192.147 679.217C-192.972 679.217 -289.185 622.673 -290.32 621.538C-291.351 620.506 -275.573 611.116 -273.408 611.529C-272.583 611.735 -251.442 623.808 -226.487 638.46ZM-324.659 629.895C-314.038 635.777 -305.479 640.833 -305.479 641.142C-305.479 642.277 -384.78 687.678 -386.224 687.265C-387.667 686.955 -425.101 665.39 -424.791 665.081C-424.07 664.358 -345.078 619.474 -344.459 619.371C-344.047 619.371 -335.178 624.117 -324.659 629.895ZM-244.224 651.461C-218.134 666.835 -196.272 679.732 -195.859 680.248C-195.034 680.971 -206.481 688.4 -211.018 690.154C-212.668 690.773 -310.841 633.92 -310.429 632.578C-309.81 631.03 -294.651 622.569 -293.207 623.085C-292.485 623.292 -270.417 636.086 -244.224 651.461ZM-257.32 667.041C-233.912 680.764 -215.04 692.321 -215.556 692.733C-215.968 693.146 -219.887 695.623 -224.321 698.099L-232.365 702.742L-266.911 682.415L-301.354 662.191V652.08C-301.354 646.611 -301.044 642.071 -300.632 642.071C-300.219 642.071 -280.832 653.318 -257.32 667.041ZM-303.416 687.162L-303.519 730.292L-343.634 753.198L-383.852 776.105V732.975V689.844L-344.356 667.041C-322.7 654.453 -304.654 644.135 -304.138 644.135C-303.726 644.135 -303.416 663.533 -303.416 687.162ZM-424.276 668.382L-386.945 690.051V733.181C-386.945 756.913 -387.255 776.105 -387.667 775.898C-388.183 775.589 -405.301 765.787 -425.823 754.024L-463.256 732.665V694.9C-463.256 674.057 -463.566 654.556 -463.978 651.461C-464.494 646.921 -464.391 646.095 -463.05 646.301C-462.225 646.508 -444.694 656.413 -424.276 668.382ZM-263.92 686.646C-248.246 695.932 -235.355 703.671 -235.355 703.98C-235.355 704.496 -236.593 705.219 -247.214 711.306L-252.474 714.195L-276.604 700.059L-300.838 685.923L-301.148 675.192L-301.457 664.565L-297.023 667.247C-294.548 668.692 -279.698 677.462 -263.92 686.646ZM-278.564 701.504C-266.395 708.624 -256.186 714.711 -255.774 715.124C-255.361 715.537 -258.97 718.116 -263.714 720.799L-272.376 725.752L-286.813 717.394L-301.354 708.933V698.718C-301.354 693.146 -301.148 688.503 -300.941 688.503C-300.735 688.503 -290.629 694.384 -278.564 701.504ZM-465.525 709.346L-465.834 718.942L-472.022 722.656C-475.425 724.72 -487.49 731.736 -498.833 738.237C-510.177 744.737 -527.089 754.54 -536.473 759.905C-545.857 765.374 -555.138 770.739 -557.098 771.874C-575.35 782.193 -606.803 800.662 -609.484 802.726C-617.734 808.917 -624.231 821.815 -624.231 832.133C-624.231 835.435 -624.643 838.117 -624.952 838.117C-627.634 837.911 -637.327 830.791 -638.874 827.799C-642.896 819.957 -637.843 803.964 -628.562 795.193C-625.159 791.995 -599.069 776.414 -545.239 745.253C-502.133 720.386 -466.453 699.956 -466.04 699.956C-465.628 699.853 -465.422 704.187 -465.525 709.346ZM-287.226 719.664C-280.317 723.688 -274.645 727.093 -274.851 727.196C-274.954 727.3 -278.976 729.673 -283.72 732.355L-292.382 737.308L-296.816 734.832L-301.354 732.355V722.347C-301.354 716.775 -301.044 712.235 -300.632 712.235C-300.219 712.235 -294.238 715.537 -287.226 719.664ZM-470.165 730.395C-467.794 731.943 -465.628 733.49 -465.319 733.8C-465.009 734.213 -462.741 735.657 -460.163 737.102C-433.66 752.166 -378.902 783.947 -377.871 784.875C-376.943 785.804 -378.489 787.145 -384.986 790.963C-389.524 793.646 -393.752 795.813 -394.37 795.813C-395.814 795.813 -493.162 738.753 -493.162 737.927C-493.162 737.308 -476.559 727.712 -475.322 727.712C-474.909 727.712 -472.64 728.95 -470.165 730.395ZM-295.373 738.65C-294.754 739.165 -311.15 748.349 -312.697 748.349C-313.522 748.246 -315.997 747.214 -318.163 745.872L-322.081 743.396L-313.11 738.237L-304.035 733.078L-299.91 735.657C-297.538 737.102 -295.476 738.443 -295.373 738.65ZM-446.447 768.469C-419.532 784.256 -397.567 797.567 -397.773 797.979C-398.495 799.114 -414.892 808.298 -415.717 807.988C-416.129 807.782 -438.61 794.678 -465.628 778.787L-514.714 750L-505.743 744.634C-500.793 741.642 -496.462 739.372 -496.152 739.475C-495.843 739.475 -473.465 752.579 -446.447 768.469ZM-319.503 747.42C-317.441 748.658 -315.791 749.896 -315.791 750.309C-315.791 750.722 -319.606 753.198 -324.247 755.881L-332.703 760.627L-336.415 758.461C-338.375 757.222 -340.437 755.881 -340.953 755.468C-341.778 754.746 -326.619 745.356 -324.35 745.253C-323.731 745.253 -321.463 746.182 -319.503 747.42ZM-467.175 780.335C-440.879 795.813 -419.017 808.71 -418.604 809.226C-417.779 809.949 -435.001 820.267 -436.341 819.854C-438.094 819.338 -533.895 762.691 -534.101 762.072C-534.514 760.834 -517.602 751.341 -516.158 751.857C-515.539 752.166 -493.471 764.961 -467.175 780.335ZM-339.509 758.873C-337.24 760.215 -335.384 761.556 -335.384 761.866C-335.384 762.175 -339.406 764.652 -344.253 767.437L-353.121 772.39L-357.659 769.914C-360.134 768.572 -362.196 767.231 -362.196 766.922C-362.196 766.199 -345.593 756.603 -344.356 756.603C-343.943 756.603 -341.675 757.635 -339.509 758.873ZM-487.077 792.717C-460.369 808.298 -438.61 821.299 -438.507 821.608C-438.507 822.021 -449.438 828.418 -455.109 831.204C-456.347 831.926 -469.34 824.704 -506.465 803.035L-556.066 773.835L-547.61 768.882C-542.867 766.096 -538.226 763.929 -537.298 764.136C-536.267 764.239 -513.683 777.137 -487.077 792.717ZM-360.546 770.636C-358.071 772.081 -356.009 773.525 -356.009 773.732C-356.009 773.938 -360.03 776.414 -364.877 779.303L-373.746 784.566L-378.799 781.573L-383.852 778.684L-374.777 773.422C-369.827 770.533 -365.702 768.057 -365.496 768.057C-365.29 767.953 -363.124 769.192 -360.546 770.636ZM-509.352 803.758C-482.643 819.441 -460.266 832.545 -459.853 832.958C-459.028 833.68 -475.115 843.586 -477.178 843.586C-478.003 843.586 -574.319 787.661 -576.485 786.01C-576.794 785.804 -559.16 775.279 -558.335 775.176C-558.232 775.176 -536.164 787.971 -509.352 803.758ZM-531.214 815.004C-505.433 830.069 -483.262 843.173 -481.921 843.999C-479.446 845.546 -479.55 845.65 -488.109 850.602C-492.852 853.388 -497.493 855.452 -498.421 855.246C-499.762 854.936 -566.688 816.139 -591.438 801.281L-597.419 797.67L-588.859 792.614C-584.116 789.931 -579.785 787.661 -579.166 787.661C-578.547 787.558 -556.995 799.94 -531.214 815.004ZM-546.889 829.863C-502.34 856.071 -500.38 857.309 -502.649 858.651C-503.99 859.476 -507.702 862.881 -511.002 866.183C-514.302 869.485 -517.189 872.167 -517.499 872.167C-517.911 872.167 -540.392 859.063 -567.513 843.173L-617.012 814.179L-613.506 809.845C-611.546 807.575 -607.731 804.17 -605.05 802.313C-600.1 799.011 -600.1 799.011 -596.8 800.765C-594.944 801.694 -572.463 814.798 -546.889 829.863ZM-562.048 848.848L-518.221 874.644L-520.799 881.763C-522.345 886.303 -523.17 890.637 -522.861 893.423C-522.758 895.796 -522.758 897.654 -523.067 897.447C-538.02 889.089 -620.724 840.594 -621.343 839.768C-622.684 837.911 -621.549 824.497 -619.693 820.267L-617.94 816.243L-611.856 819.751C-608.556 821.608 -586.178 834.712 -562.048 848.848ZM-366.733 855.761C-367.043 859.27 -367.352 871.755 -367.352 883.518V904.979L-377.871 910.964C-383.749 914.163 -389.524 917.568 -390.864 918.393L-393.133 919.941L-392.927 891.772L-392.617 863.707L-380.758 856.69C-374.261 852.872 -368.28 849.674 -367.455 849.571C-366.321 849.467 -366.115 850.706 -366.733 855.761ZM-395.195 892.804C-395.195 907.559 -395.402 919.631 -395.711 919.631C-396.639 919.631 -439.847 894.764 -441.291 893.423C-442.322 892.494 -437.372 889.193 -420.151 879.184C-407.879 872.064 -397.155 866.08 -396.433 866.08C-395.505 865.977 -395.195 871.961 -395.195 892.804Z" fill="black"/>
</mask>
<g mask="url(#mask0_406_3771)">
<path d="M39.999 117.5L40.999 403.5L0.635742 426.386L144.614 512.191V553L216.999 510.5L250.499 530V553L280.999 571L300.999 559L425.499 632L583.499 540.5V414.5L499.499 308.5L474.999 294L475.499 143.5L228.499 3.99951L39.999 117.5Z" fill="#B0AFB3"/>
</g>
</svg>
