<svg width="562" height="13" viewBox="0 0 562 13" fill="white" xmlns="http://www.w3.org/2000/svg">
<path d="M-13.5 21.5L7 1" stroke="black"/>
<path d="M-6 21.5L14.5 1" stroke="#B0AFB3"/>
<path d="M1.5 21.5L22 1" stroke="#B0AFB3"/>
<path d="M9 21.5L29.5 1" stroke="#B0AFB3"/>
<path d="M16.5 21.5L37 1" stroke="#B0AFB3"/>
<path d="M24 21.5L44.5 1" stroke="#B0AFB3"/>
<path d="M31.5 21.5L52 1" stroke="#B0AFB3"/>
<path d="M39 21.5L59.5 1" stroke="#B0AFB3"/>
<path d="M46.5 21.5L67 1" stroke="#B0AFB3"/>
<path d="M54 21.5L74.5 1" stroke="#B0AFB3"/>
<path d="M61.5 21.5L82 1" stroke="#B0AFB3"/>
<path d="M69 21.5L89.5 1" stroke="#B0AFB3"/>
<path d="M76.5 21.5L97 1" stroke="#B0AFB3"/>
<path d="M84 21.5L104.5 1" stroke="#B0AFB3"/>
<path d="M91.5 21.5L112 1" stroke="#B0AFB3"/>
<path d="M99 21.5L119.5 1" stroke="#B0AFB3"/>
<path d="M106.5 21.5L127 1" stroke="#B0AFB3"/>
<path d="M114 21.5L134.5 1" stroke="#B0AFB3"/>
<path d="M121.5 21.5L142 1" stroke="#B0AFB3"/>
<path d="M129 21.5L149.5 1" stroke="#B0AFB3"/>
<path d="M136.5 21.5L157 1" stroke="#B0AFB3"/>
<path d="M144 21.5L164.5 1" stroke="#B0AFB3"/>
<path d="M151.5 21.5L172 1" stroke="#B0AFB3"/>
<path d="M159 21.5L179.5 1" stroke="#B0AFB3"/>
<path d="M166.5 21.5L187 1" stroke="#B0AFB3"/>
<path d="M174 21.5L194.5 1" stroke="#B0AFB3"/>
<path d="M181.5 21.5L202 1" stroke="#B0AFB3"/>
<path d="M189 21.5L209.5 1" stroke="#B0AFB3"/>
<path d="M196.5 21.5L217 1" stroke="#B0AFB3"/>
<path d="M204 21.5L224.5 1" stroke="#B0AFB3"/>
<path d="M211.5 21.5L232 1" stroke="#B0AFB3"/>
<path d="M219 21.5L239.5 1" stroke="#B0AFB3"/>
<path d="M226.5 21.5L247 1" stroke="#B0AFB3"/>
<path d="M234 21.5L254.5 1" stroke="#B0AFB3"/>
<path d="M241.5 21.5L262 1" stroke="#B0AFB3"/>
<path d="M249 21.5L269.5 1" stroke="#B0AFB3"/>
<path d="M256.5 21.5L277 1" stroke="#B0AFB3"/>
<path d="M264 21.5L284.5 1" stroke="#B0AFB3"/>
<path d="M271.5 21.5L292 1" stroke="#B0AFB3"/>
<path d="M279 21.5L299.5 1" stroke="#B0AFB3"/>
<path d="M286.5 21.5L307 1" stroke="#B0AFB3"/>
<path d="M294 21.5L314.5 1" stroke="#B0AFB3"/>
<path d="M301.5 21.5L322 1" stroke="#B0AFB3"/>
<path d="M309 21.5L329.5 1" stroke="#B0AFB3"/>
<path d="M316.5 21.5L337 1" stroke="#B0AFB3"/>
<path d="M324 21.5L344.5 1" stroke="#B0AFB3"/>
<path d="M331.5 21.5L352 1" stroke="#B0AFB3"/>
<path d="M339 21.5L359.5 1" stroke="#B0AFB3"/>
<path d="M346.5 21.5L367 1" stroke="#B0AFB3"/>
<path d="M354 21.5L374.5 1" stroke="#B0AFB3"/>
<path d="M361.5 21.5L382 1" stroke="#B0AFB3"/>
<path d="M369 21.5L389.5 1" stroke="#B0AFB3"/>
<path d="M376.5 21.5L397 1" stroke="#B0AFB3"/>
<path d="M384 21.5L404.5 1" stroke="#B0AFB3"/>
<path d="M391.5 21.5L412 1" stroke="#B0AFB3"/>
<path d="M399 21.5L419.5 1" stroke="#B0AFB3"/>
<path d="M406.5 21.5L427 1" stroke="#B0AFB3"/>
<path d="M414 21.5L434.5 1" stroke="#B0AFB3"/>
<path d="M421.5 21.5L442 1" stroke="#B0AFB3"/>
<path d="M429 21.5L449.5 1" stroke="#B0AFB3"/>
<path d="M436.5 21.5L457 1" stroke="#B0AFB3"/>
<path d="M444 21.5L464.5 1" stroke="#B0AFB3"/>
<path d="M451.5 21.5L472 1" stroke="#B0AFB3"/>
<path d="M459 21.5L479.5 1" stroke="#B0AFB3"/>
<path d="M466.5 21.5L487 1" stroke="#B0AFB3"/>
<path d="M474 21.5L494.5 1" stroke="#B0AFB3"/>
<path d="M481.5 21.5L502 1" stroke="#B0AFB3"/>
<path d="M489 21.5L509.5 1" stroke="#B0AFB3"/>
<path d="M496.5 21.5L517 1" stroke="#B0AFB3"/>
<path d="M504 21.5L524.5 1" stroke="#B0AFB3"/>
<path d="M511.5 21.5L532 1" stroke="#B0AFB3"/>
<path d="M519 21.5L539.5 1" stroke="#B0AFB3"/>
<path d="M526.5 21.5L547 1" stroke="#B0AFB3"/>
<path d="M534 21.5L554.5 1" stroke="#B0AFB3"/>
<path d="M541.5 21.5L562 1" stroke="#B0AFB3"/>
<path d="M549 21.5L569.5 1" stroke="#B0AFB3"/>
</svg>
