<svg width="34" height="32" viewBox="0 0 34 32" fill="none" xmlns="http://www.w3.org/2000/svg">
<path d="M32.9133 26.2526L27.0595 15.427C27.6567 14.0716 27.9908 12.5736 27.9908 10.9976C27.9908 4.92361 23.0667 0 16.9932 0C10.9182 0 5.9946 4.92411 5.9946 10.9976C5.9946 12.6116 6.34521 14.1431 6.96942 15.5236L1.08949 26.2476C0.899899 26.5922 0.931409 27.0173 1.16849 27.3319C1.40606 27.6456 1.8072 27.7931 2.19029 27.7031L7.21143 26.5512L8.92999 31.3378C9.06404 31.7099 9.40365 31.968 9.79728 31.997C9.82282 31.999 9.84729 32 9.8713 32C10.0522 31.9999 10.2297 31.9508 10.3848 31.8579C10.54 31.765 10.6671 31.6317 10.7526 31.4723L15.8698 21.9387C16.2429 21.9765 16.6176 21.9954 16.9926 21.9953C17.3402 21.9953 17.6833 21.9773 18.0224 21.9452L23.2506 31.4799C23.3432 31.6489 23.4826 31.7875 23.652 31.8792C23.8215 31.9709 24.0139 32.0116 24.206 31.9965C24.5986 31.965 24.9367 31.7074 25.0697 31.3373L26.7883 26.5507L31.8094 27.7026C32.1945 27.7956 32.5917 27.646 32.8293 27.3334C33.0678 27.0213 33.0998 26.5982 32.9133 26.2526H32.9133ZM10.0533 28.5463L8.79483 25.0402C8.62277 24.5635 8.12364 24.2859 7.62944 24.4035L3.91573 25.2552L8.14868 17.5347C9.54263 19.4178 11.5233 20.8383 13.8205 21.5295L10.0533 28.5463ZM8.0041 10.9976C8.0041 6.04145 12.0369 2.00913 16.9935 2.00913C21.9497 2.00913 25.982 6.04145 25.982 10.9976C25.982 15.9537 21.9497 19.987 16.9935 19.987C12.0364 19.987 8.0041 15.9537 8.0041 10.9976ZM26.3701 24.4034C25.8739 24.2864 25.3768 24.5635 25.2047 25.0401L23.9378 28.5718L20.088 21.552C22.4463 20.8612 24.475 19.4033 25.8869 17.4652L30.1023 25.2592L26.3701 24.4034Z" fill="#B0AFB3"/>
</svg>
