<svg viewBox="0 0 56 57" fill="none" xmlns="http://www.w3.org/2000/svg">
<rect x="4" y="4.56226" width="48" height="48" rx="24" fill="#FFEBEB"/>
<path d="M36.9996 28.0623C36.9996 32.7567 33.194 36.5623 28.4996 36.5623C27.4228 36.5623 26.3928 36.362 25.4448 35.9968C25.2714 35.93 25.1848 35.8966 25.1159 35.8807C25.0481 35.8651 24.999 35.8586 24.9295 35.8559C24.8588 35.8532 24.7813 35.8612 24.6262 35.8773L19.5052 36.4066C19.0169 36.4571 18.7728 36.4823 18.6288 36.3945C18.5034 36.318 18.4179 36.1902 18.3952 36.045C18.3691 35.8784 18.4857 35.6625 18.7191 35.2306L20.3547 32.2031C20.4894 31.9537 20.5568 31.8291 20.5873 31.7092C20.6174 31.5908 20.6247 31.5055 20.6151 31.3837C20.6053 31.2604 20.5512 31.0999 20.443 30.7789C20.1555 29.9258 19.9996 29.0123 19.9996 28.0623C19.9996 23.3678 23.8052 19.5623 28.4996 19.5623C33.194 19.5623 36.9996 23.3678 36.9996 28.0623Z" stroke="#EE3535" stroke-width="2" stroke-linecap="round" stroke-linejoin="round"/>
<path fill-rule="evenodd" clip-rule="evenodd" d="M28.4965 25.5115C27.5968 24.4727 26.0965 24.1932 24.9692 25.1445C23.842 26.0958 23.6833 27.6862 24.5685 28.8113C25.117 29.5083 26.4935 30.7814 27.4616 31.6492C27.8172 31.968 27.995 32.1274 28.2084 32.1916C28.3914 32.2467 28.6017 32.2467 28.7847 32.1916C28.9981 32.1274 29.1759 31.968 29.5315 31.6492C30.4996 30.7814 31.8761 29.5083 32.4246 28.8113C33.3098 27.6862 33.1705 26.0858 32.0238 25.1445C30.8772 24.2032 29.3963 24.4727 28.4965 25.5115Z" stroke="#EE3535" stroke-width="2" stroke-linecap="round" stroke-linejoin="round"/>
<rect x="4" y="4.56226" width="48" height="48" rx="24" stroke="#FFF5F5" stroke-width="8"/>
</svg>
