<svg viewBox="0 0 167 83" fill="none" xmlns="http://www.w3.org/2000/svg">
<path fill-rule="evenodd" clip-rule="evenodd" d="M124.697 5.34931H41.8695C21.8563 5.34931 5.63252 21.5731 5.63252 41.5863C5.63252 61.5994 21.8563 77.8232 41.8694 77.8232H124.697C144.71 77.8232 160.934 61.5994 160.934 41.5863C160.934 21.5731 144.71 5.34931 124.697 5.34931ZM41.8695 0.172607C18.9973 0.172607 0.455811 18.7141 0.455811 41.5863C0.455811 64.4584 18.9973 82.9999 41.8694 82.9999H124.697C147.569 82.9999 166.11 64.4584 166.11 41.5863C166.11 18.7141 147.569 0.172607 124.697 0.172607H41.8695ZM48.7724 64.0178C61.1615 64.0178 71.2048 53.9745 71.2048 41.5854C71.2048 29.1964 61.1615 19.153 48.7724 19.153C36.3833 19.153 26.34 29.1964 26.34 41.5854C26.34 53.9745 36.3833 64.0178 48.7724 64.0178ZM48.7724 69.1945C64.0205 69.1945 76.3815 56.8335 76.3815 41.5854C76.3815 26.3374 64.0205 13.9763 48.7724 13.9763C33.5243 13.9763 21.1633 26.3374 21.1633 41.5854C21.1633 56.8335 33.5243 69.1945 48.7724 69.1945ZM140.229 41.5854C140.229 53.9745 130.185 64.0178 117.796 64.0178C105.407 64.0178 95.364 53.9745 95.364 41.5854C95.364 29.1964 105.407 19.153 117.796 19.153C130.185 19.153 140.229 29.1964 140.229 41.5854ZM145.405 41.5854C145.405 56.8335 133.044 69.1945 117.796 69.1945C102.548 69.1945 90.1873 56.8335 90.1873 41.5854C90.1873 26.3374 102.548 13.9763 117.796 13.9763C133.044 13.9763 145.405 26.3374 145.405 41.5854Z" fill="#FF4A4A"/>
</svg>
