<svg width="90px" height="45px" preserveAspectRatio="none" viewBox="0 0 90 45" fill="none" xmlns="http://www.w3.org/2000/svg">
<path fill-rule="evenodd" clip-rule="evenodd" d="M67.1888 3.39615H22.8113C12.0886 3.39615 3.39615 12.0886 3.39615 22.8113C3.39615 33.534 12.0886 42.2264 22.8113 42.2264H67.1888C77.9115 42.2264 86.6039 33.534 86.6039 22.8113C86.6039 12.0886 77.9115 3.39615 67.1888 3.39615ZM22.8113 0.622559C10.5568 0.622559 0.622559 10.5568 0.622559 22.8113C0.622559 35.0658 10.5568 45 22.8113 45H67.1888C79.4433 45 89.3775 35.0658 89.3775 22.8113C89.3775 10.5568 79.4433 0.622559 67.1888 0.622559H22.8113ZM26.5151 34.8302C33.1529 34.8302 38.534 29.4491 38.534 22.8113C38.534 16.1734 33.1529 10.7924 26.5151 10.7924C19.8772 10.7924 14.4962 16.1734 14.4962 22.8113C14.4962 29.4491 19.8772 34.8302 26.5151 34.8302ZM26.5151 37.6038C34.6848 37.6038 41.3076 30.9809 41.3076 22.8113C41.3076 14.6416 34.6848 8.01877 26.5151 8.01877C18.3454 8.01877 11.7226 14.6416 11.7226 22.8113C11.7226 30.9809 18.3454 37.6038 26.5151 37.6038ZM75.5119 22.8113C75.5119 29.4491 70.1308 34.8302 63.493 34.8302C56.8551 34.8302 51.4741 29.4491 51.4741 22.8113C51.4741 16.1734 56.8551 10.7924 63.493 10.7924C70.1308 10.7924 75.5119 16.1734 75.5119 22.8113ZM78.2855 22.8113C78.2855 30.9809 71.6626 37.6038 63.493 37.6038C55.3233 37.6038 48.7005 30.9809 48.7005 22.8113C48.7005 14.6416 55.3233 8.01877 63.493 8.01877C71.6626 8.01877 78.2855 14.6416 78.2855 22.8113Z" fill="white"/>
</svg>
