<svg viewBox="0 0 69 26" fill="none" xmlns="http://www.w3.org/2000/svg">
<path d="M10.3515 19.7444C9.28083 20.8308 7.90922 21.3739 6.23672 21.3739C4.56421 21.3739 3.20433 20.8347 2.15706 19.7561C1.11761 18.6776 0.597881 17.2747 0.597881 15.5475C0.597881 13.8203 1.12933 12.4096 2.19223 11.3155C3.25513 10.2135 4.62283 9.66252 6.29533 9.66252C7.96783 9.66252 9.32772 10.2135 10.375 11.3155C11.4301 12.4096 11.9576 13.8203 11.9576 15.5475C11.9576 17.2513 11.4223 18.6503 10.3515 19.7444ZM6.23672 19.381C7.26054 19.381 8.07334 19.0449 8.67513 18.3728C9.27692 17.6929 9.57781 16.7746 9.57781 15.6179V15.5241C9.57781 14.3361 9.28083 13.3944 8.68685 12.6988C8.1007 12.0032 7.30352 11.6555 6.29533 11.6555C5.28714 11.6555 4.48215 12.0032 3.88036 12.6988C3.27857 13.3944 2.97768 14.3361 2.97768 15.5241V15.6179C2.97768 16.7824 3.26685 17.7007 3.84519 18.3728C4.43135 19.0449 5.22852 19.381 6.23672 19.381ZM19.3437 21.456C15.4203 21.456 13.1382 19.6702 12.4973 16.0985H15.0882C15.3226 17.263 15.7642 18.0954 16.4129 18.5956C17.0694 19.0879 18.0189 19.3341 19.2616 19.3341C20.3401 19.3341 21.1764 19.0997 21.7704 18.6307C22.3721 18.154 22.673 17.4936 22.673 16.6495C22.673 16.3447 22.5949 16.0712 22.4386 15.8289C22.2901 15.5866 22.1025 15.3873 21.8759 15.231C21.657 15.0747 21.3444 14.9301 20.938 14.7973C20.5316 14.6566 20.1565 14.5472 19.8126 14.469C19.4765 14.3909 19.031 14.301 18.4762 14.1994C18.0541 14.1134 17.6751 14.0313 17.339 13.9532C17.0029 13.8672 16.6395 13.7578 16.2488 13.6249C15.858 13.4843 15.5141 13.3397 15.2171 13.1912C14.9279 13.0349 14.6388 12.8434 14.3496 12.6167C14.0604 12.3901 13.8221 12.1439 13.6345 11.8782C13.4547 11.6047 13.3062 11.2881 13.189 10.9286C13.0796 10.5613 13.0249 10.1627 13.0249 9.73285C13.0249 8.34952 13.5485 7.20847 14.5958 6.3097C15.6431 5.41092 16.9834 4.96153 18.6168 4.96153C20.4378 4.96153 21.8993 5.41092 23.0013 6.3097C24.1033 7.20065 24.7715 8.52537 25.0059 10.2838H22.4386C22.2745 9.1506 21.872 8.33389 21.2311 7.8337C20.598 7.3257 19.7188 7.0717 18.5934 7.0717C17.6165 7.0717 16.8388 7.30226 16.2605 7.76337C15.6899 8.22448 15.4047 8.8419 15.4047 9.61562C15.4047 9.88135 15.4516 10.1236 15.5454 10.3425C15.647 10.5535 15.7955 10.7371 15.9908 10.8934C16.194 11.0419 16.4129 11.1748 16.6473 11.292C16.8896 11.4093 17.1788 11.5148 17.5149 11.6086C17.8509 11.6945 18.1713 11.7727 18.4762 11.843C18.7888 11.9055 19.1522 11.9759 19.5664 12.054C19.6524 12.0697 19.7188 12.0814 19.7657 12.0892C20.3753 12.2064 20.8989 12.3276 21.3366 12.4526C21.7743 12.5699 22.2432 12.7457 22.7434 12.9802C23.2514 13.2068 23.6617 13.4686 23.9743 13.7656C24.2869 14.0626 24.5487 14.4495 24.7598 14.9262C24.9708 15.3951 25.0763 15.9305 25.0763 16.5323C25.0763 18.0094 24.5644 19.2013 23.5406 20.1078C22.5167 21.0066 21.1178 21.456 19.3437 21.456ZM26.378 21.1864V9.85009H28.7344V11.9954C29.3596 10.4089 30.5202 9.61562 32.2162 9.61562C33.451 9.61562 34.4162 10.022 35.1118 10.8348C35.8073 11.6398 36.1551 12.7926 36.1551 14.2932V21.1864H33.7753V14.4104C33.7753 12.605 33.0172 11.7023 31.501 11.7023C30.6179 11.7023 29.934 12.054 29.4495 12.7574C28.9727 13.4608 28.7344 14.4612 28.7344 15.7586V21.1864H26.378ZM41.2903 21.4794C40.0868 21.4794 39.1333 21.1825 38.4299 20.5885C37.7265 19.9867 37.3748 19.1934 37.3748 18.2087C37.3748 17.8492 37.4139 17.5248 37.492 17.2357C37.5702 16.9387 37.6718 16.6847 37.7968 16.4737C37.9297 16.2548 38.1055 16.0555 38.3244 15.8758C38.551 15.6882 38.7738 15.5358 38.9926 15.4186C39.2114 15.2935 39.4889 15.1763 39.8249 15.0669C40.161 14.9497 40.4697 14.8559 40.7511 14.7855C41.0324 14.7152 41.3802 14.6331 41.7944 14.5393C41.9976 14.4925 42.2516 14.4377 42.5564 14.3752C42.8691 14.3127 43.1035 14.2658 43.2598 14.2345C43.4239 14.2033 43.6154 14.1603 43.8343 14.1056C44.0531 14.0509 44.2172 14.004 44.3266 13.9649C44.4439 13.9258 44.565 13.875 44.69 13.8125C44.8229 13.75 44.9206 13.6836 44.9831 13.6132C45.0535 13.5429 45.1043 13.4647 45.1355 13.3788V13.2146C45.1355 12.7144 44.9362 12.3159 44.5376 12.0189C44.1391 11.7141 43.5295 11.5617 42.7088 11.5617C41.8804 11.5617 41.2356 11.7414 40.7745 12.1009C40.3212 12.4526 40.0711 12.9528 40.0242 13.6015V13.7422H37.6444C37.6757 12.4839 38.1524 11.4913 39.0747 10.7645C39.9969 10.0298 41.2161 9.66252 42.7323 9.66252C44.225 9.66252 45.37 10.0064 46.1672 10.6942C46.9643 11.3819 47.3629 12.4292 47.3629 13.836V19.4279L47.3864 21.1864H45.1121V19.4865C44.7369 20.143 44.2133 20.6393 43.5412 20.9754C42.8769 21.3114 42.1266 21.4794 41.2903 21.4794ZM41.7241 19.6741C42.6307 19.6741 43.4044 19.424 44.0453 18.9238C44.6861 18.4236 45.0496 17.6577 45.1355 16.6261V15.231C44.9714 15.3404 44.7565 15.4459 44.4908 15.5475C44.2328 15.6491 44.0101 15.7234 43.8225 15.7703C43.635 15.8172 43.338 15.8875 42.9316 15.9813C42.533 16.0751 42.2673 16.1376 42.1344 16.1689C41.7593 16.2626 41.4466 16.3564 41.1965 16.4502C40.9543 16.544 40.7159 16.6651 40.4814 16.8136C40.247 16.9621 40.0711 17.1458 39.9539 17.3646C39.8367 17.5756 39.778 17.8257 39.778 18.1149C39.778 18.5916 39.95 18.9707 40.2939 19.2521C40.6377 19.5334 41.1145 19.6741 41.7241 19.6741ZM49.2391 25.6529V9.85009H51.5486V11.5382C51.955 10.9286 52.4708 10.4558 53.096 10.1197C53.7291 9.78365 54.4364 9.61562 55.2179 9.61562C56.7028 9.61562 57.922 10.1471 58.8755 11.21C59.8368 12.2651 60.3175 13.6796 60.3175 15.4538V15.4772C60.3175 17.2747 59.8368 18.7167 58.8755 19.803C57.9142 20.8816 56.6872 21.4208 55.1945 21.4208C54.4285 21.4208 53.733 21.2567 53.1077 20.9285C52.4903 20.6002 51.9784 20.143 51.572 19.5569V25.6529H49.2391ZM54.62 19.4045C55.597 19.4045 56.3785 19.0645 56.9647 18.3845C57.5508 17.6968 57.8439 16.7511 57.8439 15.5475V15.3717C57.8439 14.1759 57.5547 13.2537 56.9764 12.605C56.398 11.9563 55.6126 11.632 54.62 11.632C53.6431 11.632 52.8655 11.9876 52.2871 12.6988C51.7166 13.41 51.4313 14.3361 51.4313 15.4772V15.6648C51.4313 16.7902 51.7166 17.6968 52.2871 18.3845C52.8576 19.0645 53.6353 19.4045 54.62 19.4045Z" fill="#FF4A4A"/>
<path fill-rule="evenodd" clip-rule="evenodd" d="M61.3366 1.80959C61.6709 1.89916 61.8693 2.24276 61.7797 2.57704L61.4586 3.77544C61.369 4.10972 61.0254 4.3081 60.691 4.21853C60.3567 4.12896 60.1583 3.78536 60.2479 3.45107L60.569 2.25268C60.6586 1.9184 61.0023 1.72002 61.3366 1.80959ZM60.3731 5.40477C60.7075 5.49434 60.9059 5.83794 60.8163 6.17222L60.4951 7.37062C60.4056 7.7049 60.0619 7.90328 59.7276 7.81371C59.3933 7.72414 59.1949 7.38054 59.2844 7.04626L59.6056 5.84786C59.6952 5.51358 60.0388 5.3152 60.3731 5.40477ZM66.0486 4.63046C66.2934 4.87517 66.2934 5.27192 66.0486 5.51664L65.1712 6.39392C64.9265 6.63863 64.5297 6.63863 64.2849 6.39392C64.0402 6.14921 64.0402 5.75245 64.2849 5.50774L65.1623 4.63046C65.4071 4.38575 65.8039 4.38575 66.0486 4.63046ZM63.4164 7.26231C63.6612 7.50702 63.6612 7.90378 63.4164 8.14849L62.5391 9.02578C62.2943 9.27049 61.8975 9.27049 61.6528 9.02577C61.408 8.78106 61.408 8.38431 61.6528 8.1396L62.5302 7.26231C62.7749 7.0176 63.1717 7.0176 63.4164 7.26231ZM68.4085 10.0924C68.7428 10.0028 68.9412 9.65919 68.8516 9.32491C68.7621 8.99063 68.4184 8.79225 68.0841 8.88182L66.8856 9.20293C66.5512 9.2925 66.3528 9.6361 66.4424 9.97038C66.532 10.3047 66.8756 10.503 67.21 10.4135L68.4085 10.0924ZM64.8129 11.0557C65.1472 10.9661 65.3456 10.6225 65.256 10.2882C65.1664 9.95395 64.8228 9.75558 64.4885 9.84515L63.2899 10.1663C62.9556 10.2558 62.7572 10.5994 62.8468 10.9337C62.9364 11.268 63.28 11.4664 63.6143 11.3768L64.8129 11.0557Z" fill="#FF4A4A"/>
</svg>
