<svg width="56" height="56" viewBox="0 0 56 56" fill="none" xmlns="http://www.w3.org/2000/svg">
<path fill-rule="evenodd" clip-rule="evenodd" d="M8.38045 50.0694H27.9976C40.1862 50.0694 50.067 40.1885 50.067 27.9999C50.067 15.8114 40.1862 5.93056 27.9976 5.93056C15.809 5.93056 5.92821 15.8114 5.92824 28L5.92829 47.6172C5.9283 48.9715 7.02616 50.0694 8.38045 50.0694ZM8.38045 55.7911H27.9976C43.3462 55.7911 55.7887 43.3485 55.7887 27.9999C55.7887 12.6514 43.3462 0.208862 27.9976 0.208862C12.649 0.208862 0.206501 12.6514 0.206543 28L0.206597 47.6172C0.206609 52.1315 3.86616 55.7911 8.38045 55.7911Z" fill="black"/>
<path fill-rule="evenodd" clip-rule="evenodd" d="M8.38045 50.0694H21.4585C30.0357 50.0694 36.9888 43.1162 36.9888 34.539C36.9888 25.9619 30.0357 19.0087 21.4585 19.0087C12.8814 19.0087 5.92822 25.9619 5.92824 34.5391L5.92829 47.6172C5.9283 48.9715 7.02616 50.0694 8.38045 50.0694ZM8.38045 55.7911H21.4585C33.1957 55.7911 42.7105 46.2762 42.7105 34.539C42.7105 22.8019 33.1957 13.287 21.4585 13.287C9.72136 13.287 0.206511 22.8019 0.206543 34.5391L0.206597 47.6172C0.206609 52.1315 3.86616 55.7911 8.38045 55.7911Z" fill="black"/>
<path fill-rule="evenodd" clip-rule="evenodd" d="M6.09173 50.0694H14.9194C19.8851 50.0694 23.9107 46.0438 23.9107 41.0781C23.9107 36.1124 19.8852 32.0869 14.9195 32.0869C9.95374 32.0869 5.92823 36.1124 5.92824 41.0781L5.92826 49.9059C5.92826 49.939 5.93385 49.9562 5.93876 49.9678C5.94528 49.9832 5.95719 50.0025 5.97614 50.0215C5.99509 50.0404 6.01444 50.0523 6.02986 50.0589C6.04146 50.0638 6.0586 50.0694 6.09173 50.0694ZM6.09173 55.7911H14.9194C23.0452 55.7911 29.6324 49.2038 29.6324 41.0781C29.6324 32.9524 23.0452 26.3652 14.9195 26.3652C6.79373 26.3652 0.206521 32.9524 0.206543 41.0781L0.206567 49.9059C0.206576 53.1562 2.84145 55.7911 6.09173 55.7911Z" fill="black"/>
<path fill-rule="evenodd" clip-rule="evenodd" d="M5.92825 50.0694H8.38045C9.73473 50.0694 10.8325 48.9715 10.8325 47.6172C10.8325 46.2629 9.73466 45.165 8.38038 45.165C7.0261 45.165 5.92829 46.2629 5.92829 47.6172L5.92825 50.0694ZM0.206565 55.7911H8.38045C12.8947 55.7911 16.5542 52.1315 16.5542 47.6172C16.5542 43.1029 12.8947 39.4434 8.38038 39.4434C3.86609 39.4434 0.206584 43.1029 0.206597 47.6172L0.206565 55.7911Z" fill="black"/>
</svg>
