<svg width="57" height="56" viewBox="0 0 57 56" fill="none" xmlns="http://www.w3.org/2000/svg">
<path fill-rule="evenodd" clip-rule="evenodd" d="M8.24609 50.2353H28.0107C40.2909 50.2353 50.246 40.2802 50.246 28C50.246 15.7198 40.2909 5.76471 28.0107 5.76471C15.7305 5.76471 5.77541 15.7198 5.77545 28L5.7755 47.7647C5.77551 49.1292 6.88162 50.2353 8.24609 50.2353ZM8.24609 56H28.0107C43.4747 56 56.0107 43.464 56.0107 28C56.0107 12.536 43.4747 0 28.0107 0C12.5467 0 0.0106999 12.5361 0.0107422 28L0.0107962 47.7647C0.0108087 52.313 3.69787 56 8.24609 56Z" fill="#272528"/>
<path fill-rule="evenodd" clip-rule="evenodd" d="M8.24609 50.2353H21.4225C30.0641 50.2353 37.0695 43.2299 37.0695 34.5882C37.0695 25.9466 30.0641 18.9412 21.4225 18.9412C12.7808 18.9412 5.77542 25.9466 5.77545 34.5882L5.7755 47.7647C5.77551 49.1292 6.88162 50.2353 8.24609 50.2353ZM8.24609 56H21.4225C33.2479 56 42.8342 46.4136 42.8342 34.5882C42.8342 22.7628 33.2479 13.1765 21.4225 13.1765C9.59708 13.1765 0.0107098 22.7629 0.0107422 34.5883L0.0107962 47.7647C0.0108087 52.313 3.69787 56 8.24609 56Z" fill="#272528"/>
<path fill-rule="evenodd" clip-rule="evenodd" d="M5.94016 50.2353H14.8342C19.8373 50.2353 23.8931 46.1795 23.8931 41.1765C23.8931 36.1734 19.8373 32.1176 14.8343 32.1176C9.8312 32.1176 5.77543 36.1734 5.77545 41.1765L5.77547 50.0706C5.77547 50.104 5.7811 50.1213 5.78605 50.1329C5.79262 50.1485 5.80462 50.168 5.82371 50.1871C5.8428 50.2062 5.8623 50.2182 5.87783 50.2247C5.88952 50.2297 5.90679 50.2353 5.94016 50.2353ZM5.94016 56H14.8342C23.021 56 29.6578 49.3633 29.6578 41.1765C29.6578 32.9897 23.0211 26.3529 14.8343 26.3529C6.64744 26.3529 0.0107198 32.9897 0.0107422 41.1765L0.0107665 50.0706C0.0107755 53.3453 2.66545 56 5.94016 56Z" fill="#272528"/>
<path fill-rule="evenodd" clip-rule="evenodd" d="M5.77546 50.2353H8.24609C9.61055 50.2353 10.7166 49.1292 10.7166 47.7647C10.7166 46.4002 9.61048 45.2941 8.24602 45.2941C6.88156 45.2941 5.7755 46.4002 5.7755 47.7647L5.77546 50.2353ZM0.0107647 56H8.24609C12.7943 56 16.4813 52.3129 16.4813 47.7647C16.4813 43.2165 12.7942 39.5294 8.24602 39.5294C3.69779 39.5294 0.0107838 43.2165 0.0107962 47.7647L0.0107647 56Z" fill="#272528"/>
</svg>
