<svg width="128" height="36" viewBox="0 0 128 36" fill="none" xmlns="http://www.w3.org/2000/svg">
<path fill-rule="evenodd" clip-rule="evenodd" d="M16.625 34.5C25.7377 34.5 33.125 27.1127 33.125 18C33.125 8.88731 25.7377 1.5 16.625 1.5C7.51228 1.5 0.125 8.88731 0.125 18C0.125 27.1127 7.51228 34.5 16.625 34.5ZM21.7724 9.1864C22.023 8.2964 21.1593 7.77011 20.3705 8.33208L9.35932 16.1764C8.50388 16.7858 8.63843 18 9.56144 18H12.461V17.9775H18.1121L13.5075 19.6022L11.4776 26.8136C11.227 27.7036 12.0906 28.2299 12.8795 27.6679L23.8907 19.8237C24.7461 19.2142 24.6115 18 23.6886 18H19.2915L21.7724 9.1864Z" fill="#155EEF"/>
<path d="M41.6599 25.4319V22.8219H43.7299V12.2919H41.6599V9.68188H49.7599C50.7199 9.68188 51.5524 9.84688 52.2574 10.1769C52.9774 10.4919 53.5324 10.9494 53.9224 11.5494C54.3274 12.1344 54.5299 12.8394 54.5299 13.6644V13.8894C54.5299 14.6094 54.3949 15.2019 54.1249 15.6669C53.8549 16.1169 53.5324 16.4694 53.1574 16.7244C52.7974 16.9644 52.4524 17.1369 52.1224 17.2419V17.6469C52.4524 17.7369 52.8124 17.9094 53.2024 18.1644C53.5924 18.4044 53.9224 18.7569 54.1924 19.2219C54.4774 19.6869 54.6199 20.2944 54.6199 21.0444V21.2694C54.6199 22.1394 54.4174 22.8894 54.0124 23.5194C53.6074 24.1344 53.0449 24.6069 52.3249 24.9369C51.6199 25.2669 50.7949 25.4319 49.8499 25.4319H41.6599ZM46.6999 22.7319H49.4899C50.1349 22.7319 50.6524 22.5744 51.0424 22.2594C51.4474 21.9444 51.6499 21.4944 51.6499 20.9094V20.6844C51.6499 20.0994 51.4549 19.6494 51.0649 19.3344C50.6749 19.0194 50.1499 18.8619 49.4899 18.8619H46.6999V22.7319ZM46.6999 16.1619H49.4449C50.0599 16.1619 50.5624 16.0044 50.9524 15.6894C51.3574 15.3744 51.5599 14.9394 51.5599 14.3844V14.1594C51.5599 13.5894 51.3649 13.1544 50.9749 12.8544C50.5849 12.5394 50.0749 12.3819 49.4449 12.3819H46.6999V16.1619Z" fill="#1C1C1C"/>
<path d="M61.3263 25.7469C60.2163 25.7469 59.2188 25.5219 58.3338 25.0719C57.4488 24.6219 56.7513 23.9694 56.2413 23.1144C55.7313 22.2594 55.4763 21.2319 55.4763 20.0319V19.6719C55.4763 18.4719 55.7313 17.4444 56.2413 16.5894C56.7513 15.7344 57.4488 15.0819 58.3338 14.6319C59.2188 14.1819 60.2163 13.9569 61.3263 13.9569C62.4363 13.9569 63.4338 14.1819 64.3188 14.6319C65.2038 15.0819 65.9013 15.7344 66.4113 16.5894C66.9213 17.4444 67.1763 18.4719 67.1763 19.6719V20.0319C67.1763 21.2319 66.9213 22.2594 66.4113 23.1144C65.9013 23.9694 65.2038 24.6219 64.3188 25.0719C63.4338 25.5219 62.4363 25.7469 61.3263 25.7469ZM61.3263 23.2269C62.1963 23.2269 62.9163 22.9494 63.4863 22.3944C64.0563 21.8244 64.3413 21.0144 64.3413 19.9644V19.7394C64.3413 18.6894 64.0563 17.8869 63.4863 17.3319C62.9313 16.7619 62.2113 16.4769 61.3263 16.4769C60.4563 16.4769 59.7363 16.7619 59.1663 17.3319C58.5963 17.8869 58.3113 18.6894 58.3113 19.7394V19.9644C58.3113 21.0144 58.5963 21.8244 59.1663 22.3944C59.7363 22.9494 60.4563 23.2269 61.3263 23.2269Z" fill="#1C1C1C"/>
<path d="M68.6682 25.4319V9.68188H71.5032V25.4319H68.6682Z" fill="#1C1C1C"/>
<path d="M77.7947 25.4319C77.0597 25.4319 76.4597 25.2069 75.9947 24.7569C75.5447 24.2919 75.3197 23.6769 75.3197 22.9119V16.6119H72.5297V14.2719H75.3197V10.8069H78.1547V14.2719H81.2147V16.6119H78.1547V22.4169C78.1547 22.8669 78.3647 23.0919 78.7847 23.0919H80.9447V25.4319H77.7947Z" fill="#1C1C1C"/>
<path d="M87.291 25.7469C85.836 25.7469 84.6435 25.4319 83.7135 24.8019C82.7835 24.1719 82.221 23.2719 82.026 22.1019L84.636 21.4269C84.741 21.9519 84.9135 22.3644 85.1535 22.6644C85.4085 22.9644 85.716 23.1819 86.076 23.3169C86.451 23.4369 86.856 23.4969 87.291 23.4969C87.951 23.4969 88.4385 23.3844 88.7535 23.1594C89.0685 22.9194 89.226 22.6269 89.226 22.2819C89.226 21.9369 89.076 21.6744 88.776 21.4944C88.476 21.2994 87.996 21.1419 87.336 21.0219L86.706 20.9094C85.926 20.7594 85.2135 20.5569 84.5685 20.3019C83.9235 20.0319 83.406 19.6644 83.016 19.1994C82.626 18.7344 82.431 18.1344 82.431 17.3994C82.431 16.2894 82.836 15.4419 83.646 14.8569C84.456 14.2569 85.521 13.9569 86.841 13.9569C88.086 13.9569 89.121 14.2344 89.946 14.7894C90.771 15.3444 91.311 16.0719 91.566 16.9719L88.9335 17.7819C88.8135 17.2119 88.566 16.8069 88.191 16.5669C87.831 16.3269 87.381 16.2069 86.841 16.2069C86.301 16.2069 85.8885 16.3044 85.6035 16.4994C85.3185 16.6794 85.176 16.9344 85.176 17.2644C85.176 17.6244 85.326 17.8944 85.626 18.0744C85.926 18.2394 86.331 18.3669 86.841 18.4569L87.471 18.5694C88.311 18.7194 89.0685 18.9219 89.7435 19.1769C90.4335 19.4169 90.9735 19.7694 91.3635 20.2344C91.7685 20.6844 91.971 21.2994 91.971 22.0794C91.971 23.2494 91.5435 24.1569 90.6885 24.8019C89.8485 25.4319 88.716 25.7469 87.291 25.7469Z" fill="#1C1C1C"/>
<path d="M93.3303 25.4319V9.68188H96.1653V15.6444H96.5703C96.6903 15.4044 96.8778 15.1644 97.1328 14.9244C97.3878 14.6844 97.7253 14.4894 98.1453 14.3394C98.5803 14.1744 99.1278 14.0919 99.7878 14.0919C100.658 14.0919 101.415 14.2944 102.06 14.6994C102.72 15.0894 103.23 15.6369 103.59 16.3419C103.95 17.0319 104.13 17.8419 104.13 18.7719V25.4319H101.295V18.9969C101.295 18.1569 101.085 17.5269 100.665 17.1069C100.26 16.6869 99.6753 16.4769 98.9103 16.4769C98.0403 16.4769 97.3653 16.7694 96.8853 17.3544C96.4053 17.9244 96.1653 18.7269 96.1653 19.7619V25.4319H93.3303Z" fill="#1C1C1C"/>
<path d="M106.07 25.4319V14.2719H108.905V25.4319H106.07ZM107.488 12.9669C106.978 12.9669 106.543 12.8019 106.183 12.4719C105.838 12.1419 105.665 11.7069 105.665 11.1669C105.665 10.6269 105.838 10.1919 106.183 9.86188C106.543 9.53188 106.978 9.36688 107.488 9.36688C108.013 9.36688 108.448 9.53188 108.793 9.86188C109.138 10.1919 109.31 10.6269 109.31 11.1669C109.31 11.7069 109.138 12.1419 108.793 12.4719C108.448 12.8019 108.013 12.9669 107.488 12.9669Z" fill="#1C1C1C"/>
<path d="M112.767 25.4319V16.6119H109.932V14.2719H112.767V12.2019C112.767 11.4369 112.992 10.8294 113.442 10.3794C113.907 9.91438 114.507 9.68188 115.242 9.68188H118.167V12.0219H116.232C115.812 12.0219 115.602 12.2469 115.602 12.6969V14.2719H118.527V16.6119H115.602V25.4319H112.767Z" fill="#1C1C1C"/>
<path d="M123.652 25.4319C122.917 25.4319 122.317 25.2069 121.852 24.7569C121.402 24.2919 121.177 23.6769 121.177 22.9119V16.6119H118.387V14.2719H121.177V10.8069H124.012V14.2719H127.072V16.6119H124.012V22.4169C124.012 22.8669 124.222 23.0919 124.642 23.0919H126.802V25.4319H123.652Z" fill="#1C1C1C"/>
</svg>
