<svg width="45" height="56" viewBox="0 0 45 56" fill="none" xmlns="http://www.w3.org/2000/svg">
<g clip-path="url(#clip0_1067_94)">
<path fill-rule="evenodd" clip-rule="evenodd" d="M11.0645 2.99886C14.3198 1.09164 18.098 0 22.129 0C34.3521 0 44.2581 10.03 44.2581 22.4002C44.2581 34.7705 34.3521 44.8004 22.129 44.8004V39.2004C31.2944 39.2004 38.7258 31.678 38.7258 22.4002C38.7258 13.1225 31.2944 5.60008 22.129 5.60008C20.1899 5.60008 18.3258 5.93691 16.5968 6.56002C14.535 7.29451 12.6609 8.43427 11.0645 9.878C7.6691 12.9554 5.53226 17.4258 5.53226 22.4002V44.8004L0 39.2004V22.4002C0 16.7217 2.0893 11.5344 5.53226 7.5858C7.11362 5.76975 8.98021 4.21713 11.0645 2.99886ZM22.129 27.9997C25.1842 27.9997 27.6613 25.4922 27.6613 22.3996C27.6613 19.307 25.1842 16.7995 22.129 16.7995C19.0739 16.7995 16.5968 19.307 16.5968 22.3996V56L16.0388 55.435L11.0645 50.4V22.3996C11.0645 18.2534 13.2889 14.634 16.5968 12.6989C18.2232 11.744 20.1148 11.1995 22.129 11.1995C28.2393 11.1995 33.1936 16.2145 33.1936 22.3996C33.1936 28.5847 28.2393 33.5997 22.129 33.5997V27.9997Z" fill="#110F23"/>
<path fill-rule="evenodd" clip-rule="evenodd" d="M11.0645 2.99886C14.3198 1.09164 18.098 0 22.129 0C34.3521 0 44.2581 10.03 44.2581 22.4002C44.2581 34.7705 34.3521 44.8004 22.129 44.8004V39.2004C31.2944 39.2004 38.7258 31.678 38.7258 22.4002C38.7258 13.1225 31.2944 5.60008 22.129 5.60008C20.1899 5.60008 18.3258 5.93691 16.5968 6.56002C14.535 7.29451 12.6609 8.43427 11.0645 9.878C7.6691 12.9554 5.53226 17.4258 5.53226 22.4002V44.8004L0 39.2004V22.4002C0 16.7217 2.0893 11.5344 5.53226 7.5858C7.11362 5.76975 8.98021 4.21713 11.0645 2.99886ZM22.129 27.9997C25.1842 27.9997 27.6613 25.4922 27.6613 22.3996C27.6613 19.307 25.1842 16.7995 22.129 16.7995C19.0739 16.7995 16.5968 19.307 16.5968 22.3996V56L16.0388 55.435L11.0645 50.4V22.3996C11.0645 18.2534 13.2889 14.634 16.5968 12.6989C18.2232 11.744 20.1148 11.1995 22.129 11.1995C28.2393 11.1995 33.1936 16.2145 33.1936 22.3996C33.1936 28.5847 28.2393 33.5997 22.129 33.5997V27.9997Z" fill="url(#paint0_linear_1067_94)"/>
</g>
<defs>
<linearGradient id="paint0_linear_1067_94" x1="0.638896" y1="3.62963" x2="49.9179" y2="16.1728" gradientUnits="userSpaceOnUse">
<stop stop-color="white"/>
<stop offset="1" stop-color="#B7B7B7"/>
</linearGradient>
<clipPath id="clip0_1067_94">
<rect width="44.2581" height="56" fill="white"/>
</clipPath>
</defs>
</svg>
