<svg width="40" height="40" fill="none" xmlns="http://www.w3.org/2000/svg">
<g clip-path="url(#clip0_2697_3864)">
<path d="M39.633 8.99506C39.6155 8.68065 39.6854 8.3313 39.7378 7.99943C39.8251 7.52781 39.9299 7.03873 39.7552 6.67192C39.6504 6.42737 39.3185 6.2003 38.9692 5.97323C38.6199 5.72868 38.2006 5.46668 37.9386 5.0824C37.6941 4.75052 37.5893 4.31384 37.4845 3.91209C37.3797 3.47541 37.2749 3.07366 37.0303 2.82912C36.7858 2.58458 36.384 2.47978 35.9474 2.37497C35.5456 2.27017 35.1089 2.16537 34.7771 1.92082C34.3928 1.64136 34.1308 1.23961 33.8862 0.890263C33.6592 0.540918 33.4321 0.209042 33.1875 0.104237C32.8033 -0.070435 32.3142 0.0343688 31.86 0.121705C31.5281 0.191575 31.1788 0.261444 30.8644 0.226509C30.6024 0.209042 30.3404 0.15664 30.0958 0.121705C29.7989 0.0693033 29.5194 0.0343688 29.2749 0.0343688C29.0478 0.0343688 28.8382 0.0693032 28.6635 0.174107C28.4364 0.313845 28.2792 0.645723 28.1395 0.925199L26.2705 4.71558C27.86 5.27454 29.4495 5.81602 31.074 6.40991C32.0871 6.84659 32.9255 7.65008 33.3622 8.66318C33.7465 9.64135 34.0609 10.5496 34.4277 11.4929L35.1788 13.5889L38.9343 11.7374C39.2487 11.5977 39.5456 11.423 39.7028 11.161C39.9124 10.8291 39.8251 10.3226 39.7378 9.74615C39.6854 9.50161 39.6504 9.2396 39.633 8.99506Z" fill="#272528"/>
<path d="M16.3321 30.7416C16.105 30.0604 15.9129 29.5538 15.6858 29.0648C15.1793 27.9818 14.5155 26.9861 13.7295 26.0779C12.9085 25.1696 11.9304 24.4185 10.8649 23.8944C10.3932 23.6674 9.8343 23.4752 9.15307 23.2831C9.08321 23.2656 9.01334 23.2656 8.926 23.2656C8.76879 23.2656 8.59412 23.3006 8.41945 23.353C8.17491 23.4228 7.68583 23.7023 7.42382 23.877C5.29281 25.2569 3.9653 26.0604 1.76443 27.2482C1.76443 27.2482 1.74696 27.2656 1.72949 27.2656C1.79936 27.2656 1.85176 27.2831 1.92163 27.2831C2.18364 27.318 2.42818 27.3355 2.67273 27.3355C2.88233 27.3355 3.14434 27.2656 3.40635 27.1958C3.73823 27.1084 4.12251 27.0036 4.55919 27.0036C4.8736 27.0036 5.15308 27.056 5.43255 27.1608C5.9915 27.4228 6.28845 27.842 6.53299 28.1565L6.62032 28.2787C6.82993 28.5757 7.057 28.9075 7.28408 29.0473C7.47622 29.1696 7.82556 29.2569 8.19238 29.3442L8.29718 29.3792C8.73386 29.5014 9.25788 29.6412 9.72949 30.0779C10.1836 30.5495 10.3234 31.091 10.4457 31.5276L10.4806 31.6499C10.5679 31.9992 10.6553 32.3486 10.7775 32.5407C10.9347 32.7678 11.2491 32.9949 11.5461 33.2045L11.6684 33.2918C12.0002 33.5189 12.402 33.8158 12.664 34.3573C12.9609 35.1608 12.7863 35.842 12.6465 36.401C12.5767 36.663 12.5068 36.925 12.5068 37.1346C12.5068 37.3792 12.5417 37.6237 12.5592 37.8682C13.8168 35.615 15.1094 33.3442 15.4762 32.7329C15.7208 32.3311 16.1574 31.7023 16.3146 31.318C16.402 31.1434 16.3845 30.9163 16.3321 30.7416Z" fill="#272528"/>
<path d="M11.9477 39.6504C12.4018 39.1613 11.7555 37.7465 11.7555 37.205C11.7555 36.7159 11.8254 36.2792 11.8603 35.8775C11.9127 35.4757 11.9127 35.0915 11.7555 34.812C11.6158 34.5675 11.2839 34.3404 10.9346 34.1133C10.5852 33.8862 10.166 33.6417 9.8516 33.2225C9.51972 32.7683 9.44985 32.2967 9.34505 31.895C9.24025 31.4932 9.11798 31.1439 8.90837 30.9517C8.71623 30.7421 8.34942 30.6199 7.96514 30.5151C7.56339 30.3928 7.10924 30.3229 6.63763 30.0085C6.21841 29.6766 5.97387 29.2749 5.7468 28.9255C5.37999 28.3666 5.29265 28.2443 5.04811 28.1046C4.6813 27.895 4.26208 27.9299 3.98261 27.9998C3.65073 28.0696 3.23151 28.1395 2.74243 28.1395C2.13108 28.1395 0.646364 27.4757 0.209683 27.9124C-0.226998 28.3491 0.401823 29.8164 0.41929 30.3578C0.41929 30.8644 0.366888 31.3185 0.314487 31.6854C0.244618 31.9648 0.209683 32.384 0.41929 32.7509C0.559028 32.9954 0.698766 33.0827 1.24025 33.4495C1.5896 33.6766 2.00881 33.9212 2.32322 34.3404C2.65509 34.7945 2.72496 35.2661 2.82977 35.6679C2.93457 36.0696 3.05684 36.419 3.26645 36.6111C3.45859 36.8207 3.8254 36.943 4.20968 37.0478C4.61143 37.1701 5.06558 37.2399 5.53719 37.5544C5.95641 37.8862 6.20095 38.288 6.42802 38.6373C6.65509 38.9867 6.8647 39.3185 7.12671 39.4583C7.40619 39.6155 7.79047 39.6155 8.19221 39.5631C8.59396 39.5282 9.03064 39.4233 9.51972 39.4583C10.2359 39.4757 11.511 40.122 11.9477 39.6504Z" fill="#272528"/>
<path d="M36.0345 18.6897C36.0171 18.3579 35.7551 17.8513 35.6153 17.3796L33.5717 11.7552C33.2398 10.8294 32.9079 9.85126 32.576 8.9779C32.2267 8.15694 31.5455 7.47572 30.7245 7.1089L25.1524 5.01283L22.3577 3.94733C21.8861 3.79013 21.4145 3.52812 21.0127 3.51065C20.5935 3.47572 20.1568 3.63292 19.8424 3.94733C16.9778 6.72462 14.1132 9.50192 11.3359 12.3491C9.93849 13.7639 8.54111 15.1962 7.17866 16.646L6.63718 17.2224C6.63718 17.2224 8.34897 17.8688 8.94285 18.1133C10.1481 18.5849 11.3359 19.074 12.5236 19.5806C13.7114 20.0871 14.8817 20.6111 16.0695 21.1876C17.2747 21.7814 18.3227 22.7421 18.8468 23.9474C18.1131 23.0216 16.9603 22.4103 15.79 21.9561C14.6022 21.502 13.3446 21.0828 12.1219 20.7159C10.8817 20.3491 9.65901 19.9649 8.4363 19.5631C7.82495 19.371 7.21359 19.1614 6.60224 18.9518C6.20049 18.812 5.88608 18.8819 5.60661 19.1264C5.3446 19.371 5.20486 19.7028 5.27473 20.0522C5.2922 20.0871 5.2922 20.1395 5.30966 20.1919L5.37953 20.419L5.53674 20.8731L5.85115 21.7814C6.04329 22.3579 6.23543 22.9518 6.42757 23.5282C6.79438 23.3186 7.14373 23.1264 7.51054 22.9343C7.75508 22.7945 8.10442 22.6199 8.45377 22.5675C8.80311 22.5151 9.13499 22.4976 9.5018 22.6373C10.0782 22.8819 10.6546 23.1264 11.2136 23.4059C12.3315 23.9649 13.3621 24.681 14.3053 25.5194C15.2485 26.3579 16.052 27.371 16.6459 28.5063C16.9429 29.0653 17.1874 29.6766 17.397 30.2531C17.5367 30.6373 17.5367 31.0391 17.4319 31.4408C17.3795 31.6155 17.2747 31.8426 17.1874 31.9649L16.9603 32.3666C16.6284 32.9081 16.2966 33.4496 15.9647 33.9736C16.7856 34.3055 17.6241 34.6024 18.4625 34.9168C18.9341 35.074 19.3882 35.3186 19.8599 35.3535C20.3489 35.3884 20.838 35.1963 21.1874 34.8469C23.9996 32.0173 26.742 29.1352 29.4843 26.2181C30.8468 24.7683 32.2441 23.336 33.6241 21.9037L35.7201 19.7727C35.9123 19.4583 36.052 19.074 36.0345 18.6897ZM25.4319 27.6504L20.6459 32.8731L22.9516 23.895L25.8162 22.9692L26.2703 18.8993L29.0651 18.2531L31.6503 9.10017L33.7289 18.4627L25.4319 27.6504Z" fill="#272528"/>
</g>
</svg>
