<svg width="58" height="48" viewBox="0 0 58 48" fill="none" xmlns="http://www.w3.org/2000/svg">
<path fill-rule="evenodd" clip-rule="evenodd" d="M45.6671 22.4185L38.554 10.6552L42.2383 4.62608L52.997 22.4185H45.6671ZM21.4545 38.9506H35.8353L39.4252 44.8349H17.9291L21.4545 38.9506ZM35.8301 9.06326H21.4371L17.9191 3.1651H39.4342L35.8301 9.06326ZM35.8193 35.7855H21.4331L14.3106 24.007L21.4331 12.2284H35.8193L42.9415 24.007L35.8193 35.7855ZM15.1254 4.63874L18.7063 10.6421L11.5873 22.4148H4.3767L15.1254 4.63874ZM4.3734 25.5799H11.5756L18.7147 37.386L15.1304 43.3693L4.3734 25.5799ZM42.2336 43.3817L38.5566 37.3545L45.6743 25.5836H52.9957L42.2336 43.3817ZM43.5872 0.760918C43.3015 0.288455 42.7912 0 42.241 0H15.1304C14.5801 0 14.0697 0.288455 13.7842 0.760918L0.229041 23.1783C-0.0762516 23.6831 -0.0763948 24.3167 0.228898 24.8216L13.7842 47.2389C14.0697 47.7115 14.5801 48 15.1304 48H42.241C42.7912 48 43.3015 47.7115 43.5872 47.2389L57.1425 24.8216C57.4479 24.3167 57.4479 23.6831 57.1425 23.1783L43.5872 0.760918ZM36.7783 26.4733C36.0436 26.0058 35.0703 26.225 34.6047 26.9634L31.8169 31.3858C31.3515 32.1241 31.5699 33.1018 32.3047 33.5696C32.5662 33.7359 32.8579 33.8153 33.1462 33.8153C33.6678 33.8153 34.1785 33.555 34.4783 33.0794L37.2662 28.657C37.7317 27.9187 37.5132 26.941 36.7783 26.4733ZM36.9169 22.9613C37.3579 22.2079 38.3238 21.9566 39.0733 22.3997C39.823 22.8429 40.0733 23.8127 39.6323 24.5662L39.4273 24.9163C39.1337 25.4177 38.6079 25.6968 38.068 25.6968C37.7967 25.6968 37.5218 25.6263 37.271 25.478C36.5211 25.0349 36.2708 24.0649 36.7118 23.3116L36.9169 22.9613Z" fill="#1F1F1F"/>
<path fill-rule="evenodd" clip-rule="evenodd" d="M45.6671 22.4185L38.554 10.6552L42.2383 4.62608L52.997 22.4185H45.6671ZM21.4545 38.9506H35.8353L39.4252 44.8349H17.9291L21.4545 38.9506ZM35.8301 9.06326H21.4371L17.9191 3.1651H39.4342L35.8301 9.06326ZM35.8193 35.7855H21.4331L14.3106 24.007L21.4331 12.2284H35.8193L42.9415 24.007L35.8193 35.7855ZM15.1254 4.63874L18.7063 10.6421L11.5873 22.4148H4.3767L15.1254 4.63874ZM4.3734 25.5799H11.5756L18.7147 37.386L15.1304 43.3693L4.3734 25.5799ZM42.2336 43.3817L38.5566 37.3545L45.6743 25.5836H52.9957L42.2336 43.3817ZM43.5872 0.760918C43.3015 0.288455 42.7912 0 42.241 0H15.1304C14.5801 0 14.0697 0.288455 13.7842 0.760918L0.229041 23.1783C-0.0762516 23.6831 -0.0763948 24.3167 0.228898 24.8216L13.7842 47.2389C14.0697 47.7115 14.5801 48 15.1304 48H42.241C42.7912 48 43.3015 47.7115 43.5872 47.2389L57.1425 24.8216C57.4479 24.3167 57.4479 23.6831 57.1425 23.1783L43.5872 0.760918ZM36.7783 26.4733C36.0436 26.0058 35.0703 26.225 34.6047 26.9634L31.8169 31.3858C31.3515 32.1241 31.5699 33.1018 32.3047 33.5696C32.5662 33.7359 32.8579 33.8153 33.1462 33.8153C33.6678 33.8153 34.1785 33.555 34.4783 33.0794L37.2662 28.657C37.7317 27.9187 37.5132 26.941 36.7783 26.4733ZM36.9169 22.9613C37.3579 22.2079 38.3238 21.9566 39.0733 22.3997C39.823 22.8429 40.0733 23.8127 39.6323 24.5662L39.4273 24.9163C39.1337 25.4177 38.6079 25.6968 38.068 25.6968C37.7967 25.6968 37.5218 25.6263 37.271 25.478C36.5211 25.0349 36.2708 24.0649 36.7118 23.3116L36.9169 22.9613Z" fill="url(#paint0_linear_1016_95)"/>
<defs>
<linearGradient id="paint0_linear_1016_95" x1="36.5426" y1="22.4088" x2="40.1777" y2="23.5262" gradientUnits="userSpaceOnUse">
<stop stop-color="white"/>
<stop offset="1" stop-color="#B7B7B7"/>
</linearGradient>
</defs>
</svg>
