<svg viewBox="0 0 46 47" fill="none" xmlns="http://www.w3.org/2000/svg">
<rect x="3" y="3.65405" width="40" height="40" rx="20" fill="#FFEBEB"/>
<path d="M23.833 22.8206L15.9164 30.7373M24.6817 16.6027C25.6967 17.2762 26.6723 18.0702 27.584 18.9819C28.5035 19.9014 29.3034 20.886 29.9806 21.9104M20.7122 20.2341L18.3164 19.4355C18.0405 19.3436 17.7367 19.4021 17.5146 19.5899L15.1337 21.6046C14.6462 22.017 14.7847 22.802 15.3839 23.0227L17.6399 23.8539M22.7339 28.9477L23.5651 31.2037C23.7858 31.8029 24.5707 31.9414 24.9832 31.4539L26.9978 29.073C27.1857 28.851 27.2442 28.5471 27.1522 28.2712L26.3537 25.8754M29.1235 15.5462L25.0348 16.2277C24.5933 16.3013 24.1883 16.5183 23.8826 16.8452L18.3717 22.7361C16.9432 24.2631 16.9829 26.6477 18.4615 28.1263C19.94 29.6048 22.3247 29.6446 23.8516 28.2161L29.7426 22.7052C30.0695 22.3994 30.2865 21.9945 30.3601 21.553L31.0415 17.4642C31.2295 16.3362 30.2516 15.3582 29.1235 15.5462Z" stroke="#EE3535" stroke-width="1.66667" stroke-linecap="round" stroke-linejoin="round"/>
<rect x="3" y="3.65405" width="40" height="40" rx="20" stroke="#FFF5F5" stroke-width="6"/>
</svg>
