<svg viewBox="0 0 46 47" fill="none" xmlns="http://www.w3.org/2000/svg">
<rect x="3" y="3.65405" width="40" height="40" rx="20" fill="#FFEBEB"/>
<path d="M15.5 20.3208L25.5 20.3208M25.5 20.3208C25.5 21.7015 26.6193 22.8208 28 22.8208C29.3807 22.8208 30.5 21.7015 30.5 20.3208C30.5 18.9401 29.3807 17.8208 28 17.8208C26.6193 17.8208 25.5 18.9401 25.5 20.3208ZM20.5 26.9875L30.5 26.9875M20.5 26.9875C20.5 28.3682 19.3807 29.4875 18 29.4875C16.6193 29.4875 15.5 28.3682 15.5 26.9875C15.5 25.6068 16.6193 24.4875 18 24.4875C19.3807 24.4875 20.5 25.6068 20.5 26.9875Z" stroke="#EE3535" stroke-width="1.66667" stroke-linecap="round" stroke-linejoin="round"/>
<rect x="3" y="3.65405" width="40" height="40" rx="20" stroke="#FFF5F5" stroke-width="6"/>
</svg>
