<svg width="41" height="44" viewBox="0 0 41 44" fill="none" xmlns="http://www.w3.org/2000/svg">
<path d="M40.2492 0.32406L26.3902 5.81936H13.4974L0.272461 0.263672L3.26166 18.4102L0.393236 28.2233L7.91153 32.7222C11.4744 34.8357 14.6448 37.523 17.3924 40.633L20.3212 43.9845L23.401 40.4518C26.0279 37.4324 29.1077 34.8357 32.5196 32.7523L39.8869 28.2233L37.2298 18.4102L40.2492 0.32406ZM31.1005 30.9407C28.5944 32.4806 26.2694 34.3224 24.1559 36.3454L21.5894 33.5676L31.1005 30.9407ZM18.9323 33.5374L16.4262 36.3152C14.3126 34.2922 11.9575 32.5108 9.45142 30.9709L18.9323 33.5374ZM16.4564 30.518L3.14088 26.8947L4.95252 20.6748L16.4564 30.518ZM11.4442 7.44983L5.13369 15.6928L3.20127 3.97753L11.4442 7.44983ZM33.0329 19.618L20.2608 30.7595L7.24726 19.618H33.0329ZM6.76416 17.3232L13.8295 8.0839H26.0883L33.9387 17.3232H6.76416ZM35.4484 20.5238L37.1695 26.8947L24.0049 30.518L35.4484 20.5238ZM37.3204 3.91714L35.388 15.5418L28.5038 7.44983L37.3204 3.91714Z" fill="#272528"/>
</svg>
