<svg width="52" height="57" viewBox="0 0 52 57" fill="none" xmlns="http://www.w3.org/2000/svg">
<path d="M51.4466 0.246416L33.6952 7.28509H17.1814L0.242188 0.169067L4.07092 23.4122L0.396883 35.9812L10.0267 41.7436C14.5903 44.4508 18.651 47.8928 22.1704 51.8763L25.9217 56.1691L29.8665 51.6442C33.2311 47.7768 37.1759 44.4508 41.5461 41.7823L50.9825 35.9812L47.5792 23.4122L51.4466 0.246416ZM39.7284 39.4619C36.5184 41.4343 33.5405 43.7934 30.8333 46.3845L27.5461 42.8265L39.7284 39.4619ZM24.1427 42.7879L20.9328 46.3459C18.2256 43.7547 15.209 41.4729 11.9991 39.5006L24.1427 42.7879ZM20.9715 38.9204L3.91622 34.2796L6.23666 26.3127L20.9715 38.9204ZM14.5516 9.37349L6.46871 19.9315L3.99357 4.92597L14.5516 9.37349ZM42.2035 24.9591L25.8444 39.2298L9.17589 24.9591H42.2035ZM8.5571 22.0199L17.6068 10.1856H33.3085L43.3637 22.0199H8.5571ZM45.2974 26.1193L47.5019 34.2796L30.64 38.9204L45.2974 26.1193ZM47.6952 4.84863L45.2201 19.7381L36.4024 9.37349L47.6952 4.84863Z" fill="#272528"/>
</svg>
