<svg width="53" height="58" viewBox="0 0 53 58" fill="none" xmlns="http://www.w3.org/2000/svg">
<path d="M52.7578 0.904259L34.7808 8.03237H18.0572L0.90271 0.825928L4.78009 24.3644L1.05937 37.0931L10.8116 42.9288C15.4331 45.6704 19.5455 49.1561 23.1095 53.1901L26.9086 57.5375L30.9035 52.9552C34.3108 49.0386 38.3057 45.6704 42.7314 42.968L52.2878 37.0931L48.8412 24.3644L52.7578 0.904259ZM40.8906 40.618C37.6399 42.6155 34.6242 45.0046 31.8826 47.6286L28.5535 44.0254L40.8906 40.618ZM25.107 43.9863L21.8562 47.5895C19.1146 44.9654 16.0597 42.6546 12.809 40.6572L25.107 43.9863ZM21.8954 40.0697L4.62343 35.3699L6.97335 27.3018L21.8954 40.0697ZM15.3939 10.1473L7.20835 20.8395L4.70176 5.64328L15.3939 10.1473ZM43.3972 25.931L26.8302 40.383L9.94993 25.931H43.3972ZM9.32328 22.9544L18.488 10.9698H34.3892L44.5722 22.9544H9.32328ZM46.5305 27.1059L48.7629 35.3699L31.6868 40.0697L46.5305 27.1059ZM48.9587 5.56495L46.4521 20.6436L37.5224 10.1473L48.9587 5.56495Z" fill="#131E29"/>
</svg>
