<svg width="57" height="57" viewBox="0 0 57 57" fill="none" xmlns="http://www.w3.org/2000/svg">
<path fill-rule="evenodd" clip-rule="evenodd" d="M0.844727 0.770264H56.8447V56.2439H0.844727V0.770264ZM45.9372 15.187L52.4584 15.0992C53.0432 15.0992 53.5988 15.6256 53.6281 16.1812C53.6281 16.7661 53.1894 17.2925 52.5753 17.2925H50.6745H47.8672C46.2881 17.2925 44.9137 17.9066 43.861 18.8716L43.2469 19.5442L40.2056 22.6146L37.6322 25.305C37.6322 25.3927 37.5738 25.4512 37.4861 25.5389L37.486 25.5389L25.3795 38.1426C25.308 38.2212 25.2278 38.312 25.1406 38.4108C24.8709 38.7163 24.5341 39.0978 24.1806 39.4293C23.508 40.1019 22.8939 40.716 22.5137 41.0084C22.3994 41.0465 22.2975 41.1218 22.1999 41.194C22.1477 41.2326 22.0968 41.2702 22.0458 41.3008C20.8469 42.3535 18.7999 43.0261 16.6067 43.0261C14.4135 43.0261 12.4542 42.3536 11.1675 41.3885C10.7289 41.0669 10.2025 40.6282 9.7346 39.9556C9.50066 39.6632 9.35444 39.4293 9.20823 39.1368C8.97429 38.8152 8.82807 38.3765 8.68186 37.8502C8.66236 37.7722 8.63962 37.7039 8.61796 37.639C8.57463 37.509 8.53564 37.392 8.53564 37.2361C8.53564 37.2027 8.52299 37.1525 8.50729 37.0903C8.48166 36.9886 8.44792 36.8548 8.44792 36.7097V36.5635V36.4173V35.8909V35.7447V34.9844V33.8731L8.36019 24.9541C8.36019 24.2815 8.88656 23.7551 9.55914 23.7551L23.0986 23.6089C23.7712 23.6089 24.2975 24.1353 24.2975 24.8079V30.2763L37.3106 20.3045C37.3106 20.2167 37.3983 20.2167 37.3983 20.2167L42.1649 16.5321C43.0714 15.8011 44.2704 15.2747 45.6448 15.187H45.9372Z" fill="#272528"/>
</svg>
