<svg width="45" height="45" viewBox="0 0 45 45" fill="none" xmlns="http://www.w3.org/2000/svg">
<path fill-rule="evenodd" clip-rule="evenodd" d="M0.400391 0.728516H44.1212V44.0384H0.400391V0.728516ZM35.6055 11.9838L40.6967 11.9153C41.1533 11.9153 41.5871 12.3262 41.6099 12.76C41.6099 13.2166 41.2675 13.6276 40.788 13.6276H39.304H37.1123C35.8794 13.6276 34.8064 14.107 33.9845 14.8605L33.505 15.3856L31.1306 17.7828L29.1215 19.8832C29.1215 19.9517 29.0759 19.9974 29.0074 20.0659L19.5555 29.9059C19.4997 29.9673 19.4371 30.0382 19.369 30.1153C19.1584 30.3538 18.8954 30.6517 18.6194 30.9105C18.0943 31.4356 17.6149 31.915 17.3181 32.1433C17.2288 32.1731 17.1493 32.2319 17.0731 32.2882C17.0323 32.3183 16.9925 32.3477 16.9528 32.3716C16.0167 33.1935 14.4186 33.7186 12.7063 33.7186C10.9939 33.7186 9.46429 33.1935 8.45974 32.4401C8.11728 32.189 7.70632 31.8465 7.34103 31.3214C7.15839 31.0931 7.04423 30.9105 6.93008 30.6821C6.74743 30.431 6.63328 30.0885 6.51913 29.6776C6.50391 29.6167 6.48615 29.5634 6.46924 29.5127C6.43541 29.4112 6.40497 29.3199 6.40497 29.1981C6.40497 29.1721 6.39509 29.1329 6.38284 29.0843C6.36283 29.005 6.33648 28.9005 6.33648 28.7872V28.673V28.5589V28.1479V28.0338V27.4402V26.5726L6.26799 19.6092C6.26799 19.0841 6.67894 18.6732 7.20405 18.6732L17.7747 18.559C18.2998 18.559 18.7107 18.97 18.7107 19.4951V23.7644L28.8704 15.9792C28.8704 15.9107 28.9389 15.9107 28.9389 15.9107L32.6603 13.034C33.368 12.4632 34.3041 12.0523 35.3771 11.9838H35.6055Z" fill="#272528"/>
</svg>
