<svg viewBox="0 0 40 48" fill="none" xmlns="http://www.w3.org/2000/svg">
<g>
<path d="M39.917 20.868C39.7223 20.3467 39.2236 20 38.6663 20H22.5663L31.8529 1.944C32.1449 1.376 31.9942 0.681333 31.4916 0.286667C31.2489 0.0946667 30.9569 0 30.6662 0C30.3556 0 30.0449 0.109333 29.7956 0.324L19.9997 8.784L0.462446 25.6573C0.0411151 26.0213 -0.110884 26.6093 0.0837814 27.1307C0.278447 27.652 0.775775 28 1.3331 28H17.433L8.1464 46.056C7.8544 46.624 8.00507 47.3185 8.50773 47.7131C8.7504 47.9051 9.0424 48 9.33307 48C9.64373 48 9.95436 47.8907 10.2037 47.6758L19.9997 39.216L39.5368 22.3427C39.9596 21.9787 40.1101 21.3907 39.917 20.868Z" fill="#272528"/>
</g>
</svg>
