<svg width="157" height="160" viewBox="0 0 157 160" fill="none" xmlns="http://www.w3.org/2000/svg">
<path d="M42.7996 122.735L52.8875 139.046C55.6048 143.439 61.2214 145.04 65.8466 142.739L69.8887 140.728C72.8201 139.27 76.2796 139.338 79.1505 140.912L108.799 157.168C111.987 158.916 115.872 158.796 118.946 156.855L151.113 136.543C154.014 134.711 155.774 131.519 155.774 128.088V71.7699C155.774 68.1992 153.87 64.8994 150.779 63.1123L46.5359 2.85159C43.4781 1.08393 39.7146 1.06043 36.6349 2.78976L6.10378 19.934C2.95143 21.7042 1 25.038 1 28.6534V89.3289C1 92.7379 2.73659 95.912 5.6074 97.7503L39.6873 119.573C40.9484 120.381 42.0119 121.461 42.7996 122.735Z" stroke="#FF4A4A" stroke-width="1.5"/>
<path d="M7.63263 26.4L48.2356 3.59998" stroke="#FF4A4A" stroke-width="1.5"/>
<path d="M50.0444 51.9997L91.8534 28.7997" stroke="#FF4A4A" stroke-width="1.5"/>
<path d="M28.3344 38.7996L68.9374 15.9996" stroke="#FF4A4A" stroke-width="1.5"/>
<path d="M70.9504 63.9997L112.759 41.5997" stroke="#FF4A4A" stroke-width="1.5"/>
<path d="M99.092 80.7993L140.901 57.5993" stroke="#FF4A4A" stroke-width="1.5"/>
<path d="M14.6704 30.799L55.2734 7.99902" stroke="#FF4A4A" stroke-width="1.5"/>
<path d="M57.2832 55.9991L99.0922 33.5991" stroke="#FF4A4A" stroke-width="1.5"/>
<path d="M35.3722 43.2003L75.9752 20.4003" stroke="#FF4A4A" stroke-width="1.5"/>
<path d="M78.186 68.8L119.995 45.6" stroke="#FF4A4A" stroke-width="1.5"/>
<path d="M106.328 85.5996L148.137 61.5996" stroke="#FF4A4A" stroke-width="1.5"/>
<path d="M113.563 99.1987L155.372 75.1987" stroke="#FF4A4A" stroke-width="1.5"/>
<path d="M113.563 108.801L155.372 84.8008" stroke="#FF4A4A" stroke-width="1.5"/>
<path d="M113.563 119.2L155.372 95.2003" stroke="#FF4A4A" stroke-width="1.5"/>
<path d="M113.563 128.801L155.372 104.801" stroke="#FF4A4A" stroke-width="1.5"/>
<path d="M113.563 138.401L155.372 114.401" stroke="#FF4A4A" stroke-width="1.5"/>
<path d="M113.563 148.801L155.372 124.801" stroke="#FF4A4A" stroke-width="1.5"/>
<path d="M21.906 34.8009L62.509 12.0009" stroke="#FF4A4A" stroke-width="1.5"/>
<path d="M64.5187 60.001L106.328 37.601" stroke="#FF4A4A" stroke-width="1.5"/>
<path d="M92.6571 76.799L134.466 53.599" stroke="#FF4A4A" stroke-width="1.5"/>
<path d="M42.6078 47.2006L83.2108 24.4006" stroke="#FF4A4A" stroke-width="1.5"/>
<path d="M85.4215 72.8003L127.231 49.6003" stroke="#FF4A4A" stroke-width="1.5"/>
<path d="M112.513 91.2006L155.126 66.4006" stroke="#FF4A4A" stroke-width="1.5"/>
<path d="M2.40692 23.5999L106.816 85.8188C110.75 88.1635 113.161 92.4059 113.161 96.9862V160" stroke="#FF4A4A" stroke-width="1.5"/>
</svg>
