<svg width="57" height="52" viewBox="0 0 57 52" fill="none" xmlns="http://www.w3.org/2000/svg">
<path d="M12.1761 3.57678L55.3506 33.0561L44.673 48.8403L1.49854 19.1289L12.1761 3.57678Z" fill="#0E0F23"/>
<path d="M55.3561 33.058C51.6422 38.3967 39.1077 36.3076 27.2695 27.9513C15.1992 19.8271 8.69985 8.91739 12.1817 3.57862C15.8956 -1.76016 28.4301 0.328926 40.2683 8.68527C52.3386 16.5774 58.8379 27.7192 55.3561 33.058Z" fill="#0E0F23"/>
<path d="M44.6723 48.6093C40.9584 53.9481 28.4239 51.859 16.5857 43.5026C4.74754 35.1463 -1.98397 24.4687 1.72997 18.8978C5.4439 13.5591 17.9784 15.6481 29.8166 24.0045C41.6547 32.3608 48.1541 43.2705 44.6723 48.6093Z" fill="#0E0F23"/>
<path d="M55.3464 33.0602L44.6688 48.8444C40.9549 54.1832 28.4204 51.862 16.5822 43.7378C14.261 42.1129 12.1719 40.4881 10.0828 38.6311C11.7077 38.399 13.7968 37.4705 15.8858 35.1493C19.5998 31.2033 21.4567 30.2748 23.0816 30.5069C24.7064 30.5069 26.5634 32.1317 29.581 36.0778C32.5985 40.0238 36.7767 41.1845 39.33 39.0954C39.5622 38.8632 39.7943 38.8632 40.0264 38.6311C42.1155 37.0063 42.8119 36.3099 46.7579 28.882C47.6864 27.0251 50.9361 24.0075 55.3464 25.4002C56.507 28.4178 56.507 30.9711 55.3464 33.0602Z" fill="#0E0F23"/>
<path fill-rule="evenodd" clip-rule="evenodd" d="M53.7292 32.1293C50.4795 36.7717 39.1056 34.4505 28.1959 26.7906C17.0541 19.1306 10.5547 9.3815 13.8044 4.73908C17.0541 0.0966644 28.4281 2.41787 39.3377 10.0779C50.2474 17.7378 56.7468 27.4869 53.7292 32.1293ZM43.5159 25.1657C41.8911 27.4869 36.3202 26.3263 30.7493 22.6124C25.4105 18.8984 22.1608 14.0239 23.7856 11.7027C25.4105 9.3815 30.9814 10.5421 36.5523 14.256C41.8911 17.97 45.1407 22.8445 43.5159 25.1657Z" fill="white"/>
<path d="M11.2487 8.91567C11.2487 8.68355 11.0166 8.45143 10.7844 8.68355C10.5523 8.91567 10.3202 8.91567 10.3202 9.14779C10.5523 9.84415 10.7844 10.3084 10.7844 10.7726C10.7844 11.0048 11.0166 11.2369 11.2487 11.0048C11.4808 11.0048 11.7129 10.7726 11.4808 10.5405C11.4808 10.0763 11.4808 9.61203 11.2487 8.91567Z" fill="white"/>
<path d="M12.409 12.6332C12.409 12.4011 12.1769 12.169 11.9448 12.4011C11.7126 12.6332 11.7126 12.6332 11.7126 12.8653C14.266 18.6683 19.6048 24.9356 26.5684 29.578C26.8005 29.8101 27.0326 29.578 27.2647 29.578C27.4969 29.3459 27.2647 29.1138 27.2647 28.8817C20.069 24.2392 14.9623 18.2041 12.409 12.6332Z" fill="white"/>
<path d="M40.4971 35.3811C40.265 35.3811 40.0328 35.3811 40.0328 35.6132C40.0328 35.8453 40.0328 36.0775 40.265 36.0775C40.9613 36.3096 41.8898 36.5417 42.5862 36.7738C42.8183 36.7738 43.0504 36.7738 43.0504 36.5417C43.0504 36.3096 43.0504 36.0775 42.8183 36.0775C42.1219 35.8453 41.1934 35.6132 40.4971 35.3811Z" fill="white"/>
<path d="M44.6784 36.3053C44.4463 36.3053 44.2142 36.5374 44.2142 36.7695C44.2142 37.0017 44.4463 37.2338 44.6784 37.2338C46.5354 37.4659 48.6245 37.698 50.2493 37.4659C50.4814 37.4659 50.7136 37.2338 50.7136 37.0017C50.7136 36.7695 50.4814 36.5374 50.2493 36.5374C48.3923 36.7695 46.5354 36.5374 44.6784 36.3053Z" fill="white"/>
</svg>
