<svg width="32" height="32" viewBox="0 0 32 32" fill="none" xmlns="http://www.w3.org/2000/svg">
<path d="M31.9258 11.1719L27.3098 0.532864C27.1148 0.0796582 26.5932 -0.120535 26.14 0.0744414L21.6187 2.03994C21.4027 2.13482 20.8968 2.46673 21.1603 3.20979L21.4133 3.78943L4.90939 12.6789C4.51944 12.8844 4.35079 13.3535 4.49841 13.7644L0.535708 15.4823C-0.149317 15.8406 -0.0175942 16.4414 0.0772856 16.6522L1.56325 20.0721C1.97953 20.794 2.62241 20.5832 2.7331 20.5305L6.70102 18.8126C6.85385 19.113 7.15944 19.3027 7.48614 19.3027C7.58102 19.3027 15.833 16.5362 15.833 16.5362V18.8284H13.4037C12.9137 18.8284 12.5132 19.2236 12.5132 19.719C12.5132 20.209 12.9085 20.6095 13.4037 20.6095H14.1362L9.62558 30.7584C9.42531 31.2063 9.62029 31.7543 10.0788 31.9283C10.4424 32.0705 11.022 31.9915 11.2486 31.4751L15.833 21.1523V28.9194C15.833 29.4095 16.2282 29.81 16.7236 29.81C17.2136 29.81 17.6141 29.4147 17.6141 28.9194V21.1576L22.1985 31.4804C22.4145 31.9125 22.8993 32.1128 23.3683 31.9336C23.8267 31.7649 24.0165 31.2116 23.8215 30.7637L19.3109 20.6148H20.0276C20.5176 20.6148 20.9181 20.2196 20.9181 19.7243C20.9181 19.2342 20.5229 18.8337 20.0276 18.8337H17.5983V15.9355L25.5078 13.2639L25.7607 13.8435C25.9029 14.1755 26.2771 14.4759 26.9305 14.3019L31.4518 12.3364C31.9205 12.152 32.1208 11.6251 31.9258 11.1719ZM2.8385 18.5491L2.06389 16.7628L5.20446 15.398L5.97907 17.1843L2.8385 18.5491ZM7.97089 17.3108L6.47963 13.8698L6.47434 13.8487L22.1193 5.42284L24.812 11.625L7.97089 17.3108ZM27.0516 12.3259L23.1416 3.32041L26.0399 2.06097L29.9498 11.0665L27.0516 12.3259Z" fill="#B0AFB3"/>
</svg>
