<svg width="32" height="32" viewBox="0 0 32 32" fill="none" xmlns="http://www.w3.org/2000/svg">
<path d="M16 0C7.1635 0 0 7.1635 0 16C0 24.8365 7.1635 32 16 32C24.8365 32 32 24.8365 32 16C32 7.1635 24.8365 0 16 0ZM20 2.593C24.507 3.9365 28.0515 7.493 29.397 12H22.9105C22.2087 10.7948 21.2058 9.79268 20 9.09197V2.593ZM21.9885 16.0065C21.9885 19.317 19.3075 22.0005 16 22.0005C12.6925 22.0005 10.0115 19.317 10.0115 16.0065C10.0115 12.696 12.693 10.012 16 10.012C19.307 10.012 21.9885 12.696 21.9885 16.0065ZM14 2.154C14.6535 2.0605 15.3205 2.0095 16 2.0095C16.679 2.0095 17.3465 2.0605 18 2.154V8.273C17.36 8.1075 16.692 8.0105 16 8.0105C15.308 8.0105 14.6405 8.1075 14 8.273V2.154ZM12 2.593V9.092C10.795 9.7915 9.79003 10.7965 9.08953 12H2.60303C3.94803 7.493 7.49303 3.93653 12 2.593ZM2.00953 16.005C2.00953 15.323 2.0675 14.6559 2.16203 13.9999H8.26803C8.10203 14.6409 8.01053 15.3119 8.01053 16.0054C8.01053 16.6949 8.10153 17.3625 8.26553 18H2.16053C2.06756 17.3475 2.00953 16.683 2.00953 16.005ZM12 29.4164C7.4895 28.0724 3.94353 24.5109 2.60003 19.9999H9.08353C9.78453 21.2079 10.7915 22.217 12 22.9185V29.4165V29.4164ZM18 29.8554C17.3465 29.9489 16.679 29.9999 16 29.9999C15.3205 29.9999 14.6535 29.9484 14 29.8554V23.7374C14.6405 23.9029 15.308 23.9999 16 23.9999C16.692 23.9999 17.36 23.9029 18 23.7374V29.8554ZM20 29.4164V22.9184C21.208 22.2169 22.2156 21.2079 22.9161 19.9999H29.3996C28.056 24.5104 24.5101 28.0724 20.0001 29.4164L20 29.4164ZM23.7345 17.9999C23.8985 17.3624 23.9895 16.6949 23.9895 16.0054C23.9895 15.3119 23.898 14.6409 23.7315 13.9999H29.838C29.932 14.6559 29.9905 15.3229 29.9905 16.0049C29.9905 16.6829 29.933 17.3479 29.8395 17.9999H23.7345Z" fill="#B0AFB3"/>
</svg>
