<svg width="63" height="16" viewBox="0 0 63 16" fill="none" xmlns="http://www.w3.org/2000/svg">
<g clip-path="url(#clip0_273_4457)">
<path fill-rule="evenodd" clip-rule="evenodd" d="M39.9693 15.6873H37.3337C36.8386 15.6873 36.4373 15.2849 36.4373 14.7891V7.80869L31.8108 10.7159C31.4226 10.9599 30.929 10.9599 30.5409 10.7159L25.9144 7.80839V14.7891C25.9144 15.2849 25.5128 15.6873 25.018 15.6873H22.3823C21.8869 15.6873 21.486 15.2849 21.486 14.7891V1.33507C21.486 0.371693 22.5634 -0.197413 23.3564 0.347144L30.6694 5.36731C30.9744 5.57717 31.3772 5.57717 31.6826 5.36731L38.9949 0.347144C39.7882 -0.197712 40.8657 0.371393 40.8657 1.33477V14.7891C40.8657 15.2849 40.4644 15.6873 39.9693 15.6873Z" fill="white"/>
<path fill-rule="evenodd" clip-rule="evenodd" d="M17.5172 15.5673L1.18946 15.567C0.532581 15.567 0 15.0331 0 14.3745V0.894417C0 0.400401 0.399361 0 0.892096 0H3.51515C4.00759 0 4.40725 0.400401 4.40725 0.894417V11.1483L14.2994 11.1486V0.894417C14.2994 0.400401 14.6985 0 15.1915 0H17.8146C18.307 0 18.7066 0.400401 18.7066 0.894417V14.3748C18.7066 15.0334 18.1741 15.5673 17.5172 15.5673Z" fill="white"/>
<path fill-rule="evenodd" clip-rule="evenodd" d="M44.7997 0L61.1274 0.000298139C61.7843 0.000298139 62.3169 0.534265 62.3169 1.19285V14.6729C62.3169 15.1669 61.9172 15.5673 61.4248 15.5673H58.8017C58.309 15.5673 57.9096 15.1669 57.9096 14.6729V5.0153C57.9096 4.68615 57.6432 4.41902 57.3149 4.41902L48.6122 4.41872C48.2839 4.41872 48.0175 4.68555 48.0175 5.015V14.6729C48.0175 15.1669 47.6181 15.5673 47.1254 15.5673H44.5023C44.0096 15.5673 43.6102 15.1669 43.6102 14.6729V1.19256C43.6102 0.533967 44.1428 0 44.7997 0Z" fill="white"/>
<path fill-rule="evenodd" clip-rule="evenodd" d="M50.7587 8.19314V10.8469C50.7587 11.3377 51.1584 11.7354 51.6515 11.7354H54.2744C54.7675 11.7354 55.1672 11.3377 55.1672 10.8469V8.19314C55.1672 7.70242 54.7675 7.30469 54.2744 7.30469H51.6515C51.1584 7.30469 50.7587 7.70242 50.7587 8.19314Z" fill="white"/>
</g>
<defs>
<clipPath id="clip0_273_4457">
<rect width="62.3158" height="16" fill="white"/>
</clipPath>
</defs>
</svg>
