<svg viewBox="0 0 284 50" fill="none" xmlns="http://www.w3.org/2000/svg">
<g opacity="0.5">
<path fill-rule="evenodd" clip-rule="evenodd" d="M52.801 35.0486H49.3658C48.7205 35.0486 48.1975 34.5242 48.1975 33.8781V24.7801L42.1675 28.5692C41.6617 28.8872 41.0183 28.8872 40.5124 28.5692L34.4825 24.7797V33.8781C34.4825 34.5242 33.9591 35.0486 33.3142 35.0486H29.879C29.2333 35.0486 28.7107 34.5242 28.7107 33.8781V16.3427C28.7107 15.0871 30.115 14.3453 31.1485 15.0551L40.6799 21.5981C41.0775 21.8716 41.6025 21.8716 42.0005 21.5981L51.531 15.0551C52.565 14.3449 53.9693 15.0867 53.9693 16.3423V33.8781C53.9693 34.5242 53.4463 35.0486 52.801 35.0486Z" fill="black"/>
<path fill-rule="evenodd" clip-rule="evenodd" d="M23.5391 34.895L2.25829 34.8946C1.40215 34.8946 0.708008 34.1987 0.708008 33.3403V15.7711C0.708008 15.1272 1.22852 14.6053 1.87072 14.6053H5.28949C5.93131 14.6053 6.4522 15.1272 6.4522 15.7711V29.1355L19.3452 29.1359V15.7711C19.3452 15.1272 19.8653 14.6053 20.5079 14.6053H23.9266C24.5685 14.6053 25.0894 15.1272 25.0894 15.7711V33.3407C25.0894 34.1991 24.3952 34.895 23.5391 34.895Z" fill="black"/>
<path fill-rule="evenodd" clip-rule="evenodd" d="M59.0964 14.6053L80.3772 14.6057C81.2333 14.6057 81.9275 15.3017 81.9275 16.16V33.7293C81.9275 34.3732 81.4066 34.895 80.7648 34.895H77.346C76.7038 34.895 76.1833 34.3732 76.1833 33.7293V21.142C76.1833 20.713 75.836 20.3648 75.4082 20.3648L64.0655 20.3645C63.6376 20.3645 63.2903 20.7122 63.2903 21.1416V33.7293C63.2903 34.3732 62.7698 34.895 62.1276 34.895H58.7089C58.0667 34.895 57.5461 34.3732 57.5461 33.7293V16.1596C57.5461 15.3013 58.2403 14.6053 59.0964 14.6053Z" fill="black"/>
<path fill-rule="evenodd" clip-rule="evenodd" d="M66.8635 25.2842V28.7431C66.8635 29.3827 67.3845 29.901 68.0272 29.901H71.4458C72.0885 29.901 72.6095 29.3827 72.6095 28.7431V25.2842C72.6095 24.6447 72.0885 24.1263 71.4458 24.1263H68.0272C67.3845 24.1263 66.8635 24.6447 66.8635 25.2842Z" fill="black"/>
</g>
<path opacity="0.25" d="M101.045 30.8181V25.8747H96.2086V23.403H101.045V18.4748H103.639V23.403H108.521V25.8747H103.639V30.8181H101.045Z" fill="#1C1C1C"/>
<path opacity="0.5" d="M124.101 25.9463L140.374 12.1314C140.889 11.694 141.639 12.2604 141.36 12.8758L137.097 22.2562C136.906 22.6752 137.213 23.1509 137.673 23.1509H145.766C146.36 23.1509 146.627 23.8961 146.167 24.2731L129.98 37.5575C129.457 37.9864 128.717 37.4072 129.007 36.7966L133.202 27.9663C133.401 27.5463 133.095 27.0617 132.63 27.0617H124.511C123.922 27.0617 123.652 26.3276 124.101 25.9463Z" fill="black"/>
<path opacity="0.25" d="M161.754 22.6859V20.2446H174.189V22.6859H161.754ZM161.754 29.033V26.5613H174.189V29.033H161.754Z" fill="#1C1C1C"/>
<path d="M202.711 34.111C201.23 35.6134 199.333 36.3646 197.02 36.3646C194.707 36.3646 192.826 35.6188 191.378 34.1272C189.94 32.6355 189.221 30.6953 189.221 28.3065C189.221 25.9177 189.956 23.9667 191.426 22.4534C192.896 20.9293 194.788 20.1673 197.101 20.1673C199.414 20.1673 201.295 20.9293 202.743 22.4534C204.203 23.9667 204.932 25.9177 204.932 28.3065C204.932 30.6629 204.192 32.5977 202.711 34.111ZM197.02 33.6083C198.436 33.6083 199.56 33.1435 200.392 32.214C201.225 31.2736 201.641 30.0035 201.641 28.4038V28.2741C201.641 26.6311 201.23 25.3286 200.409 24.3666C199.598 23.4046 198.495 22.9236 197.101 22.9236C195.707 22.9236 194.593 23.4046 193.761 24.3666C192.929 25.3286 192.513 26.6311 192.513 28.2741V28.4038C192.513 30.0143 192.912 31.2844 193.712 32.214C194.523 33.1435 195.626 33.6083 197.02 33.6083ZM215.147 36.4781C209.721 36.4781 206.565 34.0083 205.679 29.0685H209.262C209.586 30.6791 210.197 31.8302 211.094 32.522C212.002 33.203 213.315 33.5435 215.034 33.5435C216.525 33.5435 217.682 33.2192 218.504 32.5707C219.336 31.9113 219.752 30.9979 219.752 29.8306C219.752 29.409 219.644 29.0307 219.428 28.6956C219.222 28.3605 218.963 28.0849 218.649 27.8687C218.347 27.6525 217.914 27.4526 217.352 27.2688C216.79 27.0743 216.271 26.9229 215.796 26.8148C215.331 26.7068 214.715 26.5824 213.948 26.4419C213.364 26.323 212.84 26.2095 212.375 26.1014C211.91 25.9825 211.407 25.8312 210.867 25.6475C210.327 25.4529 209.851 25.2529 209.44 25.0476C209.04 24.8314 208.64 24.5666 208.24 24.2531C207.84 23.9396 207.511 23.5992 207.251 23.2316C207.003 22.8533 206.797 22.4156 206.635 21.9183C206.484 21.4103 206.408 20.8591 206.408 20.2646C206.408 18.3514 207.132 16.7732 208.581 15.5302C210.029 14.2872 211.883 13.6656 214.142 13.6656C216.661 13.6656 218.682 14.2872 220.206 15.5302C221.73 16.7624 222.654 18.5946 222.978 21.0266H219.428C219.201 19.4593 218.644 18.3297 217.758 17.638C216.882 16.9354 215.666 16.5841 214.11 16.5841C212.759 16.5841 211.683 16.9029 210.883 17.5407C210.094 18.1784 209.7 19.0323 209.7 20.1024C209.7 20.4699 209.764 20.805 209.894 21.1077C210.035 21.3995 210.24 21.6535 210.51 21.8697C210.791 22.0751 211.094 22.2588 211.418 22.421C211.753 22.5831 212.153 22.729 212.618 22.8587C213.083 22.9776 213.526 23.0857 213.948 23.183C214.38 23.2695 214.883 23.3668 215.455 23.4748C215.574 23.4965 215.666 23.5127 215.731 23.5235C216.574 23.6856 217.298 23.8532 217.904 24.0261C218.509 24.1882 219.157 24.4314 219.849 24.7557C220.552 25.0692 221.119 25.4313 221.552 25.842C221.984 26.2528 222.346 26.7878 222.638 27.4472C222.93 28.0957 223.076 28.8361 223.076 29.6684C223.076 31.7113 222.368 33.3597 220.952 34.6136C219.536 35.8566 217.601 36.4781 215.147 36.4781ZM224.876 36.1052V20.4267H228.135V23.3938C229 21.1995 230.605 20.1024 232.95 20.1024C234.658 20.1024 235.993 20.6645 236.955 21.7886C237.917 22.902 238.398 24.4963 238.398 26.5716V36.1052H235.107V26.7338C235.107 24.2369 234.058 22.9884 231.961 22.9884C230.74 22.9884 229.794 23.4748 229.124 24.4477C228.465 25.4205 228.135 26.804 228.135 28.5983V36.1052H224.876ZM245.5 36.5106C243.836 36.5106 242.517 36.0998 241.544 35.2783C240.572 34.446 240.085 33.3489 240.085 31.987C240.085 31.4898 240.139 31.0412 240.247 30.6412C240.355 30.2305 240.496 29.8792 240.669 29.5874C240.853 29.2847 241.096 29.0091 241.398 28.7605C241.712 28.5011 242.02 28.2903 242.323 28.1281C242.625 27.9552 243.009 27.7931 243.474 27.6417C243.939 27.4796 244.366 27.3499 244.755 27.2526C245.144 27.1553 245.625 27.0418 246.198 26.9121C246.479 26.8473 246.83 26.7716 247.252 26.6851C247.684 26.5987 248.008 26.5338 248.224 26.4906C248.451 26.4473 248.716 26.3879 249.019 26.3122C249.321 26.2366 249.548 26.1717 249.7 26.1177C249.862 26.0636 250.029 25.9934 250.202 25.9069C250.386 25.8204 250.521 25.7285 250.608 25.6313C250.705 25.534 250.775 25.4259 250.819 25.307V25.08C250.819 24.3882 250.543 23.8369 249.992 23.4262C249.44 23.0047 248.597 22.7939 247.462 22.7939C246.317 22.7939 245.425 23.0425 244.787 23.5397C244.16 24.0261 243.814 24.7179 243.749 25.615V25.8096H240.458C240.501 24.0693 241.161 22.6966 242.436 21.6914C243.712 20.6753 245.398 20.1673 247.495 20.1673C249.559 20.1673 251.143 20.6429 252.245 21.5941C253.348 22.5453 253.899 23.9937 253.899 25.9393V33.6732L253.932 36.1052H250.786V33.7543C250.267 34.6622 249.543 35.3486 248.613 35.8134C247.695 36.2782 246.657 36.5106 245.5 36.5106ZM246.1 34.0137C247.354 34.0137 248.424 33.6678 249.311 32.976C250.197 32.2842 250.7 31.2249 250.819 29.7981V27.8687C250.592 28.0201 250.294 28.166 249.927 28.3065C249.57 28.447 249.262 28.5497 249.003 28.6146C248.743 28.6794 248.332 28.7767 247.77 28.9064C247.219 29.0361 246.852 29.1226 246.668 29.1658C246.149 29.2955 245.717 29.4252 245.371 29.5549C245.036 29.6846 244.706 29.8522 244.382 30.0576C244.057 30.2629 243.814 30.5169 243.652 30.8196C243.49 31.1114 243.409 31.4573 243.409 31.8573C243.409 32.5166 243.647 33.0409 244.122 33.43C244.598 33.8191 245.257 34.0137 246.1 34.0137ZM256.494 42.2826V20.4267H259.688V22.7614C260.25 21.9183 260.963 21.2644 261.828 20.7996C262.704 20.3348 263.682 20.1024 264.763 20.1024C266.817 20.1024 268.503 20.8374 269.821 22.3075C271.151 23.7667 271.816 25.7231 271.816 28.1768V28.2092C271.816 30.6953 271.151 32.6896 269.821 34.192C268.492 35.6837 266.795 36.4295 264.73 36.4295C263.671 36.4295 262.709 36.2025 261.844 35.7485C260.99 35.2945 260.282 34.6622 259.72 33.8515V42.2826H256.494ZM263.936 33.6408C265.287 33.6408 266.368 33.1706 267.179 32.2302C267.989 31.279 268.395 29.9711 268.395 28.3065V28.0633C268.395 26.4095 267.995 25.134 267.195 24.2369C266.395 23.3397 265.309 22.8912 263.936 22.8912C262.585 22.8912 261.509 23.383 260.709 24.3666C259.92 25.3502 259.526 26.6311 259.526 28.2092V28.4686C259.526 30.0251 259.92 31.279 260.709 32.2302C261.499 33.1706 262.574 33.6408 263.936 33.6408Z" fill="#FF4A4A"/>
<path fill-rule="evenodd" clip-rule="evenodd" d="M273.225 9.35018C273.688 9.47406 273.962 9.94927 273.838 10.4116L273.394 12.069C273.27 12.5313 272.795 12.8057 272.333 12.6818C271.87 12.558 271.596 12.0827 271.72 11.6204L272.164 9.96299C272.288 9.50066 272.763 9.2263 273.225 9.35018ZM271.893 14.3225C272.355 14.4463 272.63 14.9215 272.506 15.3839L272.062 17.0413C271.938 17.5036 271.462 17.778 271 17.6541C270.538 17.5302 270.263 17.055 270.387 16.5927L270.831 14.9353C270.955 14.4729 271.43 14.1986 271.893 14.3225ZM279.742 13.2515C280.081 13.59 280.081 14.1387 279.742 14.4772L278.529 15.6905C278.19 16.0289 277.642 16.0289 277.303 15.6905C276.965 15.352 276.965 14.8033 277.303 14.4649L278.517 13.2515C278.855 12.9131 279.404 12.9131 279.742 13.2515ZM276.102 16.8915C276.44 17.23 276.44 17.7787 276.102 18.1171L274.888 19.3304C274.55 19.6689 274.001 19.6689 273.663 19.3304C273.324 18.992 273.324 18.4433 273.663 18.1048L274.876 16.8915C275.215 16.5531 275.763 16.5531 276.102 16.8915ZM283.006 20.8056C283.468 20.6817 283.743 20.2065 283.619 19.7442C283.495 19.2818 283.02 19.0075 282.557 19.1314L280.9 19.5755C280.437 19.6993 280.163 20.1745 280.287 20.6369C280.411 21.0992 280.886 21.3736 281.348 21.2497L283.006 20.8056ZM278.033 22.1379C278.496 22.014 278.77 21.5388 278.646 21.0765C278.522 20.6142 278.047 20.3398 277.585 20.4637L275.927 20.9078C275.465 21.0317 275.19 21.5069 275.314 21.9692C275.438 22.4315 275.913 22.7059 276.376 22.582L278.033 22.1379Z" fill="#FF4A4A"/>
</svg>
