<svg width="32" height="32" viewBox="0 0 32 32" fill="none" xmlns="http://www.w3.org/2000/svg">
<path d="M31.8909 13.418L28.679 8.61554L30.2775 3.02754C30.377 2.67704 30.2795 2.30004 30.0205 2.04304C29.7625 1.78504 29.3875 1.68957 29.035 1.79207L23.4565 3.42107L18.635 0.174038C18.3315 -0.0299929 17.9425 -0.0544929 17.6205 0.113507C17.2964 0.279507 17.0884 0.609476 17.0764 0.972976L16.9034 6.78348L12.3254 10.3645C12.0385 10.589 11.8969 10.9525 11.9544 11.312C12.0119 11.6715 12.2609 11.9709 12.6049 12.0939L16.9004 13.6339C16.8714 13.6569 16.8409 13.6775 16.8139 13.7045L0.227934 30.2905C-0.162566 30.681 -0.162566 31.314 0.227934 31.7045C0.423434 31.9 0.678933 31.9975 0.934933 31.9975C1.19093 31.9975 1.44643 31.9 1.64193 31.7045L18.2279 15.1185C18.2925 15.054 18.3424 14.981 18.3854 14.9055L20.0664 19.5165C20.1279 19.6845 20.2332 19.8329 20.3714 19.9464C20.5096 20.0599 20.6757 20.1344 20.8524 20.162C20.9034 20.17 20.9549 20.1735 21.0059 20.1735C21.1587 20.1734 21.3093 20.1383 21.4464 20.0709C21.5835 20.0036 21.7034 19.9058 21.7969 19.785L25.3524 15.186L31.0994 14.981C31.4639 14.9685 31.7919 14.7585 31.9569 14.433C32.1214 14.1085 32.0959 13.719 31.8909 13.418L31.8909 13.418ZM24.814 13.2045C24.517 13.2145 24.24 13.3571 24.058 13.5921L21.3245 17.1266L19.794 12.9291C19.6925 12.6496 19.4715 12.4311 19.1915 12.3306L14.9855 10.8226L18.505 8.07057C18.7395 7.88707 18.879 7.60957 18.889 7.31257L19.022 2.84557L22.728 5.34157C22.8499 5.42325 22.9881 5.4773 23.133 5.49992C23.278 5.52255 23.4261 5.5132 23.5671 5.47254L27.8561 4.21957L26.6266 8.51557C26.5865 8.65683 26.5779 8.80514 26.6013 8.95009C26.6247 9.09503 26.6796 9.23309 26.7621 9.35457L29.2796 13.0461L24.814 13.2045Z" fill="#FF4A4A"/>
</svg>
