<svg width="56" height="57" viewBox="0 0 56 57" fill="none" xmlns="http://www.w3.org/2000/svg">
<rect x="4" y="4.65405" width="48" height="48" rx="24" fill="#FFEBEB"/>
<path d="M29.0001 18.6541L20.0936 29.3419C19.7448 29.7605 19.5703 29.9698 19.5677 30.1465C19.5654 30.3002 19.6338 30.4464 19.7534 30.5429C19.8909 30.6541 20.1633 30.6541 20.7081 30.6541H28.0001L27.0001 38.6541L35.9067 27.9662C36.2555 27.5476 36.4299 27.3383 36.4325 27.1616C36.4348 27.0079 36.3664 26.8617 36.2468 26.7652C36.1094 26.6541 35.8369 26.6541 35.2921 26.6541H28.0001L29.0001 18.6541Z" stroke="#FF4A4A" stroke-width="2" stroke-linecap="round" stroke-linejoin="round"/>
<rect x="4" y="4.65405" width="48" height="48" rx="24" stroke="#FFF5F5" stroke-width="8"/>
</svg>
